<svg width="75" height="50" viewBox="0 0 75 50" fill="none" xmlns="http://www.w3.org/2000/svg">
<path d="M75 14.8962V47.0696C75 48.5348 73.7795 49.7558 72.3149 49.7558H67.738C67.0667 49.7558 66.5175 49.2063 66.5175 48.5348C66.5175 47.8632 67.0667 47.3138 67.738 47.3138H72.3759C72.498 47.3138 72.62 47.1917 72.62 47.0696V14.8962C72.62 14.7741 72.498 14.652 72.3759 14.652H54.5565C54.4345 14.652 54.3124 14.7741 54.3124 14.8962V24.7253C54.3124 25.3968 53.7632 25.9463 53.0919 25.9463C52.4207 25.9463 51.8714 25.3968 51.8714 24.7253V14.8962C51.8714 13.431 53.0919 12.21 54.5565 12.21H63.5273V3.47985C63.5273 2.86935 63.0391 2.442 62.4898 2.442H10.0081C9.39788 2.442 8.97071 2.9304 8.97071 3.47985V25.2137H34.8454C36.31 25.2137 37.5305 26.4347 37.5305 27.8999V47.0085C37.5305 48.4737 36.31 49.6947 34.8454 49.6947H23.6778C23.0065 49.6947 22.4573 49.1453 22.4573 48.4737C22.4573 47.8022 23.0065 47.2527 23.6778 47.2527H34.8454C34.9674 47.2527 35.0895 47.1306 35.0895 47.0085V27.8999C35.0895 27.7778 34.9674 27.6557 34.8454 27.6557H2.68511C2.56306 27.6557 2.44101 27.7778 2.44101 27.8999V47.0085C2.44101 47.1306 2.56306 47.2527 2.68511 47.2527H13.8527C14.524 47.2527 15.0732 47.8022 15.0732 48.4737C15.0732 49.1453 14.524 49.6947 13.8527 49.6947H2.68511C1.2205 49.6947 0 48.4737 0 47.0085V27.8999C0 26.4347 1.2205 25.2137 2.68511 25.2137H6.5297V3.47985C6.5297 1.5873 8.11635 0 10.0081 0H62.4898C64.3816 0 65.9683 1.5873 65.9683 3.47985V12.21H72.3759C73.8405 12.21 75 13.37 75 14.8962ZM57.8519 47.3138H54.5565C54.4345 47.3138 54.3124 47.1917 54.3124 47.0696V36.63C54.3124 35.9585 53.7632 35.409 53.0919 35.409C52.4207 35.409 51.8714 35.9585 51.8714 36.63V47.0696C51.8714 48.5348 53.0919 49.7558 54.5565 49.7558H57.8519C58.5232 49.7558 59.0724 49.2063 59.0724 48.5348C59.0724 47.8632 58.5232 47.3138 57.8519 47.3138ZM59.8657 33.3944C63.5273 33.3944 66.7616 32.1734 69.0195 29.8535C69.5077 29.3651 69.4467 28.6325 69.0195 28.1441C68.5313 27.6557 67.799 27.6557 67.3108 28.1441C64.7478 30.7692 60.598 31.6239 56.1432 30.525C50.5289 29.1209 47.1115 24.4811 43.511 19.0476C40.9479 15.1404 38.3238 11.5385 34.1131 10.0122C31.489 9.09646 28.6819 9.46276 25.9357 11.1722C22.8845 13.0647 20.6265 15.812 18.9788 18.0098C18.5517 18.5592 18.6737 19.2918 19.2229 19.7192C19.7722 20.1465 20.5045 20.0244 20.9317 19.475C23.1896 16.4835 25.0814 14.5299 27.2172 13.2479C28.6819 12.3321 30.9398 11.4164 33.2587 12.2711C36.7982 13.5531 39.1172 16.7888 41.4361 20.3297C45.1587 26.0073 49.0033 31.1966 55.4719 32.8449C56.9976 33.2112 58.4622 33.3944 59.8657 33.3944ZM18.7958 46.8864C17.9414 46.8864 17.2701 47.558 17.2701 48.4127C17.2701 49.2674 17.9414 49.9389 18.7958 49.9389C19.6501 49.9389 20.3214 49.2674 20.3214 48.4127C20.3214 47.558 19.6501 46.8864 18.7958 46.8864ZM62.795 46.8864C61.9406 46.8864 61.2693 47.558 61.2693 48.4127C61.2693 49.2674 61.9406 49.9389 62.795 49.9389C63.6493 49.9389 64.3206 49.2674 64.3206 48.4127C64.3206 47.558 63.6493 46.8864 62.795 46.8864Z" fill="url(#paint0_linear)"/>
<defs>
<linearGradient id="paint0_linear" x1="8.22504" y1="0.343957" x2="65.5487" y2="57.6443" gradientUnits="userSpaceOnUse">
<stop stop-color="#F83854"/>
<stop offset="0.992" stop-color="#5E17CC"/>
</linearGradient>
</defs>
</svg>
