<svg width="13" height="23" viewBox="0 0 13 23" fill="none" xmlns="http://www.w3.org/2000/svg">
<path fill-rule="evenodd" clip-rule="evenodd" d="M0.147191 15.366C0.342453 15.1421 0.659036 15.1421 0.854298 15.366L5.6576 20.8735L5.6576 0.573298C5.6576 0.256674 5.88146 -2.81195e-07 6.1576 -2.69125e-07C6.43374 -2.57054e-07 6.6576 0.256674 6.6576 0.573298L6.6576 20.8735L11.4609 15.366C11.6562 15.1421 11.9727 15.1421 12.168 15.366C12.3633 15.5899 12.3633 15.9529 12.168 16.1768L6.51115 22.6629C6.31589 22.8868 5.99931 22.8868 5.80404 22.6629L0.147191 16.1768C-0.0480707 15.9529 -0.0480706 15.5899 0.147191 15.366Z" fill="black"/>
</svg>
