<svg width="23" height="13" viewBox="0 0 23 13" fill="none" xmlns="http://www.w3.org/2000/svg">
<path d="M14.9638 11.6671C14.7399 11.8623 14.7399 12.1789 14.9638 12.3742C15.1877 12.5694 15.5507 12.5694 15.7745 12.3742L22.2607 6.71732C22.4846 6.52206 22.4846 6.20548 22.2607 6.01022L15.7745 0.353362C15.5507 0.1581 15.1877 0.1581 14.9638 0.353362C14.7399 0.548624 14.7399 0.865207 14.9638 1.06047L21.0445 6.36377L14.9638 11.6671Z" fill="white"/>
<path d="M21.5558 5.65674H0.645609C0.32896 5.65674 0.0722656 5.8806 0.0722656 6.15674C0.0722656 6.43288 0.32896 6.65674 0.645609 6.65674H21.5558C21.8724 6.65674 22.1291 6.43288 22.1291 6.15674C22.1291 5.8806 21.8724 5.65674 21.5558 5.65674Z" fill="white"/>
</svg>
