<svg width="36" height="36" viewBox="0 0 36 36" fill="none" xmlns="http://www.w3.org/2000/svg">
<path fill-rule="evenodd" clip-rule="evenodd" d="M26.1467 12.1445L14.9977 23.2925L9.86074 18.1465C9.66574 17.9515 9.34874 17.9515 9.15374 18.1465C8.95874 18.3405 8.95874 18.6585 9.15374 18.8535L14.6437 24.3535C14.7377 24.4475 14.8647 24.4995 14.9977 24.4995C15.1297 24.4995 15.2567 24.4475 15.3507 24.3535L26.8537 12.8515C27.0487 12.6565 27.0487 12.3395 26.8537 12.1445C26.6587 11.9495 26.3417 11.9495 26.1467 12.1445ZM18.0002 35C8.62624 35 1.00024 27.374 1.00024 18C1.00024 8.626 8.62624 1 18.0002 1C27.3742 1 35.0002 8.626 35.0002 18C35.0002 27.374 27.3742 35 18.0002 35ZM18.0002 0C8.05924 0 0.000244141 8.059 0.000244141 18C0.000244141 27.941 8.05924 36 18.0002 36C27.9412 36 36.0002 27.941 36.0002 18C36.0002 8.059 27.9412 0 18.0002 0Z" fill="#171B1F"/>
</svg>
