<svg width="22" height="29" viewBox="0 0 22 29" fill="none" xmlns="http://www.w3.org/2000/svg">
<path fill-rule="evenodd" clip-rule="evenodd" d="M13.9348 0.600172L13.9347 0.600126C13.8159 0.479855 13.6598 0.414286 13.4921 0.414286H2.64815C1.413 0.414286 0.407407 1.43686 0.407407 2.69286V26.3071C0.407407 27.5631 1.413 28.5857 2.64815 28.5857H19.3519C20.587 28.5857 21.5926 27.5631 21.5926 26.3071V8.61466C21.5926 8.44484 21.5283 8.28741 21.4098 8.16748L13.9348 0.600172ZM21.6973 7.87391C21.8924 8.07153 22 8.3346 22 8.61466V26.3071C22 27.7919 20.812 29 19.3519 29H2.64815C1.188 29 0 27.7919 0 26.3071V2.69286C0 1.20806 1.188 0 2.64815 0H13.4921C13.7675 0 14.027 0.108957 14.2222 0.306571L21.6973 7.87391ZM11.2572 12.3863C11.2179 11.9212 11.1019 11.5661 10.9271 11.3266C10.7197 11.0426 10.4249 10.9214 10.1225 11.0038C9.83734 11.0814 9.59436 11.327 9.43079 11.6633C9.26506 12.0041 9.16915 12.4585 9.18704 13.0018H9.187L9.18708 13.0035C9.23923 14.2721 9.5016 15.1046 9.93276 15.844C10.0101 15.9766 10.0932 16.1065 10.1813 16.2354C9.99635 16.6951 9.78866 17.1487 9.57632 17.6126C9.4756 17.8325 9.37383 18.0547 9.273 18.281L9.27292 18.2811C9.04791 18.7869 8.70516 19.5027 8.30545 20.2618C6.94283 20.7376 5.8245 21.438 4.88094 22.5164C4.55017 22.8898 4.36154 23.2549 4.3001 23.5818C4.2385 23.9097 4.30479 24.2119 4.50263 24.4165C4.70091 24.6215 4.99396 24.6898 5.30571 24.628C5.61579 24.5665 5.95458 24.3766 6.28805 24.0496C6.88665 23.4786 7.56975 22.4243 8.17491 21.3552C8.31677 21.1045 8.45509 20.8518 8.58778 20.6025C9.28909 20.3694 10.0628 20.1928 10.9221 20.0523C11.523 19.9584 12.2876 19.8696 13.0863 19.8331C13.3705 20.1446 13.6419 20.4214 13.9017 20.6633C14.5778 21.2927 15.191 21.7005 15.761 21.8574L15.7616 21.8576C16.5925 22.0836 17.3146 21.8575 17.6017 21.3801C17.7496 21.1342 17.7663 20.8387 17.6243 20.5597C17.4863 20.2884 17.2087 20.0509 16.8009 19.871C15.9974 19.5164 14.9018 19.4014 13.8263 19.4014C13.6367 19.4014 13.447 19.405 13.2587 19.4116C12.8466 18.9509 12.4042 18.4142 11.9275 17.8001L11.9272 17.7997C11.7173 17.5307 11.5207 17.2892 11.3375 17.0641C11.0794 16.7471 10.8478 16.4627 10.6426 16.1795C11.0739 15.0561 11.3699 13.8528 11.2633 12.386L11.2572 12.3863ZM10.4635 16.625C10.299 17.0181 10.1219 17.4042 9.9442 17.7915C9.84361 18.0108 9.74282 18.2304 9.64407 18.452C9.45295 18.8815 9.17917 19.4583 8.85818 20.0847C9.4756 19.9035 10.1404 19.7605 10.8581 19.6432L10.8594 19.643C11.3875 19.5604 12.0406 19.4815 12.7346 19.4375C12.379 19.0276 12.0041 18.5674 11.608 18.0571C11.6079 18.057 11.6078 18.0569 11.6078 18.0568L11.7676 17.9285L11.6081 18.0572C11.6081 18.0572 11.608 18.0571 11.608 18.0571C11.4133 17.8076 11.2251 17.5764 11.0456 17.3559C10.8387 17.1017 10.6434 16.8618 10.4635 16.625ZM10.3616 15.763C10.7051 14.8069 10.9265 13.8024 10.8688 12.6098L10.8623 12.61C10.8446 12.0841 10.7314 11.7536 10.5999 11.5736C10.4757 11.4033 10.3436 11.3725 10.2278 11.404C10.0949 11.4402 9.92864 11.5742 9.79595 11.847C9.6655 12.1153 9.57823 12.4991 9.59416 12.9871C9.64399 14.1963 9.89096 14.9601 10.2832 15.6327C10.3087 15.6765 10.3349 15.7199 10.3616 15.763ZM13.6323 19.8169C13.8203 20.0144 14.0016 20.1946 14.1768 20.3578C14.8348 20.9703 15.3902 21.3261 15.8671 21.4574C16.6038 21.6578 17.0984 21.4228 17.2542 21.164C17.3277 21.0417 17.3389 20.9003 17.2625 20.7501C17.1821 20.5921 16.9949 20.4082 16.6387 20.251C15.9141 19.9312 14.8873 19.8157 13.8263 19.8157C13.7617 19.8157 13.697 19.8161 13.6323 19.8169ZM8.00784 20.815C6.89268 21.2649 5.97276 21.8916 5.18491 22.7922L5.18406 22.7932C4.88689 23.1286 4.74389 23.4275 4.70026 23.6596C4.65683 23.8907 4.71224 24.0424 4.79311 24.126C4.87357 24.2092 5.01628 24.2633 5.22773 24.2214C5.44044 24.1792 5.71177 24.0395 6.0062 23.7505L6.00836 23.7483C6.5584 23.2241 7.21616 22.2185 7.82181 21.1485C7.88456 21.0376 7.94664 20.9263 8.00784 20.815Z" fill="#171B1F"/>
</svg>
