<?xml version="1.0" standalone="no"?>
<!DOCTYPE svg PUBLIC "-//W3C//DTD SVG 1.1//EN" "http://www.w3.org/Graphics/SVG/1.1/DTD/svg11.dtd" >
<svg xmlns="http://www.w3.org/2000/svg">
<metadata>
This is a custom SVG webfont generated by Font Squirrel.
Copyright   : Copyright c 2010 by Ralph du Carrois Erik Spiekermann  Botio Nikoltchev All rights reserved
Designer    : Ralph du Carrois Erik Spiekermann  Botio Nikoltchev
Foundry     : Ralph du Carrois Erik Spiekermann  Botio Nikoltchev
Foundry URL : httpedenspiekermanncom
</metadata>
<defs>
<font id="CiscoSansExtraLightOblique" horiz-adv-x="1228" >
<font-face units-per-em="2048" ascent="1618" descent="-430" />
<missing-glyph horiz-adv-x="614" />
<glyph unicode=" "  horiz-adv-x="614" />
<glyph unicode="&#x09;" horiz-adv-x="614" />
<glyph unicode="&#xa0;" horiz-adv-x="614" />
<glyph unicode="!" horiz-adv-x="532" d="M111 0l32 164h150l-35 -164h-147zM225 463l205 1012h127l-229 -1012h-103z" />
<glyph unicode="&#x22;" d="M367 1004l43 313l41 188h118l-41 -188l-84 -313h-77zM651 1004l43 313l41 188h119l-41 -188l-84 -313h-78z" />
<glyph unicode="#" d="M92 399l21 93h180l133 450h-176l20 92h185l118 400h105l-119 -400h438l119 400h105l-119 -400h174l-21 -92h-182l-133 -450h178l-20 -93h-187l-118 -399h-105l119 399h-438l-119 -399h-105l119 399h-172zM397 492h439l133 450h-439z" />
<glyph unicode="$" d="M72 377h114q0 -145 99.5 -222t279.5 -77q201 0 344.5 94t143.5 266q0 94 -87 161t-311 120q-379 86 -379 328q0 178 141.5 291.5t379.5 123.5l51 238h104q-8 -43 -25.5 -123t-25.5 -117q184 -14 298 -110.5t114 -249.5h-117q-8 127 -98 195.5t-260 68.5q-207 0 -325 -85 t-118 -226q0 -88 77 -144.5t273 -103.5q229 -55 327.5 -143.5t98.5 -215.5q0 -203 -159.5 -330.5t-425.5 -135.5l-54 -256h-104l55 260q-193 16 -302 119.5t-109 273.5z" />
<glyph unicode="%" horiz-adv-x="1697" d="M240 1073q0 186 107.5 288.5t258.5 102.5q131 0 219 -79.5t88 -223.5q0 -172 -103 -280.5t-267 -108.5q-131 0 -217 79t-86 222zM336 1071q0 -109 58.5 -162t152.5 -53q113 0 189.5 80t76.5 225q0 111 -58.5 165t-152.5 54q-125 0 -195.5 -87t-70.5 -222zM365 0l983 1434 h116l-981 -1434h-118zM924 270q0 186 107.5 289t258.5 103q131 0 219 -80t88 -224q0 -172 -103 -280.5t-267 -108.5q-131 0 -217 79t-86 222zM1020 268q0 -109 58.5 -162t152.5 -53q113 0 189.5 80t76.5 225q0 111 -58.5 165.5t-152.5 54.5q-125 0 -195.5 -87.5 t-70.5 -222.5z" />
<glyph unicode="&#x26;" horiz-adv-x="1288" d="M53 285q0 166 98.5 265t315.5 208q-92 117 -131 189.5t-39 146.5q0 150 116.5 260t313.5 110q156 0 244 -78.5t88 -191.5q0 -129 -101.5 -236.5t-341.5 -228.5l330 -410q133 162 203 371l104 -14q-84 -246 -241 -434l168 -207l-88 -66l-156 195q-215 -195 -471 -195 q-195 0 -303.5 88.5t-108.5 227.5zM168 291q0 -104 79 -166t230 -62q211 0 395 181l-348 440q-186 -92 -271 -175t-85 -218zM403 1102q0 -61 36 -128t120 -173q207 106 300 193t93 192q0 78 -56 133t-173 55q-147 0 -233.5 -81.5t-86.5 -190.5z" />
<glyph unicode="'" horiz-adv-x="552" d="M369 1004l45 313l41 188h118l-41 -188l-83 -313h-80z" />
<glyph unicode="(" horiz-adv-x="696" d="M188 330q0 213 54.5 420.5t146.5 376.5t185.5 296t197.5 236h96q-285 -342 -427 -655.5t-142 -684.5q0 -338 141 -667h-92q-160 295 -160 678z" />
<glyph unicode=")" horiz-adv-x="696" d="M-59 -348q285 342 427 655.5t142 683.5q0 334 -141 668h92q160 -289 160 -678q0 -213 -54.5 -421t-146.5 -377t-185.5 -296t-197.5 -235h-96z" />
<glyph unicode="*" horiz-adv-x="962" d="M281 1194l34 98l310 -123l-21 336h105l-21 -338l311 125l35 -98l-329 -84l215 -260l-84 -64l-179 283l-180 -283l-84 64l215 260z" />
<glyph unicode="+" d="M244 608l22 101h361l78 366h108l-78 -366h363l-23 -101h-362l-78 -364h-109l78 364h-360z" />
<glyph unicode="," horiz-adv-x="571" d="M8 -287l15 76q68 23 106.5 71t56.5 140h-53l33 164h151l-36 -176q-27 -125 -95.5 -186.5t-177.5 -88.5z" />
<glyph unicode="-" horiz-adv-x="1105" d="M244 608l22 101h709l-23 -101h-708z" />
<glyph unicode="." horiz-adv-x="583" d="M135 0l33 164h149l-32 -164h-150z" />
<glyph unicode="/" horiz-adv-x="733" d="M-39 -184l813 1689h113l-813 -1689h-113z" />
<glyph unicode="0" d="M158 436q0 98 18.5 219t67.5 267.5t121.5 264.5t193.5 197.5t270 79.5q174 0 276.5 -116.5t102.5 -350.5q0 -98 -18.5 -219t-67.5 -267t-121.5 -264t-193.5 -198t-270 -80q-174 0 -276.5 117t-102.5 350zM268 422q0 -358 277 -359q119 0 217 75t158.5 185.5t101.5 244.5 t57.5 247t16.5 197q0 358 -273 358q-121 0 -219 -74.5t-158.5 -185.5t-102.5 -245t-58.5 -246.5t-16.5 -196.5z" />
<glyph unicode="1" d="M467 1122l25 121l374 191h109l-303 -1434h-111l279 1311z" />
<glyph unicode="2" d="M78 0l20 102l647 541q184 154 264.5 261.5t80.5 238.5q0 104 -71 164.5t-200 60.5q-145 0 -254.5 -77t-152.5 -204h-121q63 174 206.5 275.5t333.5 101.5q164 0 268.5 -86t104.5 -229q0 -166 -94 -292t-315 -308l-539 -447h729l-20 -102h-887z" />
<glyph unicode="3" d="M102 326h113q4 -262 313 -263q203 0 324 122t121 286q0 113 -77 175.5t-202 62.5h-147l20 98h142q162 0 265 104.5t103 241.5q0 100 -76.5 157.5t-201.5 57.5q-147 0 -255 -66.5t-157 -189.5h-119q63 164 206.5 258t336.5 94q168 0 274.5 -82t106.5 -221 q0 -152 -97.5 -261t-252.5 -142q111 -16 176 -92t65 -195q0 -207 -154.5 -353.5t-408.5 -146.5q-195 0 -306.5 95.5t-111.5 259.5z" />
<glyph unicode="4" d="M109 270l22 111l862 1053h129l-227 -1067h221l-18 -97h-221l-58 -270h-110l57 270h-657zM250 367h534l191 895z" />
<glyph unicode="5" d="M117 334h114q0 -129 83 -200t225 -71q197 0 331 149.5t134 348.5q0 131 -80 203t-222 72q-121 0 -221 -50.5t-164 -117.5h-94l191 766h821l-21 -97h-716l-140 -544q170 135 373 135q174 0 278.5 -96.5t104.5 -266.5q0 -240 -163 -418t-425 -178q-188 0 -298.5 102.5 t-110.5 262.5z" />
<glyph unicode="6" d="M162 397q0 66 9 148t32.5 186.5t58.5 204.5t91.5 196.5t126 169t167.5 117.5t213 45q145 0 242.5 -76.5t103.5 -205.5h-114q-8 90 -69.5 139t-168.5 49q-80 0 -152.5 -31.5t-147.5 -104.5t-138.5 -210t-108.5 -330q72 109 186.5 173.5t243.5 64.5q170 0 271.5 -98.5 t101.5 -268.5q0 -250 -163 -423t-402 -173q-195 0 -289 117.5t-94 310.5zM268 387q0 -141 69 -231t218 -90q172 0 307 142t137 353q0 131 -76.5 204t-209.5 73q-178 0 -311.5 -133.5t-133.5 -317.5z" />
<glyph unicode="7" d="M205 0l923 1333h-782l21 101h907l-21 -101l-917 -1333h-131z" />
<glyph unicode="8" d="M96 309q0 180 120 289t306 160q-94 35 -156.5 104.5t-62.5 175.5q0 205 159 315.5t365 110.5q170 0 286 -76.5t116 -218.5q0 -293 -377 -411q274 -92 274 -314q0 -203 -169 -339t-420 -136q-205 0 -323 96.5t-118 243.5zM211 311q0 -113 91 -180.5t243 -67.5 q193 0 328 106.5t135 274.5q0 211 -334 275q-463 -99 -463 -408zM414 1040q0 -195 293 -243q410 92 409 362q0 104 -83 159.5t-210 55.5q-98 0 -188 -32.5t-155.5 -111.5t-65.5 -190z" />
<glyph unicode="9" d="M147 254h113q6 -88 74.5 -139.5t175.5 -51.5q178 0 322.5 161t222.5 515q-76 -109 -189.5 -173t-240.5 -64q-168 0 -272.5 97t-104.5 269q0 244 163.5 420t395.5 176q201 0 295 -117.5t94 -316.5q0 -94 -16.5 -214t-64.5 -273.5t-120.5 -277.5t-200.5 -210t-290 -86 q-147 0 -250 79t-107 206zM360 872q0 -133 78 -204.5t209 -71.5q176 0 309.5 136t133.5 323q0 133 -70 223t-217 90q-172 0 -307.5 -141.5t-135.5 -354.5z" />
<glyph unicode=":" horiz-adv-x="583" d="M135 0l33 164h149l-32 -164h-150zM326 901l34 164h150l-37 -164h-147z" />
<glyph unicode=";" horiz-adv-x="583" d="M8 -287l15 76q68 23 106.5 71t56.5 140h-53l33 164h151l-36 -176q-27 -125 -95.5 -186.5t-177.5 -88.5zM326 901l34 164h150l-37 -164h-147z" />
<glyph unicode="&#x3c;" d="M246 610l20 101l918 407l-23 -123l-786 -340v-6l641 -336l-25 -110z" />
<glyph unicode="=" d="M199 395l20 101h832l-21 -101h-831zM291 821l20 101h832l-21 -101h-831z" />
<glyph unicode="&#x3e;" d="M160 203l24 123l785 340l2 4l-641 340l22 108l746 -407l-21 -101z" />
<glyph unicode="?" horiz-adv-x="1064" d="M272 1149q59 162 193.5 259t320.5 97q176 0 270.5 -87t94.5 -220q0 -125 -83 -218t-273 -230q-102 -74 -138 -133.5t-67 -202.5h-109q35 170 85 248.5t184 175.5q162 117 225 192.5t63 177.5q0 86 -69.5 143.5t-192.5 57.5q-133 0 -234.5 -70.5t-148.5 -189.5h-121z M375 0l35 162h147l-33 -162h-149z" />
<glyph unicode="@" horiz-adv-x="1890" d="M186 580q0 195 58.5 355.5t151.5 264t215 174t244 101t243 30.5q342 0 551 -180t209 -463q0 -285 -127 -469t-299 -184q-90 0 -144.5 60.5t-56.5 154.5q-35 -70 -129 -136.5t-211 -66.5q-127 0 -217 88t-90 248q0 258 139 420t338 162q80 0 149.5 -41t92.5 -117l47 143 h82l-117 -575q-12 -61 -12 -100q0 -72 34.5 -111t98.5 -39q121 0 217 151.5t96 405.5q0 250 -178 403.5t-477 153.5q-131 0 -263.5 -45t-256 -137t-201.5 -260t-78 -385q0 -313 202.5 -488.5t501.5 -175.5q160 0 322 51l8 -90q-156 -55 -342 -55q-158 0 -300 48t-255 139 t-179.5 238t-66.5 327zM690 567q0 -123 63.5 -189.5t161.5 -66.5q106 0 196.5 77t119.5 216l29 146q6 33 6 92q0 104 -57.5 157.5t-147.5 53.5q-145 0 -258 -133.5t-113 -352.5z" />
<glyph unicode="A" horiz-adv-x="1353" d="M-68 0l906 1475h143l276 -1475h-120l-76 418h-746l-254 -418h-129zM373 514h671l-153 850z" />
<glyph unicode="B" horiz-adv-x="1306" d="M86 0l313 1475h492q199 0 305.5 -77t106.5 -214q0 -139 -94.5 -257t-245.5 -155q115 -18 183 -94t68 -191q0 -90 -32.5 -172t-101 -154.5t-189.5 -116.5t-281 -44h-524zM221 98h416q221 0 339 113t118 274q0 113 -82 178.5t-232 65.5h-424zM377 823h418 q184 0 287.5 107.5t103.5 238.5q0 100 -74 155.5t-213 55.5h-405z" />
<glyph unicode="C" horiz-adv-x="1472" d="M156 530q0 115 27.5 241t93 258t158.5 236.5t239.5 172t320.5 67.5q236 0 375 -121.5t139 -336.5v-17h-114v12q0 362 -410 363q-147 0 -271 -61.5t-203 -155.5t-134 -213t-79 -229.5t-24 -206.5q0 -219 116 -345t312 -126q203 0 356.5 112.5t219.5 308.5h117 q-68 -227 -255.5 -373.5t-443.5 -146.5q-252 0 -396 151.5t-144 409.5z" />
<glyph unicode="D" horiz-adv-x="1400" d="M86 0l313 1475h396q274 0 434 -141.5t160 -401.5q0 -168 -54.5 -330t-157 -298t-274.5 -220t-385 -84h-432zM221 98h309q154 0 282 54.5t212 141.5t141.5 197.5t82 220t24.5 214.5q0 219 -127 335.5t-346 116.5h-305z" />
<glyph unicode="E" horiz-adv-x="1157" d="M86 0l313 1475h873l-23 -101h-755l-123 -575h696l-20 -99h-697l-127 -600h756l-21 -100h-872z" />
<glyph unicode="F" horiz-adv-x="1132" d="M86 0l313 1475h858l-22 -101h-743l-130 -616h668l-20 -99h-670q-25 -115 -72 -336t-67 -323h-115z" />
<glyph unicode="G" horiz-adv-x="1497" d="M158 526q0 127 29.5 258t96 261.5t161 231.5t235.5 164.5t309 63.5q236 0 371 -119.5t135 -314.5h-117q-2 164 -105.5 249t-291.5 85q-176 0 -317.5 -88t-223.5 -223.5t-124 -280.5t-42 -278q0 -223 120 -345t308 -122q199 0 361 119.5t201 301.5l41 187h-478l21 96h579 l-163 -772h-84l34 233q-92 -125 -229 -194.5t-297 -69.5q-231 0 -380.5 146.5t-149.5 410.5z" />
<glyph unicode="H" horiz-adv-x="1402" d="M86 0l313 1475h115l-143 -672h835l144 672h116l-313 -1475h-117l150 700h-836l-149 -700h-115z" />
<glyph unicode="I" horiz-adv-x="450" d="M86 0l313 1475h115l-313 -1475h-115z" />
<glyph unicode="J" horiz-adv-x="1073" d="M57 305q0 45 9 86h110q-6 -61 -6 -80q0 -119 67.5 -180t188.5 -61q147 0 245.5 88t133.5 254l225 1063h117l-229 -1069q-43 -207 -169 -322t-325 -115q-170 0 -268.5 91t-98.5 245z" />
<glyph unicode="K" horiz-adv-x="1220" d="M86 0l313 1475h115l-145 -687l848 687h149l-889 -723l637 -752h-143l-617 725l-153 -725h-115z" />
<glyph unicode="L" horiz-adv-x="1122" d="M86 0l313 1475h117l-293 -1373h752l-21 -102h-868z" />
<glyph unicode="M" horiz-adv-x="1724" d="M86 0l313 1475h164l254 -1352l801 1352h170l-313 -1475h-111l276 1315l-782 -1315h-123l-258 1325l-278 -1325h-113z" />
<glyph unicode="N" horiz-adv-x="1458" d="M86 0l313 1475h133l603 -1319l280 1319h107l-314 -1475h-125l-608 1327l-280 -1327h-109z" />
<glyph unicode="O" horiz-adv-x="1542" d="M158 530q0 111 25.5 235t89 258t154.5 239.5t239.5 174t328.5 68.5q240 0 388.5 -147.5t148.5 -413.5q0 -111 -25.5 -233.5t-89 -257t-156 -241t-238.5 -175t-327 -68.5q-244 0 -391 148.5t-147 412.5zM274 528q0 -221 116 -340.5t312 -119.5q154 0 280 63.5t205 159.5 t132 218t74.5 231.5t21.5 205.5q0 221 -116.5 341t-311.5 120q-156 0 -281.5 -63.5t-203.5 -160t-131.5 -218t-75 -231.5t-21.5 -206z" />
<glyph unicode="P" horiz-adv-x="1282" d="M86 0l313 1475h482q213 0 329.5 -95.5t116.5 -265.5q0 -238 -166 -394.5t-450 -156.5h-392l-118 -563h-115zM342 664h371q229 0 361 127t132 313q0 131 -83 201.5t-240 70.5h-389z" />
<glyph unicode="Q" horiz-adv-x="1542" d="M158 530q0 111 25.5 235t89 258t154.5 239.5t239.5 174t328.5 68.5q240 0 388.5 -147.5t148.5 -413.5q0 -215 -98.5 -455.5t-292.5 -382.5l162 -272l-111 -63l-145 278q-160 -80 -351 -80q-244 0 -391 148.5t-147 412.5zM274 528q0 -221 116 -340.5t312 -119.5 q154 0 280 63.5t205 159.5t132 218t74.5 231.5t21.5 205.5q0 221 -116.5 341t-311.5 120q-156 0 -281.5 -63.5t-203.5 -160t-131.5 -218t-75 -231.5t-21.5 -206z" />
<glyph unicode="R" horiz-adv-x="1288" d="M86 0l313 1475h484q219 0 335.5 -90.5t116.5 -254.5q0 -199 -124 -330.5t-334 -176.5l294 -623h-133l-280 606h-428l-129 -606h-115zM350 705h391q211 0 342 121.5t131 297.5q0 121 -82.5 186.5t-246.5 65.5h-391z" />
<glyph unicode="S" horiz-adv-x="1323" d="M88 375h115q0 -147 102.5 -226t292.5 -79q236 0 370 111.5t134 273.5q0 102 -91 166.5t-325 117.5q-387 88 -387 336q0 193 150.5 311.5t422.5 118.5q221 0 350.5 -99t139.5 -269h-119q0 127 -96 197.5t-279 70.5q-221 0 -336.5 -90t-115.5 -238q0 -92 78.5 -147.5 t283.5 -104.5q233 -55 337 -144t104 -224q0 -213 -167 -350.5t-460 -137.5q-231 0 -367.5 110t-136.5 296z" />
<glyph unicode="T" horiz-adv-x="1177" d="M244 1372l22 103h1108l-22 -103h-498l-291 -1372h-114l290 1372h-495z" />
<glyph unicode="U" horiz-adv-x="1437" d="M166 381q0 57 12 115l211 979h113l-213 -998q-10 -41 -10 -92q0 -143 100 -230t272 -87q199 0 347.5 114.5t187.5 294.5l213 998h112l-215 -1004q-47 -221 -221 -361.5t-434 -140.5q-223 0 -349 115t-126 297z" />
<glyph unicode="V" horiz-adv-x="1284" d="M246 1475h112l217 -1377l803 1377h121l-862 -1475h-156z" />
<glyph unicode="W" horiz-adv-x="1953" d="M256 1475h113l82 -1358l679 1358h158l94 -1354l662 1354h117l-721 -1475h-152l-102 1364l-680 -1364h-156z" />
<glyph unicode="X" horiz-adv-x="1255" d="M-47 0l688 768l-336 707h127l291 -625l569 625h142l-656 -715l361 -760h-129l-314 674l-600 -674h-143z" />
<glyph unicode="Y" horiz-adv-x="1275" d="M246 1475h119l325 -795l674 795h127l-758 -897l-121 -578h-116l122 580z" />
<glyph unicode="Z" horiz-adv-x="1308" d="M14 0l21 102l1235 1270h-918l23 103h1069l-23 -99l-1237 -1276h946l-20 -100h-1096z" />
<glyph unicode="[" horiz-adv-x="538" d="M-68 -348l426 2007h373l-20 -94h-265l-387 -1819h265l-21 -94h-371z" />
<glyph unicode="\" horiz-adv-x="681" d="M301 1505h100l93 -1689h-101z" />
<glyph unicode="]" horiz-adv-x="538" d="M-80 -348l19 94h266l387 1819h-266l20 94h373l-428 -2007h-371z" />
<glyph unicode="^" horiz-adv-x="1024" d="M178 819l498 656h112l222 -656h-111l-182 555l-416 -555h-123z" />
<glyph unicode="_" horiz-adv-x="1234" d="M-70 -227l23 100h1110l-23 -100h-1110z" />
<glyph unicode="`" horiz-adv-x="485" d="M301 1505h148l151 -280h-96z" />
<glyph unicode="a" horiz-adv-x="1083" d="M63 217q0 176 127 267t363 130l332 54l18 90q6 33 6 61q0 88 -62.5 137.5t-180.5 49.5q-125 0 -216.5 -59.5t-123.5 -158.5h-115q43 139 167 223.5t298 84.5q158 0 251 -73t93 -202q0 -35 -10 -82l-156 -739h-90l20 176q-164 -207 -409 -207q-139 0 -225.5 66.5 t-86.5 181.5zM182 227q0 -80 59.5 -122t166.5 -42q137 0 261 90.5t154 225.5l43 196l-295 -47q-209 -35 -299 -107.5t-90 -193.5z" />
<glyph unicode="b" horiz-adv-x="1187" d="M76 0l313 1475h111l-131 -609q162 229 413 230q166 0 263.5 -100.5t97.5 -286.5q0 -82 -18.5 -175.5t-62.5 -195.5t-108.5 -183t-168 -133.5t-228.5 -52.5q-133 0 -217 66.5t-113 171.5l-61 -207h-90zM270 369q0 -150 74 -228t205 -78q127 0 225 71t150.5 176.5t78 208 t25.5 186.5q0 145 -72.5 220.5t-201.5 75.5q-211 0 -347.5 -192t-136.5 -440z" />
<glyph unicode="c" horiz-adv-x="1105" d="M106 371q0 88 20.5 183t67 192.5t114 174t172 126t229.5 49.5q170 0 271 -89t101 -239h-116q0 109 -68 171t-192 62q-123 0 -220.5 -64.5t-153 -163.5t-84 -203.5t-28.5 -198.5q0 -152 78 -230t207 -78q125 0 227.5 69t142.5 181h121q-55 -152 -190 -248t-313 -96 q-172 0 -279 106t-107 296z" />
<glyph unicode="d" horiz-adv-x="1187" d="M106 365q0 86 19.5 180t65 193.5t111 178t166.5 129t224 50.5q125 0 213 -64.5t117 -169.5l129 613h111l-314 -1475h-90l25 199q-164 -229 -414 -230q-160 0 -261.5 104t-101.5 292zM221 369q0 -150 76 -228t203 -78q143 0 255.5 97.5t167 239t54.5 293t-75 230 t-202 78.5q-123 0 -220 -65.5t-150.5 -166.5t-81 -204.5t-27.5 -195.5z" />
<glyph unicode="e" horiz-adv-x="1169" d="M111 385q0 115 36.5 234.5t106.5 228t190.5 178.5t272.5 70q178 0 285.5 -101.5t107.5 -298.5q0 -94 -23 -190h-854q-10 -53 -10 -123q0 -160 84 -240t228 -80q121 0 220 60.5t150 167.5h119q-63 -145 -197.5 -233.5t-302.5 -88.5q-186 0 -299.5 108.5t-113.5 307.5z M256 598h735q8 55 8 102q0 150 -76.5 228t-209.5 78q-152 0 -277 -106.5t-180 -301.5z" />
<glyph unicode="f" horiz-adv-x="614" d="M131 0l205 971h-158l21 94h157l41 192q53 248 291 248q84 0 168 -32l-18 -93q-88 31 -154 31q-145 0 -178 -162l-39 -184h250l-21 -94h-250l-204 -971h-111z" />
<glyph unicode="g" horiz-adv-x="1187" d="M41 -98h113q0 -211 276 -211q160 0 269.5 86t140.5 231l49 232q-156 -203 -402 -203q-158 0 -264 105.5t-106 287.5q0 104 34.5 217t101 215.5t180.5 168t255 65.5q127 0 216 -63.5t120 -164.5l59 197h91l-228 -1071q-39 -178 -174 -285.5t-344 -107.5q-184 0 -285.5 80 t-101.5 221zM231 428q0 -143 76 -220t207 -77q152 0 261.5 91t157.5 218t48 265q0 145 -76 220.5t-207 75.5q-96 0 -176 -37.5t-133 -98t-89 -137.5t-52.5 -152.5t-16.5 -147.5z" />
<glyph unicode="h" horiz-adv-x="1132" d="M76 0l313 1475h111l-127 -586q72 100 174 153.5t209 53.5q143 0 226 -74t83 -207q0 -49 -10 -96l-152 -719h-110l151 721q10 55 10 82q0 96 -60 147t-173 51q-127 0 -245 -95t-150 -249l-140 -657h-110z" />
<glyph unicode="i" horiz-adv-x="423" d="M74 0l225 1065h111l-226 -1065h-110zM344 1323l33 152h133l-35 -152h-131z" />
<glyph unicode="j" horiz-adv-x="423" d="M-268 -367l18 91q66 -27 125 -27q68 0 110 38t60 128l254 1202h111l-258 -1215q-53 -250 -269 -249q-85 -1 -151 32zM342 1323l33 152h133l-33 -152h-133z" />
<glyph unicode="k" horiz-adv-x="999" d="M76 0l313 1475h111l-181 -844l596 434h156l-651 -475l493 -590h-137l-471 563l-119 -563h-110z" />
<glyph unicode="l" horiz-adv-x="425" d="M76 0l313 1475h111l-314 -1475h-110z" />
<glyph unicode="m" horiz-adv-x="1746" d="M76 0l225 1065h92l-22 -166q143 197 356 197q121 0 193.5 -54.5t85.5 -156.5q76 106 179 158.5t208 52.5q135 0 212.5 -69t77.5 -196q0 -47 -12 -102l-153 -729h-111l152 725q12 70 12 94q0 182 -207 182q-131 0 -237.5 -96t-135.5 -239l-139 -666h-111l154 725 q10 57 10 94q0 182 -203 182q-131 0 -239.5 -98t-136.5 -241l-140 -662h-110z" />
<glyph unicode="n" horiz-adv-x="1132" d="M76 0l225 1065h92l-24 -182q74 102 177 157.5t210 55.5q143 0 226 -74t83 -207q0 -41 -10 -96l-152 -719h-110l151 721q10 55 10 82q0 96 -60 147t-173 51q-125 0 -245 -95t-150 -244l-140 -662h-110z" />
<glyph unicode="o" horiz-adv-x="1173" d="M109 381q0 80 18 169t63.5 187.5t113 177t177 130t244.5 51.5q184 0 293.5 -106.5t109.5 -303.5q0 -80 -18 -169t-63.5 -188.5t-113 -178t-177 -130t-242.5 -51.5q-184 0 -294.5 108.5t-110.5 303.5zM223 379q0 -156 80 -238t217 -82q133 0 234.5 69t155 173.5t79 202.5 t25.5 182q0 156 -78 238t-217 82q-135 0 -237.5 -69t-156 -173.5t-78 -202.5t-24.5 -182z" />
<glyph unicode="p" horiz-adv-x="1187" d="M-4 -369l305 1434h90l-24 -199q160 229 411 230q168 0 266.5 -100.5t98.5 -286.5q0 -84 -18.5 -178.5t-63.5 -196t-109.5 -181t-169 -132t-229.5 -52.5t-212 65.5t-114 168.5l-121 -572h-110zM268 371q0 -150 75 -230t202 -80q121 0 219 69t152.5 172.5t83 208.5 t28.5 194q0 147 -73.5 221.5t-202.5 74.5q-141 0 -254 -94t-171.5 -236t-58.5 -300z" />
<glyph unicode="q" horiz-adv-x="1187" d="M104 365q0 80 17.5 170t61.5 191t108.5 182t168 134.5t230.5 53.5q125 0 213 -64.5t119 -171.5l61 205h91l-306 -1434h-110q45 223 121 564q-160 -225 -410 -226q-160 0 -262.5 104t-102.5 292zM219 367q0 -150 76 -228t205 -78q147 0 259.5 101.5t165 242t52.5 287.5 q0 150 -75 229.5t-202 79.5q-125 0 -223 -67.5t-151.5 -171t-80 -205.5t-26.5 -190z" />
<glyph unicode="r" horiz-adv-x="698" d="M76 0l225 1065h90l-26 -205q131 236 335 236q55 0 121 -21l-24 -106q-66 20 -113 20q-121 0 -228.5 -110.5t-146.5 -296.5l-123 -582h-110z" />
<glyph unicode="s" horiz-adv-x="1011" d="M55 252q0 14 2 29h109q-2 -16 -2 -31q0 -88 69.5 -139.5t202.5 -51.5q143 0 245.5 71t102.5 196q0 80 -68.5 120.5t-230.5 69.5q-293 51 -292 258q0 135 110.5 228.5t323.5 93.5q168 0 266 -80t98 -215h-110v14q-2 86 -71 138.5t-194 52.5q-156 0 -232.5 -66t-76.5 -166 q0 -68 57.5 -105.5t198.5 -64.5q340 -61 340 -270q0 -147 -120.5 -256t-352.5 -109q-174 0 -274.5 79t-100.5 204z" />
<glyph unicode="t" horiz-adv-x="618" d="M156 160q0 29 20 123l146 686h-154l20 96h154l61 256h105l-55 -256h247l-20 -96h-248l-158 -746q-10 -47 -10 -65q0 -94 117 -95q53 0 133 23l-22 -94q-74 -23 -132 -23q-204 1 -204 191z" />
<glyph unicode="u" horiz-adv-x="1122" d="M127 248q0 47 12 102l152 715h110l-145 -690q-18 -86 -18 -119q0 -193 229 -193q139 0 249.5 99.5t143.5 249.5l137 653h111l-225 -1065h-90l20 170q-74 -98 -174 -149.5t-205 -51.5q-139 0 -223 72t-84 207z" />
<glyph unicode="v" horiz-adv-x="1017" d="M178 1065h115l149 -973l564 973h120l-624 -1065h-150z" />
<glyph unicode="w" horiz-adv-x="1574" d="M188 1065h107l82 -952l485 952h139l91 -948l467 948h114l-532 -1065h-133l-97 952l-485 -952h-137z" />
<glyph unicode="x" horiz-adv-x="1046" d="M-47 0l528 561l-282 504h125l239 -424l391 424h140l-473 -504l309 -561h-125l-264 481l-447 -481h-141z" />
<glyph unicode="y" horiz-adv-x="1017" d="M37 -375l20 88q55 -20 101 -20q63 0 106 56t150 251h-37l-199 1065h111l176 -979l543 979h118l-602 -1073q-143 -254 -194 -311q-72 -80 -174 -80q-53 -1 -119 24z" />
<glyph unicode="z" horiz-adv-x="980" d="M-6 0l22 106l877 865h-664l21 94h799l-23 -111l-872 -860h688l-19 -94h-829z" />
<glyph unicode="{" horiz-adv-x="696" d="M154 625l22 104q86 0 150.5 52.5t85.5 148.5l96 454q31 143 115 209t249 66l-20 -94q-115 0 -165 -45t-73 -146l-94 -440q-23 -106 -87 -175t-152 -89q137 -37 137 -189q0 -20 -10 -78l-95 -446q-12 -63 -12 -90q0 -59 38 -89t128 -30l-21 -92q-252 0 -251 209 q0 47 16 121l92 434q6 37 6 63q0 70 -41.5 106t-113.5 36z" />
<glyph unicode="|" horiz-adv-x="708" d="M160 -287l401 1895h103l-402 -1895h-102z" />
<glyph unicode="}" horiz-adv-x="696" d="M-63 -344l20 94q115 0 165 45t73 146l94 440q23 106 87 175t152 89q-137 37 -137 189q0 20 10 77l95 447q12 63 12 90q0 59 -38 89t-128 30l20 92q252 0 252 -209q0 -47 -16 -121l-92 -434q-6 -37 -6 -64q0 -70 42 -105.5t113 -35.5l-22 -104q-86 0 -150.5 -52.5 t-85.5 -148.5l-96 -455q-31 -143 -114.5 -208.5t-249.5 -65.5z" />
<glyph unicode="~" d="M240 571l22 119q131 86 244 86q88 0 185 -59.5t163 -59.5q113 0 254 105l-25 -119q-131 -84 -241 -84q-88 0 -186.5 59.5t-163.5 59.5q-113 -1 -252 -107z" />
<glyph unicode="&#xa1;" horiz-adv-x="532" d="M37 -369l227 1012h103l-203 -1012h-127zM311 942l33 164h148l-33 -164h-148z" />
<glyph unicode="&#xa2;" d="M156 371q0 106 31.5 222t93 225.5t173 185t253.5 88.5l55 260h104l-55 -262q147 -14 233 -101.5t86 -220.5h-118q0 109 -67.5 171t-192.5 62q-98 0 -181.5 -43t-138.5 -111.5t-93 -153.5t-55.5 -167t-17.5 -155q0 -150 80 -229t207 -79q123 0 225.5 69t145.5 181h118 q-51 -145 -177 -239t-294 -103l-51 -247h-104l53 251q-143 18 -228 121t-85 275z" />
<glyph unicode="&#xa3;" d="M55 0l21 100q154 53 182 181l86 389h-92l20 94h93l67 315q41 188 159 286.5t292 98.5q147 0 243.5 -82t98.5 -217h-109q-4 92 -67.5 148.5t-171.5 56.5q-133 0 -220.5 -78t-117.5 -221l-66 -307h438l-20 -94h-438l-60 -273q-12 -61 -20 -89.5t-26.5 -71.5t-48.5 -75 t-75 -61h783l-21 -100h-930z" />
<glyph unicode="&#xa4;" d="M174 270l133 136q-94 119 -94 290q0 164 92 287l-131 131l76 76l127 -129q131 111 303 110.5t303 -112.5l129 131l78 -76l-133 -133q90 -125 90 -285q0 -168 -92 -290l135 -136l-76 -75l-135 133q-127 -106 -299 -107q-168 0 -299 105l-131 -131zM319 696 q0 -166 105.5 -272.5t257.5 -106.5q150 0 254 106.5t104 272.5t-104.5 272.5t-253.5 106.5q-152 0 -257.5 -106.5t-105.5 -272.5z" />
<glyph unicode="&#xa5;" d="M260 295l21 90h303l41 193h-303l20 92h250l-320 764h119l307 -750l631 750h125l-641 -764h252l-21 -92h-305l-41 -193h306l-21 -90h-305l-62 -295h-114l61 295h-303z" />
<glyph unicode="&#xa6;" horiz-adv-x="708" d="M160 -287l168 789h102l-168 -789h-102zM397 819l164 789h103l-166 -789h-101z" />
<glyph unicode="&#xa7;" d="M154 57h114q8 -74 71.5 -113.5t160.5 -39.5q143 0 215.5 70.5t72.5 156.5q0 68 -54 110t-171 81q-170 55 -247.5 121.5t-77.5 160.5q0 238 325 334q-129 76 -129 197q0 135 106.5 232t305.5 97q147 0 236 -68.5t98 -172.5h-117q-8 74 -69.5 112.5t-157.5 38.5 q-143 0 -217 -70.5t-74 -156.5q0 -68 54 -109t173 -80q168 -55 246 -121.5t78 -162.5q0 -238 -326 -336q131 -74 131 -195q0 -135 -106.5 -231t-305.5 -96q-150 0 -239.5 68.5t-95.5 172.5zM352 621q0 -74 62.5 -121t216.5 -101l53 -18q168 55 233.5 117.5t65.5 160.5 q0 74 -63.5 121t-214.5 99l-54 18q-166 -55 -232.5 -116.5t-66.5 -159.5z" />
<glyph unicode="&#xa8;" horiz-adv-x="770" d="M303 1331l33 144h129l-31 -144h-131zM723 1331l33 144h129l-31 -144h-131z" />
<glyph unicode="&#xa9;" horiz-adv-x="1751" d="M197 737.5q0 192.5 65.5 345t175 241.5t239.5 135t273.5 46t273.5 -46t239.5 -135t175 -241.5t65.5 -345t-65.5 -345t-175 -242t-239.5 -135.5t-273.5 -46t-273.5 46t-239.5 135.5t-175 242t-65.5 345zM293 737q0 -137 37 -251.5t99.5 -193.5t147.5 -133.5t179 -80 t194 -25.5q127 0 242 41t209 122t149.5 216t55.5 305t-55.5 305.5t-149.5 216t-209 121.5t-242 41q-100 0 -194 -25.5t-179 -79.5t-147.5 -133t-99.5 -194t-37 -252zM584 737q0 213 106.5 325t259.5 112q131 0 222.5 -68t111.5 -184h-100q-16 80 -78 125t-154 45 q-119 0 -194.5 -90.5t-75.5 -264.5q0 -170 78 -255t192 -85q96 0 160 51.5t78 131.5h100q-20 -117 -111.5 -191t-228.5 -74q-154 0 -260 107.5t-106 314.5z" />
<glyph unicode="&#xaa;" horiz-adv-x="937" d="M49 0l23 100h671l-20 -100h-674zM240 807q0 150 103 221.5t284 99.5l209 33q23 90 22 129q0 133 -170 133q-80 0 -141.5 -35.5t-83.5 -97.5h-101q31 98 126.5 155.5t211.5 57.5q115 0 185.5 -57t70.5 -154q0 -33 -6 -63l-129 -602h-76l11 125q-113 -143 -285 -144 q-98 0 -164.5 53.5t-66.5 145.5zM342 817q0 -125 160 -125q96 0 180 69.5t102 158.5l33 157l-196 -30q-279 -44 -279 -230z" />
<glyph unicode="&#xab;" horiz-adv-x="970" d="M182 645l332 420h90l-291 -424l84 -457h-82zM563 645l332 420h90l-291 -424l84 -457h-82z" />
<glyph unicode="&#xac;" d="M244 608l22 101h832l-101 -465h-108l78 364h-723z" />
<glyph unicode="&#xad;" horiz-adv-x="1105" d="M244 608l22 101h709l-23 -101h-708z" />
<glyph unicode="&#xae;" horiz-adv-x="1275" d="M281 1010q0 123 44 219t116.5 153.5t155.5 86t171 28.5q119 0 225.5 -48t184 -163t77.5 -276q0 -123 -44 -220.5t-116.5 -153.5t-156.5 -86t-170 -30q-119 0 -226.5 49t-184 164t-76.5 277zM358 1009.5q0 -200.5 121 -310t289 -109.5q166 0 287 109.5t121 310t-121 310.5 t-287 110q-168 0 -289 -110t-121 -310.5zM614 750v526h156q84 0 135 -39t51 -115q0 -113 -108 -151l129 -221h-80l-119 206h-96v-206h-68zM682 1014h94q49 0 79 31.5t30 76.5q0 43 -29 71t-86 28h-88v-207z" />
<glyph unicode="&#xaf;" horiz-adv-x="618" d="M262 1337l21 97h495l-20 -97h-496z" />
<glyph unicode="&#xb0;" horiz-adv-x="1142" d="M262 1087q0 156 98.5 263.5t257.5 107.5q125 0 211 -76.5t86 -210.5q0 -150 -97 -259t-259 -109q-125 0 -211 75.5t-86 208.5zM365 1094q0 -94 55 -149.5t143 -55.5q111 0 180.5 80t69.5 196q0 94 -55.5 150.5t-143.5 56.5q-113 0 -181 -81.5t-68 -196.5z" />
<glyph unicode="&#xb1;" d="M117 0l20 100h832l-21 -100h-831zM244 608l22 101h361l78 366h108l-78 -366h363l-23 -101h-362l-68 -325h-108l67 325h-360z" />
<glyph unicode="&#xb2;" horiz-adv-x="696" d="M221 860l17 84l327 273q55 47 82 72.5t54.5 75.5t27.5 103q0 47 -28.5 80t-94.5 33q-131 0 -190 -129h-99q37 94 116 150.5t181 56.5q92 0 151.5 -52.5t59.5 -131.5q0 -90 -54 -164t-161 -160l-252 -207h349l-17 -84h-469z" />
<glyph unicode="&#xb3;" horiz-adv-x="696" d="M233 1036h97q4 -49 40 -79.5t97 -30.5q88 0 141.5 55t53.5 133q0 55 -42 87t-104 32h-47l14 74h54q68 0 121 53t53 123q0 43 -30 70.5t-83 27.5q-129 0 -176 -108h-100q37 90 114.5 138t173.5 48q86 0 140.5 -47t54.5 -121q0 -78 -48 -137.5t-132 -83.5q55 -12 94 -51 t39 -105q0 -115 -85 -190.5t-212 -75.5q-100 0 -164 56t-64 132z" />
<glyph unicode="&#xb4;" horiz-adv-x="485" d="M236 1225l270 280h160l-322 -280h-108z" />
<glyph unicode="&#xb5;" horiz-adv-x="1132" d="M-4 -369l305 1434h111l-158 -733q-10 -51 -10 -80q0 -92 60.5 -141.5t172.5 -49.5q139 0 250 100.5t141 248.5l140 655h110l-225 -1065h-92l20 170q-145 -201 -375 -201q-174 0 -243 123l-97 -461h-110z" />
<glyph unicode="&#xb6;" horiz-adv-x="1157" d="M289 1057q0 166 114.5 292t282.5 126h102l-393 -1844h-102l248 1166q-86 0 -169 65.5t-83 194.5zM688 -369l393 1844h103l-393 -1844h-103z" />
<glyph unicode="&#xb7;" horiz-adv-x="583" d="M256 573l35 164h149l-34 -164h-150z" />
<glyph unicode="&#xb8;" horiz-adv-x="589" d="M-90 -313h88v-9q0 -92 131 -92q70 0 119 42t49 104q0 102 -199 102l60 199h82l-31 -133q88 -10 135 -55.5t47 -108.5q0 -88 -72.5 -159t-197.5 -71q-96 0 -153.5 47.5t-57.5 133.5z" />
<glyph unicode="&#xb9;" horiz-adv-x="696" d="M248 860l16 84h187l129 598l-242 -125l20 99l234 122h102l-149 -694h153l-16 -84h-434z" />
<glyph unicode="&#xba;" horiz-adv-x="858" d="M8 0l21 100h655l-20 -100h-656zM209 903q0 63 11 136t44 158t81 151.5t130 110.5t184 44q125 0 199 -73.5t74 -221.5q0 -53 -8.5 -111.5t-26.5 -129t-53 -132t-81 -113.5t-118 -83t-158 -31q-125 0 -201.5 74t-76.5 221zM311 907q0 -111 50.5 -164t132.5 -53 q92 0 161.5 56.5t105.5 141.5t53 166t17 150q0 217 -182 217q-90 0 -159.5 -56t-106.5 -141t-54.5 -167t-17.5 -150z" />
<glyph unicode="&#xbb;" horiz-adv-x="970" d="M106 184l277 457l-111 424h82l160 -420l-317 -461h-91zM487 184l277 457l-111 424h82l160 -420l-317 -461h-91z" />
<glyph unicode="&#xbc;" horiz-adv-x="1802" d="M250 -184l1345 1802h123l-1347 -1802h-121zM289 655l16 84h187l129 598l-242 -125l20 99l234 123h102l-149 -695h153l-16 -84h-434zM1055 172l16 86l285 520h98l-287 -524h207l8 43l58 195h78l-52 -238h127l-16 -82h-127l-37 -172h-92l35 172h-301z" />
<glyph unicode="&#xbd;" horiz-adv-x="1802" d="M250 -184l1345 1802h123l-1347 -1802h-121zM289 655l16 84h187l129 598l-242 -125l20 99l234 123h102l-149 -695h153l-16 -84h-434zM1090 0l16 84l328 272q55 47 81.5 73t54 76t27.5 103q0 47 -28.5 80t-93.5 33q-131 0 -191 -129h-98q37 94 115.5 150.5t181.5 56.5 q92 0 151.5 -52.5t59.5 -132.5q0 -90 -54.5 -163.5t-160.5 -159.5l-252 -207h348l-16 -84h-469z" />
<glyph unicode="&#xbe;" horiz-adv-x="1802" d="M250 -184l1345 1802h123l-1347 -1802h-121zM295 842h96q4 -49 40 -80t97 -31q88 0 141.5 55.5t53.5 133.5q0 55 -42 86.5t-103 31.5h-48l15 74h53q68 0 121 53.5t53 122.5q0 43 -29.5 70.5t-83.5 27.5q-129 0 -176 -108h-100q37 90 114.5 138t174.5 48q86 0 140 -47 t54 -121q0 -78 -48 -137t-132 -84q55 -12 94 -51t39 -104q0 -115 -85 -191t-212 -76q-100 0 -163.5 56.5t-63.5 132.5zM1055 172l16 86l285 520h98l-287 -524h207l8 43l58 195h78l-52 -238h127l-16 -82h-127l-37 -172h-92l35 172h-301z" />
<glyph unicode="&#xbf;" horiz-adv-x="1064" d="M-16 -94q0 127 80.5 219t273.5 229q100 72 137 132.5t68 203.5h110q-37 -170 -87 -249t-183 -175q-162 -117 -225.5 -192.5t-63.5 -175.5q0 -86 69.5 -143.5t192.5 -57.5q133 0 234.5 70.5t150.5 189.5h119q-59 -162 -191 -259t-321 -97q-176 0 -270 86t-94 219zM575 942 q10 53 35 164h148l-33 -164h-150z" />
<glyph unicode="&#xc0;" horiz-adv-x="1353" d="M-68 0l906 1475h143l276 -1475h-120l-76 418h-746l-254 -418h-129zM373 514h671l-153 850zM735 1853h148l151 -280h-96z" />
<glyph unicode="&#xc1;" horiz-adv-x="1353" d="M-68 0l906 1475h143l276 -1475h-120l-76 418h-746l-254 -418h-129zM373 514h671l-153 850zM793 1573l270 280h160l-322 -280h-108z" />
<glyph unicode="&#xc2;" horiz-adv-x="1353" d="M-68 0l906 1475h143l276 -1475h-120l-76 418h-746l-254 -418h-129zM373 514h671l-153 850zM631 1573l280 280h136l159 -280h-106l-131 213l-219 -213h-119z" />
<glyph unicode="&#xc3;" horiz-adv-x="1353" d="M-68 0l906 1475h143l276 -1475h-120l-76 418h-746l-254 -418h-129zM373 514h671l-153 850zM659 1626l23 105q96 63 168 63q59 0 115.5 -35t99.5 -35q63 0 172 74l-23 -106q-96 -61 -165 -62q-59 0 -115.5 35t-99.5 35q-66 0 -175 -74z" />
<glyph unicode="&#xc4;" horiz-adv-x="1353" d="M-68 0l906 1475h143l276 -1475h-120l-76 418h-746l-254 -418h-129zM373 514h671l-153 850zM666 1679l32 144h129l-30 -144h-131zM1085 1679l33 144h129l-30 -144h-132z" />
<glyph unicode="&#xc5;" horiz-adv-x="1353" d="M-68 0l881 1436q-119 53 -119 190q0 104 74 184t197 80q102 0 163.5 -59t61.5 -152q0 -88 -54.5 -161.5t-146.5 -94.5l268 -1423h-120l-76 418h-746l-254 -418h-129zM373 514h671l-153 850zM782 1628q0 -66 39 -103.5t103 -37.5q82 0 130 55t48 135q0 66 -39 103t-102 37 q-82 0 -130.5 -54.5t-48.5 -134.5z" />
<glyph unicode="&#xc6;" horiz-adv-x="1914" d="M-82 0l1198 1475h914l-23 -101h-715l-123 -575h656l-21 -99h-657l-127 -602h717l-21 -98h-831l88 416h-582l-336 -416h-137zM469 514h524l183 870z" />
<glyph unicode="&#xc7;" horiz-adv-x="1472" d="M156 530q0 115 27.5 241t93 258t158.5 236.5t239.5 172t320.5 67.5q236 0 375 -121.5t139 -336.5v-17h-114v12q0 362 -410 363q-147 0 -271 -61.5t-203 -155.5t-134 -213t-79 -229.5t-24 -206.5q0 -219 116 -345t312 -126q203 0 356.5 112.5t219.5 308.5h117 q-66 -219 -242 -362t-418 -156l-16 -71q88 -10 134 -55.5t46 -108.5q0 -88 -72.5 -159t-195.5 -71q-96 0 -154.5 48.5t-58.5 132.5h88v-11q0 -90 133 -90q70 0 119 42t49 104q0 102 -199 102l39 139q-229 14 -360 162.5t-131 394.5z" />
<glyph unicode="&#xc8;" horiz-adv-x="1157" d="M86 0l313 1475h873l-23 -101h-755l-123 -575h696l-20 -99h-697l-127 -600h756l-21 -100h-872zM674 1853h147l152 -280h-96z" />
<glyph unicode="&#xc9;" horiz-adv-x="1157" d="M86 0l313 1475h873l-23 -101h-755l-123 -575h696l-20 -99h-697l-127 -600h756l-21 -100h-872zM721 1573l270 280h160l-322 -280h-108z" />
<glyph unicode="&#xca;" horiz-adv-x="1157" d="M86 0l313 1475h873l-23 -101h-755l-123 -575h696l-20 -99h-697l-127 -600h756l-21 -100h-872zM561 1573l281 280h135l160 -280h-107l-131 213l-219 -213h-119z" />
<glyph unicode="&#xcb;" horiz-adv-x="1157" d="M86 0l313 1475h873l-23 -101h-755l-123 -575h696l-20 -99h-697l-127 -600h756l-21 -100h-872zM578 1679l32 144h129l-30 -144h-131zM997 1679l33 144h129l-31 -144h-131z" />
<glyph unicode="&#xcc;" horiz-adv-x="450" d="M86 0l313 1475h115l-313 -1475h-115zM281 1853h147l152 -280h-97z" />
<glyph unicode="&#xcd;" horiz-adv-x="450" d="M86 0l313 1475h115l-313 -1475h-115zM346 1573l270 280h160l-321 -280h-109z" />
<glyph unicode="&#xce;" horiz-adv-x="450" d="M86 0l313 1475h115l-313 -1475h-115zM178 1573l281 280h135l160 -280h-107l-131 213l-219 -213h-119z" />
<glyph unicode="&#xcf;" horiz-adv-x="450" d="M86 0l313 1475h115l-313 -1475h-115zM209 1679l33 144h129l-31 -144h-131zM629 1679l33 144h129l-31 -144h-131z" />
<glyph unicode="&#xd0;" horiz-adv-x="1400" d="M86 0l154 725h-119l22 100h117l139 650h396q274 0 434 -141.5t160 -401.5q0 -168 -54.5 -330t-157 -298t-274.5 -220t-385 -84h-432zM221 98h309q154 0 282 54.5t212 141.5t141.5 197.5t82 220t24.5 214.5q0 219 -127 335.5t-346 116.5h-305l-117 -553h465l-21 -100h-467 z" />
<glyph unicode="&#xd1;" horiz-adv-x="1458" d="M86 0l313 1475h133l603 -1319l280 1319h107l-314 -1475h-125l-608 1327l-280 -1327h-109zM719 1626l22 105q96 63 168 63q59 0 115.5 -35t99.5 -35q63 0 172 74l-22 -106q-94 -61 -166 -62q-59 0 -115.5 35t-99.5 35q-65 0 -174 -74z" />
<glyph unicode="&#xd2;" horiz-adv-x="1542" d="M158 530q0 111 25.5 235t89 258t154.5 239.5t239.5 174t328.5 68.5q240 0 388.5 -147.5t148.5 -413.5q0 -111 -25.5 -233.5t-89 -257t-156 -241t-238.5 -175t-327 -68.5q-244 0 -391 148.5t-147 412.5zM274 528q0 -221 116 -340.5t312 -119.5q154 0 280 63.5t205 159.5 t132 218t74.5 231.5t21.5 205.5q0 221 -116.5 341t-311.5 120q-156 0 -281.5 -63.5t-203.5 -160t-131.5 -218t-75 -231.5t-21.5 -206zM805 1853h147l152 -280h-96z" />
<glyph unicode="&#xd3;" horiz-adv-x="1542" d="M158 530q0 111 25.5 235t89 258t154.5 239.5t239.5 174t328.5 68.5q240 0 388.5 -147.5t148.5 -413.5q0 -111 -25.5 -233.5t-89 -257t-156 -241t-238.5 -175t-327 -68.5q-244 0 -391 148.5t-147 412.5zM274 528q0 -221 116 -340.5t312 -119.5q154 0 280 63.5t205 159.5 t132 218t74.5 231.5t21.5 205.5q0 221 -116.5 341t-311.5 120q-156 0 -281.5 -63.5t-203.5 -160t-131.5 -218t-75 -231.5t-21.5 -206zM897 1573l270 280h160l-321 -280h-109z" />
<glyph unicode="&#xd4;" horiz-adv-x="1542" d="M158 530q0 111 25.5 235t89 258t154.5 239.5t239.5 174t328.5 68.5q240 0 388.5 -147.5t148.5 -413.5q0 -111 -25.5 -233.5t-89 -257t-156 -241t-238.5 -175t-327 -68.5q-244 0 -391 148.5t-147 412.5zM274 528q0 -221 116 -340.5t312 -119.5q154 0 280 63.5t205 159.5 t132 218t74.5 231.5t21.5 205.5q0 221 -116.5 341t-311.5 120q-156 0 -281.5 -63.5t-203.5 -160t-131.5 -218t-75 -231.5t-21.5 -206zM723 1573l281 280h135l159 -280h-106l-131 213l-219 -213h-119z" />
<glyph unicode="&#xd5;" horiz-adv-x="1542" d="M158 530q0 111 25.5 235t89 258t154.5 239.5t239.5 174t328.5 68.5q240 0 388.5 -147.5t148.5 -413.5q0 -111 -25.5 -233.5t-89 -257t-156 -241t-238.5 -175t-327 -68.5q-244 0 -391 148.5t-147 412.5zM274 528q0 -221 116 -340.5t312 -119.5q154 0 280 63.5t205 159.5 t132 218t74.5 231.5t21.5 205.5q0 221 -116.5 341t-311.5 120q-156 0 -281.5 -63.5t-203.5 -160t-131.5 -218t-75 -231.5t-21.5 -206zM756 1626l22 105q96 63 168 63q59 0 115.5 -35t99.5 -35q63 0 172 74l-22 -106q-94 -61 -166 -62q-59 0 -115.5 35t-99.5 35 q-65 0 -174 -74z" />
<glyph unicode="&#xd6;" horiz-adv-x="1542" d="M158 530q0 111 25.5 235t89 258t154.5 239.5t239.5 174t328.5 68.5q240 0 388.5 -147.5t148.5 -413.5q0 -111 -25.5 -233.5t-89 -257t-156 -241t-238.5 -175t-327 -68.5q-244 0 -391 148.5t-147 412.5zM274 528q0 -221 116 -340.5t312 -119.5q154 0 280 63.5t205 159.5 t132 218t74.5 231.5t21.5 205.5q0 221 -116.5 341t-311.5 120q-156 0 -281.5 -63.5t-203.5 -160t-131.5 -218t-75 -231.5t-21.5 -206zM756 1679l32 144h130l-31 -144h-131zM1176 1679l32 144h129l-30 -144h-131z" />
<glyph unicode="&#xd7;" d="M291 408l311 258l-205 256l82 67l205 -262l311 258l62 -76l-312 -256l201 -258l-82 -65l-202 260l-312 -258z" />
<glyph unicode="&#xd8;" horiz-adv-x="1542" d="M158 530q0 111 25.5 235t89 258t154.5 239.5t239.5 174t328.5 68.5q117 0 217 -41l125 215h115l-149 -258q229 -143 229 -477q0 -111 -25.5 -233.5t-89 -257t-156 -241t-238.5 -175t-327 -68.5q-123 0 -215 37l-133 -231h-115l158 272q-233 145 -233 483zM274 528 q0 -276 172 -389l715 1237q-86 31 -174 31q-156 0 -281.5 -63.5t-203.5 -160t-131.5 -218t-75 -231.5t-21.5 -206zM530 96q80 -29 172 -28q154 0 280 63.5t205 159.5t132 218t74.5 231.5t21.5 205.5q0 268 -170 385z" />
<glyph unicode="&#xd9;" horiz-adv-x="1437" d="M166 381q0 57 12 115l211 979h113l-213 -998q-10 -41 -10 -92q0 -143 100 -230t272 -87q199 0 347.5 114.5t187.5 294.5l213 998h112l-215 -1004q-47 -221 -221 -361.5t-434 -140.5q-223 0 -349 115t-126 297zM795 1853h147l152 -280h-97z" />
<glyph unicode="&#xda;" horiz-adv-x="1437" d="M166 381q0 57 12 115l211 979h113l-213 -998q-10 -41 -10 -92q0 -143 100 -230t272 -87q199 0 347.5 114.5t187.5 294.5l213 998h112l-215 -1004q-47 -221 -221 -361.5t-434 -140.5q-223 0 -349 115t-126 297zM838 1573l270 280h160l-322 -280h-108z" />
<glyph unicode="&#xdb;" horiz-adv-x="1437" d="M166 381q0 57 12 115l211 979h113l-213 -998q-10 -41 -10 -92q0 -143 100 -230t272 -87q199 0 347.5 114.5t187.5 294.5l213 998h112l-215 -1004q-47 -221 -221 -361.5t-434 -140.5q-223 0 -349 115t-126 297zM680 1573l281 280h135l159 -280h-106l-131 213l-219 -213 h-119z" />
<glyph unicode="&#xdc;" horiz-adv-x="1437" d="M166 381q0 57 12 115l211 979h113l-213 -998q-10 -41 -10 -92q0 -143 100 -230t272 -87q199 0 347.5 114.5t187.5 294.5l213 998h112l-215 -1004q-47 -221 -221 -361.5t-434 -140.5q-223 0 -349 115t-126 297zM705 1679l32 144h129l-30 -144h-131zM1124 1679l33 144h129 l-31 -144h-131z" />
<glyph unicode="&#xdd;" horiz-adv-x="1275" d="M246 1475h119l325 -795l674 795h127l-758 -897l-121 -578h-116l122 580zM778 1573l271 280h159l-321 -280h-109z" />
<glyph unicode="&#xde;" horiz-adv-x="1273" d="M86 0l313 1475h115l-57 -263h366q213 0 329 -98t116 -268q0 -231 -163 -393t-452 -162h-391l-61 -291h-115zM283 389h372q219 0 356.5 126t137.5 325q0 129 -84 201.5t-240 72.5h-387z" />
<glyph unicode="&#xdf;" horiz-adv-x="1150" d="M76 0l235 1116q39 186 149.5 287.5t289.5 101.5q133 0 221 -64.5t88 -180.5q0 -92 -47 -164t-103.5 -110t-103.5 -88t-47 -103q0 -43 28.5 -77t98.5 -75q199 -113 198 -281q0 -160 -115.5 -276.5t-301.5 -116.5q-137 0 -220.5 63.5t-99.5 168.5h115q10 -66 67.5 -103 t149.5 -37q121 0 206 82t85 213q0 119 -152 211q-166 96 -166 211q0 63 31 114.5t76 87.5t90 70.5t75.5 85t30.5 109.5q0 78 -56 122t-155 44q-256 0 -321 -299l-236 -1112h-110z" />
<glyph unicode="&#xe0;" horiz-adv-x="1083" d="M63 217q0 176 127 267t363 130l332 54l18 90q6 33 6 61q0 88 -62.5 137.5t-180.5 49.5q-125 0 -216.5 -59.5t-123.5 -158.5h-115q43 139 167 223.5t298 84.5q158 0 251 -73t93 -202q0 -35 -10 -82l-156 -739h-90l20 176q-164 -207 -409 -207q-139 0 -225.5 66.5 t-86.5 181.5zM182 227q0 -80 59.5 -122t166.5 -42q137 0 261 90.5t154 225.5l43 196l-295 -47q-209 -35 -299 -107.5t-90 -193.5zM504 1505h147l152 -280h-96z" />
<glyph unicode="&#xe1;" horiz-adv-x="1083" d="M63 217q0 176 127 267t363 130l332 54l18 90q6 33 6 61q0 88 -62.5 137.5t-180.5 49.5q-125 0 -216.5 -59.5t-123.5 -158.5h-115q43 139 167 223.5t298 84.5q158 0 251 -73t93 -202q0 -35 -10 -82l-156 -739h-90l20 176q-164 -207 -409 -207q-139 0 -225.5 66.5 t-86.5 181.5zM182 227q0 -80 59.5 -122t166.5 -42q137 0 261 90.5t154 225.5l43 196l-295 -47q-209 -35 -299 -107.5t-90 -193.5zM635 1225l270 280h160l-322 -280h-108z" />
<glyph unicode="&#xe2;" horiz-adv-x="1083" d="M63 217q0 176 127 267t363 130l332 54l18 90q6 33 6 61q0 88 -62.5 137.5t-180.5 49.5q-125 0 -216.5 -59.5t-123.5 -158.5h-115q43 139 167 223.5t298 84.5q158 0 251 -73t93 -202q0 -35 -10 -82l-156 -739h-90l20 176q-164 -207 -409 -207q-139 0 -225.5 66.5 t-86.5 181.5zM182 227q0 -80 59.5 -122t166.5 -42q137 0 261 90.5t154 225.5l43 196l-295 -47q-209 -35 -299 -107.5t-90 -193.5zM434 1225l281 280h135l160 -280h-107l-131 213l-219 -213h-119z" />
<glyph unicode="&#xe3;" horiz-adv-x="1083" d="M63 217q0 176 127 267t363 130l332 54l18 90q6 33 6 61q0 88 -62.5 137.5t-180.5 49.5q-125 0 -216.5 -59.5t-123.5 -158.5h-115q43 139 167 223.5t298 84.5q158 0 251 -73t93 -202q0 -35 -10 -82l-156 -739h-90l20 176q-164 -207 -409 -207q-139 0 -225.5 66.5 t-86.5 181.5zM182 227q0 -80 59.5 -122t166.5 -42q137 0 261 90.5t154 225.5l43 196l-295 -47q-209 -35 -299 -107.5t-90 -193.5zM457 1278l22 104q96 63 168 64q59 0 115.5 -35t99.5 -35q63 0 172 74l-22 -107q-94 -61 -166 -61q-59 0 -115.5 35t-99.5 35q-65 0 -174 -74z " />
<glyph unicode="&#xe4;" horiz-adv-x="1083" d="M63 217q0 176 127 267t363 130l332 54l18 90q6 33 6 61q0 88 -62.5 137.5t-180.5 49.5q-125 0 -216.5 -59.5t-123.5 -158.5h-115q43 139 167 223.5t298 84.5q158 0 251 -73t93 -202q0 -35 -10 -82l-156 -739h-90l20 176q-164 -207 -409 -207q-139 0 -225.5 66.5 t-86.5 181.5zM182 227q0 -80 59.5 -122t166.5 -42q137 0 261 90.5t154 225.5l43 196l-295 -47q-209 -35 -299 -107.5t-90 -193.5zM463 1331l33 144h129l-31 -144h-131zM883 1331l32 144h129l-30 -144h-131z" />
<glyph unicode="&#xe5;" horiz-adv-x="1083" d="M63 217q0 176 127 267t363 130l332 54l18 90q6 33 6 61q0 88 -62.5 137.5t-180.5 49.5q-125 0 -216.5 -59.5t-123.5 -158.5h-115q43 139 167 223.5t298 84.5q158 0 251 -73t93 -202q0 -35 -10 -82l-156 -739h-90l20 176q-164 -207 -409 -207q-139 0 -225.5 66.5 t-86.5 181.5zM182 227q0 -80 59.5 -122t166.5 -42q137 0 261 90.5t154 225.5l43 196l-295 -47q-209 -35 -299 -107.5t-90 -193.5zM508 1407q0 104 73.5 184t194.5 80q102 0 163.5 -58.5t61.5 -152.5q0 -106 -72.5 -186t-195.5 -80q-102 0 -163.5 59.5t-61.5 153.5zM596 1409 q0 -66 39 -103.5t102 -37.5q80 0 128 55t48 135q0 66 -38.5 102.5t-102.5 36.5q-80 0 -128 -54t-48 -134z" />
<glyph unicode="&#xe6;" horiz-adv-x="1898" d="M63 217q0 174 128 266t360 129l332 54q27 106 26 151q0 88 -63.5 138.5t-179.5 50.5q-125 0 -217.5 -61.5t-122.5 -156.5h-115q43 139 167 223.5t298 84.5q285 0 317 -254q72 125 193 192.5t258 67.5q180 0 286.5 -100.5t106.5 -290.5q0 -90 -18 -170h-854 q-16 -92 -17 -152q0 -164 85 -241.5t229 -77.5q121 0 220 60t150 167h119q-63 -145 -197.5 -232.5t-302.5 -87.5q-152 0 -253 72t-134 207q-164 -287 -489 -287q-139 0 -225.5 66.5t-86.5 181.5zM182 227q0 -164 226 -164q137 0 260 90.5t153 225.5l43 196l-295 -47 q-207 -33 -297 -106.5t-90 -194.5zM985 631h737q6 37 7 88q0 143 -78 218t-211 75q-150 0 -277 -106.5t-178 -274.5z" />
<glyph unicode="&#xe7;" horiz-adv-x="1105" d="M106 371q0 88 20.5 183t67 192.5t114 174t172 126t229.5 49.5q172 0 272 -89t100 -239h-116q0 109 -68 171t-192 62q-123 0 -220.5 -64.5t-153 -163.5t-84 -203.5t-28.5 -198.5q0 -152 78 -230t207 -78q125 0 227.5 69t142.5 181h121q-51 -145 -177 -239t-294 -103 l-14 -71q86 -10 133 -55.5t47 -108.5q0 -88 -72.5 -159t-197.5 -71q-96 0 -153.5 47.5t-57.5 133.5h88v-9q0 -92 131 -92q70 0 119 42t49 104q0 102 -199 102l41 141q-152 14 -242 117t-90 279z" />
<glyph unicode="&#xe8;" horiz-adv-x="1169" d="M111 385q0 115 36.5 234.5t106.5 228t190.5 178.5t272.5 70q178 0 285.5 -101.5t107.5 -298.5q0 -94 -23 -190h-854q-10 -53 -10 -123q0 -160 84 -240t228 -80q121 0 220 60.5t150 167.5h119q-63 -145 -197.5 -233.5t-302.5 -88.5q-186 0 -299.5 108.5t-113.5 307.5z M256 598h735q8 55 8 102q0 150 -76.5 228t-209.5 78q-152 0 -277 -106.5t-180 -301.5zM545 1505h147l152 -280h-96z" />
<glyph unicode="&#xe9;" horiz-adv-x="1169" d="M111 385q0 115 36.5 234.5t106.5 228t190.5 178.5t272.5 70q178 0 285.5 -101.5t107.5 -298.5q0 -94 -23 -190h-854q-10 -53 -10 -123q0 -160 84 -240t228 -80q121 0 220 60.5t150 167.5h119q-63 -145 -197.5 -233.5t-302.5 -88.5q-186 0 -299.5 108.5t-113.5 307.5z M256 598h735q8 55 8 102q0 150 -76.5 228t-209.5 78q-152 0 -277 -106.5t-180 -301.5zM676 1225l270 280h160l-322 -280h-108z" />
<glyph unicode="&#xea;" horiz-adv-x="1169" d="M111 385q0 115 36.5 234.5t106.5 228t190.5 178.5t272.5 70q178 0 285.5 -101.5t107.5 -298.5q0 -94 -23 -190h-854q-10 -53 -10 -123q0 -160 84 -240t228 -80q121 0 220 60.5t150 167.5h119q-63 -145 -197.5 -233.5t-302.5 -88.5q-186 0 -299.5 108.5t-113.5 307.5z M256 598h735q8 55 8 102q0 150 -76.5 228t-209.5 78q-152 0 -277 -106.5t-180 -301.5zM467 1225l281 280h135l159 -280h-106l-131 213l-219 -213h-119z" />
<glyph unicode="&#xeb;" horiz-adv-x="1169" d="M111 385q0 115 36.5 234.5t106.5 228t190.5 178.5t272.5 70q178 0 285.5 -101.5t107.5 -298.5q0 -94 -23 -190h-854q-10 -53 -10 -123q0 -160 84 -240t228 -80q121 0 220 60.5t150 167.5h119q-63 -145 -197.5 -233.5t-302.5 -88.5q-186 0 -299.5 108.5t-113.5 307.5z M256 598h735q8 55 8 102q0 150 -76.5 228t-209.5 78q-152 0 -277 -106.5t-180 -301.5zM502 1331l33 144h129l-31 -144h-131zM922 1331l32 144h129l-30 -144h-131z" />
<glyph unicode="&#xec;" horiz-adv-x="423" d="M74 0l225 1065h111l-226 -1065h-110zM201 1505h147l152 -280h-97z" />
<glyph unicode="&#xed;" horiz-adv-x="423" d="M74 0l225 1065h111l-226 -1065h-110zM274 1225l271 280h160l-322 -280h-109z" />
<glyph unicode="&#xee;" horiz-adv-x="423" d="M74 0l225 1065h111l-226 -1065h-110zM102 1225l281 280h135l160 -280h-107l-131 213l-219 -213h-119z" />
<glyph unicode="&#xef;" horiz-adv-x="423" d="M74 0l225 1065h111l-226 -1065h-110zM135 1331l33 144h129l-31 -144h-131zM555 1331l33 144h129l-31 -144h-131z" />
<glyph unicode="&#xf0;" horiz-adv-x="1124" d="M102 356q0 158 63.5 299.5t188.5 233.5t287 92q147 0 238.5 -77t105.5 -189q12 66 12 153q0 246 -143 383l-131 -112h-129l194 166q-113 76 -282 108l29 88q193 -39 327 -133l123 107h129l-186 -160q176 -166 176 -447q0 -72 -11.5 -154.5t-35 -189t-71.5 -201 t-114.5 -176t-170 -130t-228.5 -48.5q-172 0 -271.5 105.5t-99.5 281.5zM213 352q0 -135 70.5 -210.5t193.5 -75.5q111 0 202 53t145.5 134t84 168t29.5 167q0 131 -75 215t-212 84q-139 0 -241.5 -84t-149.5 -203t-47 -248z" />
<glyph unicode="&#xf1;" horiz-adv-x="1132" d="M76 0l225 1065h92l-24 -182q74 102 177 157.5t210 55.5q143 0 226 -74t83 -207q0 -41 -10 -96l-152 -719h-110l151 721q10 55 10 82q0 96 -60 147t-173 51q-125 0 -245 -95t-150 -244l-140 -662h-110zM504 1278l22 104q96 63 168 64q59 0 115.5 -35t99.5 -35q63 0 172 74 l-22 -107q-96 -61 -166 -61q-59 0 -115.5 35t-99.5 35q-65 0 -174 -74z" />
<glyph unicode="&#xf2;" horiz-adv-x="1173" d="M109 381q0 80 18 169t63.5 187.5t113 177t177 130t244.5 51.5q184 0 293.5 -106.5t109.5 -303.5q0 -80 -18 -169t-63.5 -188.5t-113 -178t-177 -130t-242.5 -51.5q-184 0 -294.5 108.5t-110.5 303.5zM223 379q0 -156 80 -238t217 -82q133 0 234.5 69t155 173.5t79 202.5 t25.5 182q0 156 -78 238t-217 82q-135 0 -237.5 -69t-156 -173.5t-78 -202.5t-24.5 -182zM555 1505h147l152 -280h-96z" />
<glyph unicode="&#xf3;" horiz-adv-x="1173" d="M109 381q0 80 18 169t63.5 187.5t113 177t177 130t244.5 51.5q184 0 293.5 -106.5t109.5 -303.5q0 -80 -18 -169t-63.5 -188.5t-113 -178t-177 -130t-242.5 -51.5q-184 0 -294.5 108.5t-110.5 303.5zM223 379q0 -156 80 -238t217 -82q133 0 234.5 69t155 173.5t79 202.5 t25.5 182q0 156 -78 238t-217 82q-135 0 -237.5 -69t-156 -173.5t-78 -202.5t-24.5 -182zM670 1225l270 280h160l-322 -280h-108z" />
<glyph unicode="&#xf4;" horiz-adv-x="1173" d="M109 381q0 80 18 169t63.5 187.5t113 177t177 130t244.5 51.5q184 0 293.5 -106.5t109.5 -303.5q0 -80 -18 -169t-63.5 -188.5t-113 -178t-177 -130t-242.5 -51.5q-184 0 -294.5 108.5t-110.5 303.5zM223 379q0 -156 80 -238t217 -82q133 0 234.5 69t155 173.5t79 202.5 t25.5 182q0 156 -78 238t-217 82q-135 0 -237.5 -69t-156 -173.5t-78 -202.5t-24.5 -182zM473 1225l281 280h135l160 -280h-107l-131 213l-219 -213h-119z" />
<glyph unicode="&#xf5;" horiz-adv-x="1173" d="M109 381q0 80 18 169t63.5 187.5t113 177t177 130t244.5 51.5q184 0 293.5 -106.5t109.5 -303.5q0 -80 -18 -169t-63.5 -188.5t-113 -178t-177 -130t-242.5 -51.5q-184 0 -294.5 108.5t-110.5 303.5zM223 379q0 -156 80 -238t217 -82q133 0 234.5 69t155 173.5t79 202.5 t25.5 182q0 156 -78 238t-217 82q-135 0 -237.5 -69t-156 -173.5t-78 -202.5t-24.5 -182zM500 1278l22 104q96 63 168 64q59 0 115.5 -35t99.5 -35q63 0 172 74l-22 -107q-96 -61 -166 -61q-59 0 -115.5 35t-99.5 35q-65 0 -174 -74z" />
<glyph unicode="&#xf6;" horiz-adv-x="1173" d="M109 381q0 80 18 169t63.5 187.5t113 177t177 130t244.5 51.5q184 0 293.5 -106.5t109.5 -303.5q0 -80 -18 -169t-63.5 -188.5t-113 -178t-177 -130t-242.5 -51.5q-184 0 -294.5 108.5t-110.5 303.5zM223 379q0 -156 80 -238t217 -82q133 0 234.5 69t155 173.5t79 202.5 t25.5 182q0 156 -78 238t-217 82q-135 0 -237.5 -69t-156 -173.5t-78 -202.5t-24.5 -182zM510 1331l33 144h129l-31 -144h-131zM930 1331l33 144h129l-31 -144h-131z" />
<glyph unicode="&#xf7;" d="M244 608l22 101h832l-23 -101h-831zM487 131l35 162h144l-37 -162h-142zM676 1024l37 164h141l-35 -164h-143z" />
<glyph unicode="&#xf8;" horiz-adv-x="1173" d="M59 -225l187 278q-137 111 -137 328q0 80 18 169t63.5 187.5t113 177t177 130t244.5 51.5q106 0 186 -37l154 231h109l-183 -278q137 -111 137 -326q0 -80 -18 -169t-63.5 -188.5t-113 -178t-177 -130t-242.5 -51.5q-102 0 -190 39l-154 -233h-111zM223 379 q0 -156 82 -238l553 836q-61 29 -139 29q-135 0 -237.5 -69t-156 -173.5t-78 -202.5t-24.5 -182zM377 90q61 -31 143 -31q133 0 234.5 69t155 173.5t79 202.5t25.5 182q0 160 -84 240z" />
<glyph unicode="&#xf9;" horiz-adv-x="1122" d="M127 248q0 47 12 102l152 715h110l-145 -690q-18 -86 -18 -119q0 -193 229 -193q139 0 249.5 99.5t143.5 249.5l137 653h111l-225 -1065h-90l20 170q-74 -98 -174 -149.5t-205 -51.5q-139 0 -223 72t-84 207zM535 1505h147l152 -280h-97z" />
<glyph unicode="&#xfa;" horiz-adv-x="1122" d="M127 248q0 47 12 102l152 715h110l-145 -690q-18 -86 -18 -119q0 -193 229 -193q139 0 249.5 99.5t143.5 249.5l137 653h111l-225 -1065h-90l20 170q-74 -98 -174 -149.5t-205 -51.5q-139 0 -223 72t-84 207zM633 1225l270 280h160l-322 -280h-108z" />
<glyph unicode="&#xfb;" horiz-adv-x="1122" d="M127 248q0 47 12 102l152 715h110l-145 -690q-18 -86 -18 -119q0 -193 229 -193q139 0 249.5 99.5t143.5 249.5l137 653h111l-225 -1065h-90l20 170q-74 -98 -174 -149.5t-205 -51.5q-139 0 -223 72t-84 207zM446 1225l281 280h135l160 -280h-107l-131 213l-219 -213 h-119z" />
<glyph unicode="&#xfc;" horiz-adv-x="1122" d="M127 248q0 47 12 102l152 715h110l-145 -690q-18 -86 -18 -119q0 -193 229 -193q139 0 249.5 99.5t143.5 249.5l137 653h111l-225 -1065h-90l20 170q-74 -98 -174 -149.5t-205 -51.5q-139 0 -223 72t-84 207zM479 1331l33 144h129l-31 -144h-131zM899 1331l33 144h129 l-31 -144h-131z" />
<glyph unicode="&#xfd;" horiz-adv-x="1017" d="M37 -375l20 88q55 -20 101 -20q63 0 106 56t150 251h-37l-199 1065h111l176 -979l543 979h118l-602 -1073q-143 -254 -194 -311q-72 -80 -174 -80q-53 -1 -119 24zM575 1225l271 280h160l-322 -280h-109z" />
<glyph unicode="&#xfe;" horiz-adv-x="1187" d="M-4 -369l393 1844h111q-45 -203 -131 -609q162 229 411 230q168 0 265.5 -99.5t97.5 -285.5q0 -109 -32 -229t-96.5 -238.5t-184 -195.5t-273.5 -77q-129 0 -214 64.5t-114 169.5l-123 -574h-110zM270 373q0 -150 75 -230t204 -80q125 0 224 70t151.5 174.5t79 207.5 t26.5 192q0 145 -74.5 221t-203.5 76q-141 0 -254 -94.5t-170.5 -236.5t-57.5 -300z" />
<glyph unicode="&#xff;" horiz-adv-x="1017" d="M37 -375l20 88q55 -20 101 -20q63 0 106 56t150 251h-37l-199 1065h111l176 -979l543 979h118l-602 -1073q-143 -254 -194 -311q-72 -80 -174 -80q-53 -1 -119 24zM438 1331l33 144h129l-31 -144h-131zM858 1331l33 144h129l-31 -144h-131z" />
<glyph unicode="&#x152;" horiz-adv-x="1937" d="M158 532q0 115 26.5 240t91 257t157.5 236.5t241.5 172t329.5 67.5q106 0 221 -30h827l-20 -101h-717l-123 -575h657l-22 -99h-656l-127 -600h715l-20 -100h-832q-113 -25 -211 -25q-242 0 -390 146.5t-148 410.5zM274 530q0 -221 116 -338.5t312 -117.5q123 0 228 32 l270 1268q-88 33 -205 33q-156 0 -283.5 -62.5t-206.5 -157.5t-133.5 -216t-76 -232t-21.5 -209z" />
<glyph unicode="&#x153;" horiz-adv-x="2039" d="M109 381q0 80 18 169t63.5 187.5t113 177t177 130t244.5 51.5q152 0 250 -77t123 -226q80 147 206 225t275 78q178 0 285.5 -101.5t107.5 -298.5q0 -94 -22 -190h-854q-12 -63 -13 -123q0 -160 85 -240t229 -80q121 0 220 60.5t150 167.5h119q-63 -145 -197.5 -233.5 t-302.5 -88.5q-156 0 -258 79t-129 224q-162 -303 -485 -303q-184 0 -294.5 108.5t-110.5 303.5zM223 379q0 -156 80 -238t217 -82q168 0 297 123t176 350q18 86 19 158q0 154 -79 235t-214 81t-237.5 -69t-156 -173.5t-78 -202.5t-24.5 -182zM1116 598h737q8 55 9 102 q0 150 -78 228t-209 78q-154 0 -278 -106.5t-181 -301.5z" />
<glyph unicode="&#x178;" horiz-adv-x="1275" d="M246 1475h119l325 -795l674 795h127l-758 -897l-121 -578h-116l122 580zM621 1679l32 144h129l-30 -144h-131zM1040 1679l33 144h129l-31 -144h-131z" />
<glyph unicode="&#x2c6;" horiz-adv-x="690" d="M236 1225l280 280h135l160 -280h-106l-132 213l-219 -213h-118z" />
<glyph unicode="&#x2dc;" horiz-adv-x="665" d="M250 1278l22 104q96 63 168 64q59 0 115.5 -35t99.5 -35q63 0 172 74l-22 -107q-96 -61 -166 -61q-59 0 -115.5 35t-99.5 35q-65 0 -174 -74z" />
<glyph unicode="&#x2013;" horiz-adv-x="856" d="M63 608l23 101h819l-22 -101h-820z" />
<glyph unicode="&#x2014;" horiz-adv-x="1265" d="M63 608l23 101h1229l-23 -101h-1229z" />
<glyph unicode="&#x2018;" horiz-adv-x="565" d="M338 1026l35 170q27 127 94.5 189.5t177.5 89.5l-14 -76q-125 -39 -164 -211h55l-33 -162h-151z" />
<glyph unicode="&#x2019;" horiz-adv-x="565" d="M285 1026l14 76q125 39 164 209h-55l32 164h152l-35 -170q-27 -127 -94 -190.5t-178 -88.5z" />
<glyph unicode="&#x201a;" horiz-adv-x="565" d="M6 -287l14 76q66 23 105 71t59 140h-55l33 164h151l-34 -170q-27 -127 -94.5 -190.5t-178.5 -90.5z" />
<glyph unicode="&#x201c;" horiz-adv-x="854" d="M285 1026l34 170q27 127 95.5 190.5t177.5 88.5l-14 -76q-125 -39 -164 -209h55l-33 -164h-151zM569 1026l35 170q27 127 94.5 190.5t178.5 88.5l-15 -76q-125 -39 -164 -209h56l-33 -164h-152z" />
<glyph unicode="&#x201d;" horiz-adv-x="849" d="M285 1026l14 76q125 39 164 209h-55l32 164h152l-35 -170q-27 -127 -94 -190.5t-178 -88.5zM569 1026l15 76q125 39 164 209h-56l33 164h152l-35 -170q-27 -127 -95.5 -190.5t-177.5 -88.5z" />
<glyph unicode="&#x201e;" horiz-adv-x="849" d="M6 -287l14 76q66 23 105 71t59 140h-55l33 164h151l-34 -170q-27 -127 -94.5 -190.5t-178.5 -90.5zM291 -287l14 76q66 23 105 71t59 140h-55l32 164h152l-35 -170q-27 -129 -94 -191.5t-178 -89.5z" />
<glyph unicode="&#x2022;" horiz-adv-x="606" d="M195 518l57 266h270l-55 -266h-272z" />
<glyph unicode="&#x2026;" horiz-adv-x="1392" d="M135 0l33 164h137l-33 -164h-137zM547 0l33 164h137l-33 -164h-137zM956 0l33 164h137l-32 -164h-138z" />
<glyph unicode="&#x2039;" horiz-adv-x="591" d="M182 645l332 420h90l-291 -424l84 -457h-82z" />
<glyph unicode="&#x203a;" horiz-adv-x="591" d="M106 184l277 457l-111 424h82l160 -420l-317 -461h-91z" />
<glyph unicode="&#x20ac;" d="M68 520l45 94h120q12 98 41 207h-141l43 94h127q82 240 234.5 394.5t377.5 154.5q182 0 300 -95t118 -267h-114q-2 133 -84 198.5t-213 65.5q-344 0 -502 -451h606l-43 -94h-592q-27 -90 -41 -207h531q-8 -16 -22.5 -46.5t-22.5 -47.5h-492q-4 -57 -4 -78 q0 -375 299 -374q305 0 416 264h119q-68 -174 -207.5 -268.5t-329.5 -94.5q-414 0 -414 496q0 31 2 55h-157z" />
<glyph unicode="&#x2122;" horiz-adv-x="1691" d="M279 1393v82h823l252 -699l243 699h140v-811h-90v712l-250 -712h-90l-260 712v-712h-86v729h-297v-729h-91v729h-294z" />
<glyph unicode="&#xe000;" horiz-adv-x="1065" d="M0 1065h1065v-1065h-1065v1065z" />
<glyph unicode="&#xfb01;" horiz-adv-x="1105" d="M129 0l205 969h-158l21 96h157q14 80 26.5 131t33 106.5t48 87t67.5 59.5t94.5 40t128.5 12q131 0 256 -53l-23 -90q-127 49 -233 49q-217 0 -254 -182l-33 -160h627l-226 -1065h-110l205 969h-517l-204 -969h-111z" />
<glyph unicode="&#xfb02;" horiz-adv-x="1118" d="M131 0l205 971h-158l21 94h157l27 127q33 154 124 231.5t277 77.5q125 0 293 -49l115 23l-313 -1475h-111l287 1360q-125 49 -271 49q-135 0 -200.5 -53t-89.5 -172l-27 -119h238l-21 -94h-238l-204 -971h-111z" />
<glyph unicode="&#xfb03;" horiz-adv-x="1732" d="M129 0q154 731 205 969h-158l21 96h157l23 109q31 154 122 234.5t277 80.5q180 0 334 -74q92 86 268 86q135 0 256 -53l-22 -90q-125 49 -232 49q-51 0 -88 -6t-65.5 -26.5t-44 -33t-31.5 -55.5t-21.5 -59.5t-19.5 -79t-18 -82.5h626l-225 -1065h-111l205 969h-516 l-205 -969h-110l205 969h-517q-51 -238 -204 -969h-111zM465 1065h516q51 233 72 274q-127 59 -277 60q-135 0 -200.5 -56.5t-90.5 -177.5z" />
<glyph unicode="&#xfb04;" horiz-adv-x="1744" d="M129 0q154 731 205 969h-158l21 96h157l23 109q31 154 122 234.5t277 80.5q182 0 344 -78q96 90 289 90q127 0 295 -49q45 8 113 23l-314 -1475h-110l288 1360q-133 47 -272 47q-135 0 -200.5 -53.5t-90.5 -171.5l-24 -117h237l-20 -96h-238q-51 -238 -205 -969h-110 q154 731 205 969h-519q-51 -238 -204 -969h-111zM465 1065h518l27 125q20 94 53 147q-131 61 -287 62q-135 0 -200.5 -57.5t-90.5 -176.5z" />
</font>
</defs>
</svg>
