<?xml version="1.0" standalone="no"?>
<!DOCTYPE svg PUBLIC "-//W3C//DTD SVG 1.1//EN" "http://www.w3.org/Graphics/SVG/1.1/DTD/svg11.dtd" >
<svg xmlns="http://www.w3.org/2000/svg">
<metadata>
This is a custom SVG webfont generated by Font Squirrel.
Copyright   : Copyright c 2010 by Ralph du Carrois Erik Spiekermann  Botio Nikoltchev All rights reserved
Designer    : Ralph du Carrois Erik Spiekermann  Botio Nikoltchev
Foundry     : Ralph du Carrois Erik Spiekermann  Botio Nikoltchev
Foundry URL : httpedenspiekermanncom
</metadata>
<defs>
<font id="CiscoSansHeavyOblique" horiz-adv-x="1228" >
<font-face units-per-em="2048" ascent="1618" descent="-430" />
<missing-glyph horiz-adv-x="458" />
<glyph unicode=" "  horiz-adv-x="458" />
<glyph unicode="&#x09;" horiz-adv-x="458" />
<glyph unicode="&#xa0;" horiz-adv-x="458" />
<glyph unicode="!" horiz-adv-x="661" d="M33 0l78 371h430l-78 -371h-430zM168 496l162 991h469l-262 -991h-369z" />
<glyph unicode="&#x22;" horiz-adv-x="1019" d="M264 961l35 321l45 205h320l-46 -205l-100 -321h-254zM678 961l37 321l43 205h319l-45 -205l-98 -321h-256z" />
<glyph unicode="#" d="M59 0l93 313h-93l56 262h112l86 283h-96l55 262h119l94 314h318l-94 -314h188l94 314h318l-95 -314h93l-56 -262h-114l-86 -283h98l-55 -262h-121l-92 -313h-316l92 313h-188l-94 -313h-316zM545 575h188l86 283h-188z" />
<glyph unicode="$" d="M2 420q0 6 1 16t1 15h412q0 -88 57 -139.5t160 -51.5q86 0 129 38t43 101q0 61 -61.5 103.5t-194.5 79.5q-401 111 -402 411q0 414 504 463l51 242h340l-53 -256q158 -37 242 -140.5t84 -248.5v-27h-402q0 68 -56 103.5t-132 35.5q-63 0 -99 -28.5t-36 -81.5 q0 -109 205 -158q457 -111 456 -416q0 -467 -575 -506l-53 -251h-340l57 272q-174 47 -256 165t-82 259z" />
<glyph unicode="%" horiz-adv-x="1740" d="M166 1063q0 182 108.5 291.5t290.5 109.5q158 0 246 -82t88 -225q0 -178 -108.5 -289.5t-292.5 -111.5q-158 0 -245 82t-87 225zM283 0l1005 1434h305l-1005 -1434h-305zM436 1063q0 -109 78 -109q53 0 84 55.5t31 143.5q0 113 -80 113q-53 0 -83 -60.5t-30 -142.5z M981 274q0 182 109.5 292t289.5 110q158 0 246 -82t88 -223q0 -178 -108.5 -290t-292.5 -112q-158 0 -245 81t-87 224zM1251 279q0 -111 80 -111q53 0 82 55.5t29 143.5q0 111 -78 110q-51 0 -82 -59t-31 -139z" />
<glyph unicode="&#x26;" horiz-adv-x="1402" d="M51 319q0 262 332 416q-111 129 -111 289q0 82 29 157.5t87 140t161.5 103.5t238.5 39q199 0 298.5 -90t99.5 -219q0 -143 -86 -239.5t-250 -196.5l119 -129q31 47 71 153l334 -45q-61 -186 -196 -356l143 -168l-283 -217l-120 141q-176 -129 -396 -129q-227 0 -349 97 t-122 253zM463 354q0 -55 38 -84.5t99 -29.5q84 0 154 53l-197 221q-94 -74 -94 -160zM633 1063q0 -66 49 -131q154 102 154 211q0 41 -24 62.5t-58 21.5q-55 0 -88 -47t-33 -117z" />
<glyph unicode="'" horiz-adv-x="552" d="M264 961l37 321l45 205h318l-43 -205l-101 -321h-256z" />
<glyph unicode="(" horiz-adv-x="696" d="M68 328q0 655 577 1331h326q-299 -410 -426 -707t-127 -643q0 -309 117 -657h-326q-141 295 -141 676z" />
<glyph unicode=")" horiz-adv-x="696" d="M-166 -348q305 428 423 723t118 604q0 319 -123 680h326q150 -319 149 -690q0 -246 -94 -512.5t-215 -458t-260 -346.5h-324z" />
<glyph unicode="*" horiz-adv-x="1017" d="M205 1055l106 327l219 -127l-59 250h344l-53 -252l223 129l107 -327l-258 -21l190 -170l-279 -202l-98 235l-98 -235l-279 204l189 168z" />
<glyph unicode="+" d="M178 510l62 289h303l65 307h318l-66 -307h305l-59 -289h-307l-66 -311h-317l67 311h-305z" />
<glyph unicode="," horiz-adv-x="552" d="M-125 -360l37 180q186 23 219 180h-143l78 371h432l-70 -326q-45 -203 -181 -296t-372 -109z" />
<glyph unicode="-" horiz-adv-x="1105" d="M162 512l61 287h809l-61 -287h-809z" />
<glyph unicode="." horiz-adv-x="620" d="M12 0l78 371h432l-78 -371h-432z" />
<glyph unicode="/" horiz-adv-x="696" d="M-154 -184l772 1689h336l-774 -1689h-334z" />
<glyph unicode="0" d="M84 481q0 109 17.5 225.5t67.5 257t127 248t210 180t303 72.5q219 0 346 -130t127 -380q0 -109 -19.5 -230.5t-72.5 -258.5t-131 -244.5t-209 -179.5t-295 -72q-217 0 -344 131t-127 381zM479 416q0 -180 113 -180q72 0 132 91t93 222t51.5 254t18.5 209q0 190 -115 190 q-66 0 -124 -89t-93 -216t-55.5 -257t-20.5 -224z" />
<glyph unicode="1" d="M283 905l73 350l387 179h363l-303 -1434h-395l225 1063z" />
<glyph unicode="2" d="M27 0l63 305l414 313q231 174 312 268.5t81 186.5q0 49 -29.5 78t-76.5 29q-119 0 -185 -174h-407q76 213 246.5 335.5t394.5 122.5q209 0 336 -100t127 -256v-12q0 -180 -145.5 -334t-561.5 -457h539l-62 -305h-1046z" />
<glyph unicode="3" d="M53 356q0 31 2 47h394v-22q0 -63 35.5 -99t99.5 -36q76 0 129 56t53 165q0 72 -47 109.5t-113 37.5h-166l58 260h170q80 0 142 56.5t62 154.5q0 47 -27.5 72t-70.5 25q-47 0 -93 -33t-75 -96h-383q72 195 229.5 303t378.5 108q203 0 327 -87t124 -234q0 -141 -90 -242.5 t-231 -138.5q96 -27 152 -108t56 -185q0 -203 -165.5 -351.5t-456.5 -148.5q-227 0 -360.5 107.5t-133.5 279.5z" />
<glyph unicode="4" d="M25 260l63 295l617 879h555l-189 -893h146l-58 -281h-147l-56 -260h-381l54 260h-604zM467 541h221l8 34l142 525z" />
<glyph unicode="5" d="M90 373q0 2 1 14t1 14h383q2 -76 38 -114.5t93 -38.5q86 0 139.5 96t53.5 211q0 152 -140 152q-86 0 -163 -78h-316l209 805h914l-58 -273h-551l-67 -252q106 55 223 56q160 0 261 -100.5t101 -270.5q0 -262 -180 -443.5t-459 -181.5q-217 0 -350 105.5t-133 298.5z" />
<glyph unicode="6" d="M82 479q0 123 33 262q76 342 264 532.5t465 190.5q211 0 341 -98t142 -256h-418q-2 39 -31.5 61.5t-76.5 22.5q-162 0 -266 -348q139 129 311 129t272.5 -101.5t100.5 -273.5q0 -279 -185.5 -455t-464.5 -176q-225 0 -356 134t-131 376zM465 418q0 -74 35 -123t98 -49 q86 0 149.5 87t63.5 226q0 143 -123 143q-82 0 -152.5 -79.5t-70.5 -204.5z" />
<glyph unicode="7" d="M113 0l766 1145h-627l61 289h1045l-58 -275l-757 -1159h-430z" />
<glyph unicode="8" d="M35 344q0 152 84 243t246 161q-139 90 -140 251q0 205 151.5 335t440.5 130q197 0 337 -89t140 -242q0 -229 -286 -371q190 -109 190 -301q0 -221 -177 -356.5t-466 -135.5q-240 0 -380 106.5t-140 268.5zM455 377q0 -61 40 -96t95 -35q76 0 134 54t58 144 q0 109 -139 177q-188 -92 -188 -244zM618 1026q0 -104 119 -147q68 29 113 85t45 134q0 53 -35 82.5t-78 29.5q-63 0 -113.5 -52t-50.5 -132z" />
<glyph unicode="9" d="M61 340h420q0 -49 35 -76.5t84 -27.5q76 0 134.5 79.5t107.5 264.5q-133 -127 -303 -127q-176 0 -275.5 110.5t-99.5 288.5q0 287 184 449.5t473 162.5q229 0 355.5 -127t126.5 -364q0 -109 -16.5 -226.5t-68 -261t-128 -254t-213 -186.5t-310.5 -76q-223 0 -360.5 101.5 t-145.5 269.5zM569 881q0 -154 133 -154q88 0 150.5 91t62.5 212q0 72 -33.5 117t-99.5 45q-94 0 -153.5 -87t-59.5 -224z" />
<glyph unicode=":" horiz-adv-x="620" d="M12 0l78 371h432l-78 -371h-432zM160 694l78 371h432l-78 -371h-432z" />
<glyph unicode=";" horiz-adv-x="620" d="M-100 -360l37 180q186 23 219 180h-144l78 371h432l-69 -326q-45 -203 -181 -296t-372 -109zM160 694l78 371h432l-78 -371h-432z" />
<glyph unicode="&#x3c;" d="M180 530l56 252l1019 443l-73 -353l-582 -227l487 -221l-73 -336z" />
<glyph unicode="=" d="M135 309l60 287h927l-61 -287h-926zM219 711l62 286h927l-61 -286h-928z" />
<glyph unicode="&#x3e;" d="M86 88l74 352l581 226l-485 221l72 338l833 -443l-53 -252z" />
<glyph unicode="?" horiz-adv-x="1136" d="M229 1096q57 174 217 291.5t367 117.5q201 0 317.5 -81t116.5 -214q0 -137 -70.5 -234t-269.5 -278q-72 -68 -106 -211h-383q33 156 72.5 233t140.5 171q123 117 161.5 167t38.5 95q0 61 -65 61q-76 0 -125 -118h-412zM295 0l78 371h430l-78 -371h-430z" />
<glyph unicode="@" horiz-adv-x="1886" d="M127 571q0 203 62.5 367t162 267.5t229.5 173t258 98t257 28.5q358 0 572 -172t214 -481q0 -279 -143.5 -476.5t-364.5 -197.5q-104 0 -165.5 59.5t-63.5 135.5q-31 -70 -113 -122t-184 -52q-143 0 -220 91t-77 240q0 274 143.5 430t319.5 156q55 0 99 -23.5t56 -60.5 l41 66h246l-98 -484q-20 -104 -21 -137q0 -82 64 -82q78 0 124 142.5t46 314.5q0 209 -119 310.5t-373 101.5q-84 0 -164.5 -17.5t-170 -65.5t-156 -123t-109.5 -200t-43 -287q0 -532 584 -532q139 0 321 55l43 -235q-184 -66 -399 -66q-236 0 -426 83t-311 263t-121 432z M862 512q0 -94 70 -94q37 0 68.5 45t46.5 123l28 143q12 70 12 90q0 72 -59 72q-70 0 -118 -127t-48 -252z" />
<glyph unicode="A" horiz-adv-x="1515" d="M-88 0l854 1475h442l232 -1475h-443l-26 322h-457l-162 -322h-440zM655 604h295l-39 500z" />
<glyph unicode="B" horiz-adv-x="1406" d="M35 0l313 1475h524q573 0 574 -324q0 -137 -94.5 -236.5t-245.5 -130.5q113 -27 185.5 -112.5t72.5 -196.5q0 -475 -727 -475h-602zM520 279h178q113 0 174.5 54t61.5 159q0 68 -46 107.5t-126 39.5h-166zM651 899h158q88 0 141.5 47t53.5 129q0 53 -43 87t-117 34h-129z " />
<glyph unicode="C" horiz-adv-x="1558" d="M119 582q0 129 26.5 252.5t90 247.5t160 216.5t249 149.5t342.5 57q270 0 445.5 -138t175.5 -382v-20h-426q0 127 -59.5 187t-159.5 60q-102 0 -184.5 -63.5t-127.5 -162.5t-67.5 -206.5t-22.5 -210.5q0 -154 61.5 -230.5t161.5 -76.5q119 0 195 73t123 230h432 q-102 -303 -294.5 -449.5t-498.5 -146.5q-295 0 -458.5 165t-163.5 448z" />
<glyph unicode="D" horiz-adv-x="1546" d="M35 0l313 1475h547q322 0 501 -147.5t179 -422.5q0 -121 -20.5 -234.5t-81 -239.5t-155.5 -218t-262 -152.5t-384 -60.5h-637zM524 293h164q127 0 221.5 61.5t141.5 157.5t67.5 188.5t20.5 178.5q0 150 -77 227.5t-212 77.5h-135z" />
<glyph unicode="E" horiz-adv-x="1257" d="M35 0l313 1475h1069l-65 -304h-639l-62 -286h580l-60 -283h-581l-64 -303h639l-61 -299h-1069z" />
<glyph unicode="F" horiz-adv-x="1189" d="M35 0l313 1475h1012l-64 -299h-585l-68 -320h522l-61 -283h-520l-121 -573h-428z" />
<glyph unicode="G" horiz-adv-x="1579" d="M119 563q0 115 21.5 230.5t84 248t157.5 231.5t258 165.5t372 66.5q287 0 446.5 -132t159.5 -353h-424q-2 96 -59.5 144t-155.5 48q-111 0 -196 -67.5t-130 -171t-67.5 -206.5t-22.5 -196q0 -154 66.5 -232.5t171.5 -78.5q129 0 217 67.5t110 176.5l13 59h-314l60 277 h694l-178 -840h-293l-23 135q-176 -166 -421 -166q-238 0 -392.5 160t-154.5 434z" />
<glyph unicode="H" horiz-adv-x="1536" d="M35 0l313 1475h428l-125 -584h449l125 584h426l-314 -1475h-426l125 600h-448l-125 -600h-428z" />
<glyph unicode="I" horiz-adv-x="661" d="M35 0l313 1475h428l-313 -1475h-428z" />
<glyph unicode="J" horiz-adv-x="1214" d="M41 395q0 35 6 76h412q-6 -41 -6 -70q0 -72 31.5 -104.5t76.5 -32.5q53 0 88 38t56 134l221 1039h413l-217 -1014q-53 -250 -190 -371t-393 -121q-225 0 -361.5 107.5t-136.5 318.5z" />
<glyph unicode="K" horiz-adv-x="1558" d="M35 0l313 1475h428l-114 -535l565 535h493l-786 -717l543 -758h-510l-385 565l-119 -565h-428z" />
<glyph unicode="L" horiz-adv-x="1288" d="M35 0l313 1475h428l-248 -1166h701l-64 -309h-1130z" />
<glyph unicode="M" horiz-adv-x="1875" d="M35 0l313 1475h447l137 -1072l584 1072h475l-314 -1475h-383l172 813l-444 -813h-344l-105 831l-176 -831h-362z" />
<glyph unicode="N" horiz-adv-x="1531" d="M35 0l313 1475h445l303 -873l186 873h365l-314 -1475h-418l-323 918l-193 -918h-364z" />
<glyph unicode="O" horiz-adv-x="1638" d="M117 586q0 115 22.5 229.5t84 242.5t155.5 224t254 159.5t362 63.5q129 0 246 -36.5t214 -108.5t154.5 -194t57.5 -275q0 -117 -23.5 -234.5t-86 -244.5t-157.5 -222.5t-254 -158t-360 -62.5q-131 0 -248.5 37t-213 110.5t-151.5 194.5t-56 275zM553 586q0 -160 79 -238 t189 -78q88 0 161 43t118 109.5t76.5 151.5t45 163t13.5 150q0 162 -78 240.5t-188 78.5q-113 0 -199 -67.5t-130 -170t-65.5 -200.5t-21.5 -182z" />
<glyph unicode="P" horiz-adv-x="1415" d="M35 0l313 1475h551q297 0 445.5 -111t148.5 -307q0 -96 -22.5 -178t-77 -159t-138.5 -131t-217 -86t-303 -32h-174l-98 -471h-428zM623 758h165q121 0 194 70.5t73 187.5q0 82 -54.5 126t-154.5 44h-133z" />
<glyph unicode="Q" horiz-adv-x="1662" d="M117 586q0 115 22.5 229.5t84 242.5t155.5 224t254 159.5t362 63.5q129 0 246 -36.5t214 -108.5t154.5 -194t57.5 -275q0 -209 -80 -417t-256 -341l168 -227l-397 -234l-125 314q-115 -16 -191 -17q-131 0 -248.5 37t-213 110.5t-151.5 194.5t-56 275zM553 586 q0 -160 79 -238t189 -78q88 0 161 43t118 109.5t76.5 151.5t45 163t13.5 150q0 162 -78 240.5t-188 78.5q-113 0 -199 -67.5t-130 -170t-65.5 -200.5t-21.5 -182z" />
<glyph unicode="R" horiz-adv-x="1492" d="M35 0l313 1475h563q287 0 438.5 -103.5t151.5 -290.5q0 -358 -385 -493l285 -588h-492l-211 512h-127l-108 -512h-428zM633 803h178q104 0 174 61.5t70 169.5q0 72 -51.5 111t-145.5 39h-143z" />
<glyph unicode="S" horiz-adv-x="1390" d="M49 442v23h414q0 -98 60.5 -151.5t181.5 -53.5q227 0 227 154q0 72 -64.5 116.5t-228.5 79.5q-197 41 -314.5 156t-117.5 278q0 461 641 461q272 0 436 -126t164 -337h-404q0 86 -61 129t-162 43q-170 0 -170 -120q0 -117 236 -170q485 -113 485 -445q0 -510 -702 -510 q-305 0 -463 137t-158 336z" />
<glyph unicode="T" horiz-adv-x="1302" d="M176 1165l66 310h1282l-66 -310h-432l-246 -1165h-428l246 1165h-422z" />
<glyph unicode="U" horiz-adv-x="1517" d="M117 403q0 51 12 111l205 961h430l-211 -988q-8 -37 -8 -53q0 -80 54 -124t149 -44q221 0 268 213l211 996h415l-206 -971q-115 -535 -717 -535q-281 0 -441.5 116.5t-160.5 317.5z" />
<glyph unicode="V" horiz-adv-x="1441" d="M231 1475h431l51 -1110l530 1110h430l-794 -1475h-476z" />
<glyph unicode="W" horiz-adv-x="2086" d="M231 1475h426l-26 -957l420 957h450l25 -965l372 965h420l-641 -1475h-473l-26 1024l-449 -1024h-459z" />
<glyph unicode="X" horiz-adv-x="1536" d="M-72 0l684 768l-336 707h463l172 -412l340 412h471l-637 -705l359 -770h-469l-187 465l-370 -465h-490z" />
<glyph unicode="Y" horiz-adv-x="1482" d="M231 1475h449l168 -562l432 562h434l-725 -885l-125 -590h-409l125 590z" />
<glyph unicode="Z" horiz-adv-x="1325" d="M-37 0l60 279l882 899h-653l63 297h1196l-59 -275l-883 -903h678l-61 -297h-1223z" />
<glyph unicode="[" horiz-adv-x="696" d="M-63 -348l428 2007h553l-54 -248h-223l-319 -1511h221l-54 -248h-552z" />
<glyph unicode="\" horiz-adv-x="696" d="M203 1505h334l53 -1689h-334z" />
<glyph unicode="]" horiz-adv-x="696" d="M-123 -348l53 248h224l319 1511h-223l53 248h555l-428 -2007h-553z" />
<glyph unicode="^" horiz-adv-x="1064" d="M100 784l478 674h342l188 -674h-354l-70 334l-215 -334h-369z" />
<glyph unicode="_" horiz-adv-x="1204" d="M-106 -291l59 285h1130l-61 -285h-1128z" />
<glyph unicode="`" horiz-adv-x="741" d="M311 1499h385l152 -315h-275z" />
<glyph unicode="a" horiz-adv-x="1189" d="M18 236q0 166 120 262t407 143l229 37l6 29q4 16 4 38q0 92 -102 93q-109 0 -145 -105h-396q154 362 590 363q213 0 330 -89t117 -247q0 -57 -11 -101l-139 -659h-307l-25 119q-57 -63 -154.5 -106.5t-211.5 -43.5q-147 0 -229.5 71t-82.5 196zM420 305q0 -78 92 -78 q68 0 124 43t75 115l20 90q-195 -35 -253 -66.5t-58 -103.5z" />
<glyph unicode="b" horiz-adv-x="1312" d="M12 0l314 1475h397l-111 -519q143 139 328 140q170 0 269.5 -106.5t99.5 -295.5q0 -125 -35 -247.5t-104.5 -232.5t-188.5 -177.5t-268 -67.5q-96 0 -178 41t-127 109l-82 -119h-314zM502 430q0 -178 151 -178q70 0 122 42t79 106.5t39 123t12 107.5q0 90 -41 136 t-108.5 46t-120.5 -41t-80 -103.5t-40 -124t-13 -114.5z" />
<glyph unicode="c" horiz-adv-x="1241" d="M70 406q0 94 20.5 185t70.5 184t124.5 163t193.5 114t269 44q225 0 361 -111t140 -295h-407q0 139 -123 139q-66 0 -116 -45t-75.5 -113.5t-38 -134t-12.5 -122.5q0 -86 36 -133.5t93 -47.5q119 0 176 166h408q-78 -197 -232.5 -313.5t-388.5 -116.5q-244 0 -371.5 116 t-127.5 321z" />
<glyph unicode="d" horiz-adv-x="1318" d="M68 387q0 88 19 181.5t65.5 188.5t112 169.5t164.5 122t218 47.5q98 0 179 -36t124 -95l109 510h397l-313 -1475h-316l-34 129q-166 -160 -351 -160q-172 0 -273 112.5t-101 305.5zM475 444q0 -92 42 -142t112 -50q86 0 146.5 73.5t82 156.5t21.5 155q0 90 -43 133 t-111 43t-120 -39t-78.5 -98.5t-39 -119t-12.5 -112.5z" />
<glyph unicode="e" horiz-adv-x="1267" d="M76 436q0 123 41 237.5t118.5 210t206.5 154t291 58.5q229 0 368.5 -124t139.5 -349q0 -86 -20 -177h-750q-2 -12 -2 -36q0 -170 164 -170q117 0 155 98h402q-74 -168 -225.5 -268.5t-378.5 -100.5q-231 0 -370.5 128t-139.5 339zM516 655h342q4 18 4 52q0 141 -143 141 q-137 0 -203 -193z" />
<glyph unicode="f" horiz-adv-x="794" d="M86 0l168 797h-156l58 268h155l15 68q43 201 145 286.5t313 85.5q143 0 267 -43l-60 -276q-92 33 -151 33q-55 0 -83 -22.5t-38 -76.5l-12 -55h202l-57 -268h-203l-168 -797h-395z" />
<glyph unicode="g" horiz-adv-x="1296" d="M-6 -43h397q10 -47 44 -68.5t104 -21.5q104 0 145 62.5t76 236.5q-137 -121 -293 -121q-174 0 -280.5 111.5t-106.5 300.5q0 281 168 460t416 179q94 0 174 -37t120 -98l80 104h308l-211 -991q-100 -473 -633 -473q-508 0 -508 356zM485 510q0 -84 44 -132t118 -48 q106 0 170 93t64 220q0 84 -43 128t-115 44q-109 0 -173.5 -91t-64.5 -214z" />
<glyph unicode="h" horiz-adv-x="1243" d="M12 0l314 1475h395l-107 -498q135 119 306 119q150 0 232.5 -80t82.5 -225q0 -70 -14 -132l-142 -659h-397l139 657q8 41 8 60q0 106 -100 106q-72 0 -122 -53t-66 -139l-133 -631h-396z" />
<glyph unicode="i" horiz-adv-x="604" d="M23 0l225 1065h395l-225 -1065h-395zM260 1176l64 299h419l-65 -299h-418z" />
<glyph unicode="j" horiz-adv-x="595" d="M-248 -365l60 279q55 -20 98 -20q45 0 69.5 20t34.5 72l230 1079h395l-231 -1100q-78 -365 -433 -364q-129 -1 -223 34zM256 1169l63 299h418l-63 -299h-418z" />
<glyph unicode="k" horiz-adv-x="1275" d="M12 0l314 1475h395l-158 -740l373 330h461l-559 -473l364 -592h-481l-227 412l-86 -412h-396z" />
<glyph unicode="l" horiz-adv-x="585" d="M12 0l314 1475h397l-313 -1475h-398z" />
<glyph unicode="m" horiz-adv-x="1871" d="M12 0l226 1065h290l33 -121q141 152 332 152q109 0 189.5 -39t111.5 -113q145 152 344 152q150 0 238 -79t88 -229q0 -63 -15 -126l-139 -662h-395l139 672q6 29 6 53q0 98 -88 98q-72 0 -119 -61.5t-67 -155.5l-127 -606h-395l139 672q6 31 6 55q0 96 -88 96 q-68 0 -116 -60.5t-66 -150.5l-129 -612h-398z" />
<glyph unicode="n" horiz-adv-x="1243" d="M12 0l226 1065h335l7 -119q70 70 162 110t178 40q150 0 232.5 -80t82.5 -225q0 -68 -14 -132l-142 -659h-397l141 659q8 37 8 62q0 49 -28.5 75.5t-73.5 26.5q-72 0 -122 -53t-66 -139l-133 -631h-396z" />
<glyph unicode="o" horiz-adv-x="1288" d="M74 426q0 88 17.5 173t63.5 177t118.5 162t192.5 114t273 44q242 0 389.5 -118t147.5 -333q0 -133 -39 -251t-118 -215t-211 -153.5t-304 -56.5q-238 0 -384 119t-146 338zM479 414q0 -182 158 -183q70 0 121 49.5t73.5 124t32.5 138t10 119.5q0 172 -155 172 q-72 0 -123 -48.5t-73.5 -122t-33 -135t-10.5 -114.5z" />
<glyph unicode="p" horiz-adv-x="1314" d="M-68 -369l306 1434h307l39 -129q156 160 348 160q172 0 274.5 -107.5t102.5 -298.5q0 -301 -167 -511t-425 -210q-84 0 -164 35t-125 94l-98 -467h-398zM500 430q0 -90 43 -135t112 -45q115 0 182.5 117.5t67.5 265.5q0 90 -41 136t-110 46q-68 0 -120 -41t-80 -104.5 t-41 -125t-13 -114.5z" />
<glyph unicode="q" horiz-adv-x="1318" d="M68 389q0 84 18 175t62.5 187.5t110 172t171 124t234.5 48.5q106 0 186 -42t119 -112l90 123h309l-305 -1434h-397l102 478q-154 -139 -319 -140q-172 0 -276.5 113.5t-104.5 306.5zM475 440q0 -90 41 -139t111 -49q86 0 146.5 67.5t83 149.5t22.5 164q0 180 -154 180 q-70 0 -121 -38t-77.5 -98.5t-39 -120t-12.5 -116.5z" />
<glyph unicode="r" horiz-adv-x="870" d="M12 0l226 1065h340v-164q123 195 296 195q68 0 132 -17l-76 -352q-80 25 -150 25q-100 0 -174 -81t-106 -241l-90 -430h-398z" />
<glyph unicode="s" horiz-adv-x="1153" d="M31 322h387q4 -39 44 -66t107 -27q127 0 127 76q0 41 -39 66.5t-143 44.5q-387 72 -387 321q0 358 524 359q219 0 360.5 -97.5t141.5 -250.5h-385q-10 90 -141 90q-96 0 -97 -64q0 -76 183 -110q391 -76 391 -310q0 -385 -551 -385q-229 0 -375.5 98.5t-146.5 254.5z" />
<glyph unicode="t" horiz-adv-x="813" d="M106 797l58 268h153l78 256h373l-53 -256h211l-58 -268h-211l-98 -463q-4 -16 -4 -33q0 -55 76 -55q47 0 127 22l-56 -266q-131 -33 -227 -33q-154 0 -238.5 72t-84.5 199q0 37 10 88l100 469h-156z" />
<glyph unicode="u" d="M68 270q0 57 16 136l139 659h395l-137 -653q-10 -51 -10 -68q0 -47 26.5 -74.5t73.5 -27.5q68 0 115 53t66 141l133 629h393l-225 -1065h-334l-8 109q-143 -139 -332 -140q-150 0 -230.5 79t-80.5 222z" />
<glyph unicode="v" horiz-adv-x="1210" d="M141 1065h416l31 -743l342 743h426l-606 -1065h-455z" />
<glyph unicode="w" horiz-adv-x="1759" d="M152 1065h397l-29 -678l297 678h420l-10 -674l270 674h397l-518 -1065h-450l14 682l-293 -682h-438z" />
<glyph unicode="x" horiz-adv-x="1249" d="M-84 0l520 559l-276 506h444l107 -256l202 256h428l-464 -502l292 -563h-452l-123 291l-242 -291h-436z" />
<glyph unicode="y" horiz-adv-x="1216" d="M39 -367l57 267q92 -29 146 -29q45 0 76.5 27.5t68.5 101.5h-74l-170 1065h410l27 -782l370 782h412l-614 -1079q-129 -223 -231.5 -304t-258.5 -81q-106 -1 -219 32z" />
<glyph unicode="z" horiz-adv-x="1079" d="M-47 0l57 276l606 506h-462l59 283h975l-60 -277l-596 -505h472l-60 -283h-991z" />
<glyph unicode="{" horiz-adv-x="696" d="M33 522l57 273q164 0 197 149l71 334q23 102 61 173t84 111t117.5 62.5t141 28.5t174.5 6l-53 -252q-94 0 -133 -22.5t-56 -104.5l-69 -336q-43 -209 -219 -289q106 -59 106 -188q0 -45 -12 -102l-70 -332q-8 -45 -8 -56q0 -47 31.5 -61t109.5 -16l-55 -248 q-109 0 -180.5 9t-131 36t-88 79t-28.5 134q0 68 16 139l70 324q4 29 4 43q0 106 -137 106z" />
<glyph unicode="|" horiz-adv-x="696" d="M33 -287l401 1895h330l-402 -1895h-329z" />
<glyph unicode="}" horiz-adv-x="696" d="M-141 -348l55 252q92 2 129 23.5t55 105.5l70 323q45 215 221 291q-109 53 -108 189q0 41 12 100l72 344q6 31 6 53q0 47 -32 62.5t-108 15.5l54 248q221 0 325.5 -52.5t104.5 -205.5q0 -53 -17 -139l-71 -334q-6 -25 -6 -43q0 -106 139 -107l-60 -272q-166 0 -196 -150 l-68 -323q-27 -127 -75 -205t-127.5 -116t-161.5 -49t-213 -11z" />
<glyph unicode="~" d="M170 473l63 299q143 76 302 76q94 0 197.5 -54.5t154.5 -54.5q106 0 287 101l-64 -297q-139 -78 -303 -78q-94 0 -196.5 53t-153.5 53q-105 0 -287 -98z" />
<glyph unicode="&#xa1;" horiz-adv-x="661" d="M-68 -369l265 992h366l-160 -992h-471zM190 748l78 370h432l-79 -370h-431z" />
<glyph unicode="&#xa2;" d="M63 406q0 104 28 206.5t84 200.5t161.5 170t247.5 96l59 271h344l-61 -279q147 -39 230 -139.5t85 -241.5h-405v17q-2 55 -35 83.5t-84 28.5q-90 0 -149.5 -77.5t-78 -162.5t-18.5 -165q0 -86 38 -133.5t89 -47.5q121 0 178 166h408q-145 -360 -490 -417l-53 -258h-344 l57 276q-143 41 -217 146.5t-74 259.5z" />
<glyph unicode="&#xa3;" d="M4 0l64 299q68 16 93 66.5t60 212.5h-110l51 245h110l43 201q47 227 175 333.5t356 106.5q203 0 333 -105.5t130 -262.5q0 -20 -4 -54h-379q0 129 -86 129q-49 0 -75 -35.5t-46 -129.5l-39 -183h338l-51 -245h-340q-16 -102 -52 -167t-110 -102h659l-65 -309h-1055z" />
<glyph unicode="&#xa4;" horiz-adv-x="1185" d="M74 326l121 120q-57 109 -57.5 240t57.5 240l-121 123l217 219l127 -127q111 57 239 57q125 0 240 -57l127 127l217 -219l-121 -123q57 -109 58 -240q0 -127 -60 -240l123 -120l-217 -220l-127 125q-117 -55 -240 -55q-125 0 -241 55l-125 -125zM432 686 q0 -106 63.5 -169.5t162 -63.5t162 63.5t63.5 169.5q0 109 -63.5 172.5t-162 63.5t-162 -63.5t-63.5 -172.5z" />
<glyph unicode="&#xa5;" d="M125 213l51 238h258l19 86h-258l51 237h157l-227 660h424l105 -553l358 553h432l-510 -660h162l-51 -237h-258l-19 -86h258l-51 -238h-258l-45 -213h-383l45 213h-260z" />
<glyph unicode="&#xa6;" horiz-adv-x="696" d="M33 -287l172 813h330l-173 -813h-329zM260 784l174 822h330l-174 -822h-330z" />
<glyph unicode="&#xa7;" d="M109 137q0 18 2 31h325q2 -92 105 -92q37 0 61.5 18.5t24.5 50.5q0 45 -70 80q-16 8 -72.5 36t-74 37t-62.5 33.5t-60.5 39t-44 41t-39.5 50t-20.5 55.5t-9.5 67q0 225 252 313q-94 80 -94 201q0 160 116.5 262t350.5 102q182 0 298.5 -99t116.5 -214q0 -20 -2 -29h-325 q-2 45 -31 69.5t-72 24.5q-37 0 -59.5 -18t-22.5 -51q0 -47 74 -82q221 -100 302 -169t81 -181q0 -102 -64.5 -187.5t-181.5 -132.5q84 -72 84 -198q0 -154 -123.5 -260.5t-345.5 -106.5q-195 0 -307 93t-112 216zM547 623q0 -76 139 -129q94 66 94 139q0 78 -141 131 q-92 -69 -92 -141z" />
<glyph unicode="&#xa8;" horiz-adv-x="964" d="M233 1198l64 295h352l-63 -295h-353zM721 1198l63 295h355l-64 -295h-354z" />
<glyph unicode="&#xa9;" horiz-adv-x="1726" d="M172 737.5q0 149.5 44 277.5t119 217t175 151.5t213 92t231 29.5q150 0 287 -48t249 -140t178.5 -242.5t66.5 -337t-66.5 -337t-178.5 -242.5t-249 -140.5t-287 -48.5q-119 0 -231.5 30t-212.5 92.5t-175 151.5t-119 217t-44 277.5zM385 737.5q0 -286.5 164 -443.5 t405 -157q240 0 404 157t164 443.5t-164 443t-404 156.5q-242 0 -405.5 -156.5t-163.5 -443zM543 735.5q0 198.5 113.5 312t310.5 113.5q164 0 274.5 -83t132.5 -216h-299q-8 47 -37.5 76t-66.5 29q-129 0 -129 -234q0 -211 121 -211q90 0 114 123h301q-33 -143 -137 -231 t-278 -88q-201 0 -310.5 105.5t-109.5 304z" />
<glyph unicode="&#xaa;" horiz-adv-x="1044" d="M43 0l59 287h811l-59 -287h-811zM209 817q0 293 430 340l115 12l8 33q4 12 4 37q0 47 -51 47t-76 -61h-328q53 125 173 202.5t274 77.5q160 0 251 -69.5t91 -192.5q0 -43 -8 -78l-117 -544h-244l-12 71q-106 -96 -234 -96q-119 0 -197.5 57.5t-78.5 163.5zM551 877 q0 -23 16.5 -37.5t42.5 -14.5q33 0 59.5 27t32.5 61l13 70l-47 -8q-117 -20 -117 -98z" />
<glyph unicode="&#xab;" horiz-adv-x="1204" d="M115 641l356 424h307l-284 -434l71 -455h-286zM618 641l357 424h307l-287 -434l74 -455h-289z" />
<glyph unicode="&#xac;" d="M178 512l60 287h925l-127 -598h-315l65 311h-608z" />
<glyph unicode="&#xad;" horiz-adv-x="1105" d="M162 512l61 287h809l-61 -287h-809z" />
<glyph unicode="&#xae;" horiz-adv-x="1286" d="M279 1022q0 123 43 219t116.5 151.5t159.5 84t180 28.5t181.5 -28.5t160 -84t116.5 -151.5t44 -219t-44 -218t-116.5 -151.5t-160 -85t-181.5 -28.5t-180 28.5t-158.5 85t-116.5 151.5t-44 218zM422 1022q0 -186 103.5 -275.5t252.5 -89.5q147 0 252 90.5t105 274.5 q0 186 -104.5 276.5t-252.5 90.5q-150 0 -253 -90.5t-103 -276.5zM586 795v479h188q215 0 215 -156q0 -92 -92 -133l131 -190h-162l-104 168h-39v-168h-137zM723 1055h55q70 0 70 63q0 61 -74 62h-51v-125z" />
<glyph unicode="&#xaf;" horiz-adv-x="675" d="M209 1210l55 263h592l-55 -263h-592z" />
<glyph unicode="&#xb0;" horiz-adv-x="1105" d="M188 1071q0 180 123 288.5t291 108.5q147 0 243.5 -82.5t96.5 -226.5q0 -176 -124 -285.5t-292 -109.5q-145 0 -241.5 82t-96.5 225zM485 1083q0 -84 66 -84q39 0 66.5 37t27.5 107q0 88 -67 88q-43 0 -68 -41t-25 -107z" />
<glyph unicode="&#xb1;" d="M70 0l61 287h926l-60 -287h-927zM186 561l64 287h303l65 309h318l-66 -309h306l-62 -287h-305l-41 -194h-317l41 194h-306z" />
<glyph unicode="&#xb2;" horiz-adv-x="696" d="M150 823l40 195l252 207q4 4 28 22.5t30 23.5t24.5 21.5t24.5 25.5t16 23.5t13.5 26.5t3.5 27q0 39 -37 39q-45 0 -70 -60h-244q43 115 143.5 186.5t231.5 71.5q115 0 182.5 -54t67.5 -146q0 -66 -38 -130.5t-78 -102.5t-113 -99l-80 -66h227l-47 -211h-577z" />
<glyph unicode="&#xb3;" horiz-adv-x="696" d="M168 1053h248q0 -43 51 -43q31 0 49.5 23.5t18.5 60.5q0 51 -78 51h-49l41 186h61q29 0 50.5 20.5t21.5 57.5q0 39 -41 39q-33 0 -54 -39h-239q106 223 348 223q106 0 178 -47t72 -137q0 -57 -40 -115.5t-108 -85.5q43 -14 74 -54t31 -99q0 -129 -101.5 -206t-250.5 -77 q-129 0 -206 69t-77 173z" />
<glyph unicode="&#xb4;" horiz-adv-x="741" d="M217 1184l289 315h409l-395 -315h-303z" />
<glyph unicode="&#xb5;" horiz-adv-x="1239" d="M-72 -369l305 1434h396l-142 -664q-6 -31 -6 -57q0 -49 27 -76.5t74 -27.5q66 0 112.5 54t65.5 142l133 629h395l-225 -1065h-336l-8 109q-123 -123 -324 -134l-71 -344h-396z" />
<glyph unicode="&#xb6;" horiz-adv-x="1445" d="M166 1006q0 248 146.5 358.5t375.5 110.5h311l-393 -1844h-375l213 1004q-119 14 -198.5 109.5t-79.5 261.5zM788 -369l394 1844h377l-394 -1844h-377z" />
<glyph unicode="&#xb7;" horiz-adv-x="606" d="M106 451l78 358h416l-78 -358h-416z" />
<glyph unicode="&#xb8;" horiz-adv-x="831" d="M-76 -283h260q0 -31 22.5 -53t67.5 -22q86 0 86 71q0 82 -178 82l74 250h223l-20 -117q80 -20 122 -70.5t42 -119.5q0 -131 -100.5 -209t-262.5 -78q-152 0 -244 67.5t-92 180.5v18z" />
<glyph unicode="&#xb9;" horiz-adv-x="696" d="M168 823l45 215h154l65 316l-170 -88l53 247l187 101h256l-123 -576h133l-47 -215h-553z" />
<glyph unicode="&#xba;" horiz-adv-x="1069" d="M25 0l61 287h834l-60 -287h-835zM213 963q0 248 131 395t375 147q76 0 141.5 -16t123.5 -54t92 -112t34 -174q0 -256 -133 -403.5t-371 -147.5q-166 0 -279.5 85t-113.5 280zM551 948q0 -121 80 -121q53 0 88 60.5t45 129t10 140.5q0 119 -80 119q-74 0 -108.5 -102.5 t-34.5 -225.5z" />
<glyph unicode="&#xbb;" horiz-adv-x="1204" d="M43 176l268 455l-102 434h291l192 -424l-344 -465h-305zM547 176l268 455l-104 434h293l192 -424l-346 -465h-303z" />
<glyph unicode="&#xbc;" horiz-adv-x="1777" d="M84 643l45 215h154l65 316l-170 -89l53 248l187 101h256l-123 -576h133l-47 -215h-553zM113 -184l1273 1802h304l-1276 -1802h-301zM872 139l43 201l269 451h256l-252 -439h67l11 45l55 119h207l-35 -164h68l-45 -213h-68l-31 -139h-237l28 139h-336z" />
<glyph unicode="&#xbd;" horiz-adv-x="1781" d="M90 643l45 215h154l65 316l-170 -89l54 248l186 101h256l-123 -576h133l-47 -215h-553zM111 -184l1273 1802h304l-1276 -1802h-301zM930 0l41 195l252 206q4 4 27.5 22.5t29.5 24t24.5 21.5t24.5 25.5t16.5 23.5t13.5 26.5t3 26.5q0 39 -37 39q-45 0 -70 -59h-243 q43 115 143 186.5t231 71.5q115 0 182.5 -54.5t67.5 -146.5q0 -66 -37.5 -130t-77.5 -102t-114 -100l-80 -65h227l-47 -211h-577z" />
<glyph unicode="&#xbe;" horiz-adv-x="1779" d="M106 -184l1274 1802h303l-1275 -1802h-302zM129 885h248q0 -43 51 -43q31 0 49.5 23.5t18.5 60.5q0 51 -78 51h-49l41 186h61q29 0 50.5 20.5t21.5 57.5q0 39 -41 39q-35 0 -53 -39h-240q106 223 348 223q106 0 178 -47t72 -137q0 -57 -40 -115.5t-108 -85.5 q43 -14 74 -54t31 -99q0 -129 -101.5 -206t-250.5 -77q-129 0 -206 69t-77 173zM877 139l43 201l268 451h256l-252 -439h68l10 45l55 119h207l-35 -164h68l-45 -213h-68l-31 -139h-237l28 139h-335z" />
<glyph unicode="&#xbf;" horiz-adv-x="1136" d="M-39 -104q0 137 70.5 235t267.5 277q72 63 107 210h382q-33 -156 -73.5 -233.5t-139.5 -169.5q-123 -117 -161.5 -167t-38.5 -95q0 -29 18.5 -45.5t46.5 -16.5q76 0 125 119h412q-57 -174 -217 -291.5t-367 -117.5q-201 0 -316.5 81t-115.5 214zM403 735l78 371h430 l-75 -371h-433z" />
<glyph unicode="&#xc0;" horiz-adv-x="1515" d="M-88 0l854 1475h442l232 -1475h-443l-26 322h-457l-162 -322h-440zM655 604h295l-39 500zM735 1901h385l152 -316h-275z" />
<glyph unicode="&#xc1;" horiz-adv-x="1515" d="M-88 0l854 1475h442l232 -1475h-443l-26 322h-457l-162 -322h-440zM655 604h295l-39 500zM723 1585l289 316h409l-395 -316h-303z" />
<glyph unicode="&#xc2;" horiz-adv-x="1515" d="M-88 0l854 1475h442l232 -1475h-443l-26 322h-457l-162 -322h-440zM565 1597l348 316h314l213 -316h-359l-47 117l-96 -117h-373zM655 604h295l-39 500z" />
<glyph unicode="&#xc3;" horiz-adv-x="1515" d="M-88 0l854 1475h442l232 -1475h-443l-26 322h-457l-162 -322h-440zM655 604h295l-39 500zM680 1597l53 256q113 59 209 60q61 0 139 -38t123 -38q59 0 195 68l-56 -256q-109 -57 -200 -58q-63 0 -141 37t-121 37q-68 0 -201 -68z" />
<glyph unicode="&#xc4;" horiz-adv-x="1515" d="M-88 0l854 1475h442l232 -1475h-443l-26 322h-457l-162 -322h-440zM584 1599l63 295h352l-63 -295h-352zM655 604h295l-39 500zM1071 1599l64 295h354l-64 -295h-354z" />
<glyph unicode="&#xc5;" horiz-adv-x="1515" d="M-88 0l831 1436q-59 61 -59 159q0 129 91 214t259 85q145 0 225 -72.5t80 -179.5q0 -156 -120 -235l221 -1407h-441l-26 322h-457l-164 -322h-440zM657 604h295l-41 500zM938 1608q0 -74 66 -74q82 0 81 100q0 72 -67 72q-35 0 -57.5 -25.5t-22.5 -72.5z" />
<glyph unicode="&#xc6;" horiz-adv-x="2052" d="M-100 0l1034 1475h1278l-64 -304h-567l-61 -286h508l-62 -283h-508l-63 -303h567l-64 -299h-995l70 322h-414l-217 -322h-442zM748 604h284l129 613z" />
<glyph unicode="&#xc7;" horiz-adv-x="1558" d="M119 582q0 129 26.5 252.5t90 247.5t160 216.5t249 149.5t342.5 57q270 0 445.5 -138t175.5 -382v-20h-426q0 127 -59.5 187t-159.5 60q-102 0 -184.5 -63.5t-127.5 -162.5t-67.5 -206.5t-22.5 -210.5q0 -154 61.5 -230.5t161.5 -76.5q119 0 195 73t123 230h432 q-96 -289 -276.5 -435t-458.5 -159l-6 -43q80 -20 121.5 -70.5t41.5 -119.5q0 -131 -100 -209t-264 -78q-152 0 -243 67.5t-91 180.5v18h260q0 -31 22.5 -53t67.5 -22q86 0 86 71q0 82 -180 82l57 191q-217 45 -334.5 201.5t-117.5 394.5z" />
<glyph unicode="&#xc8;" horiz-adv-x="1257" d="M35 0l313 1475h1069l-65 -304h-639l-62 -286h580l-60 -283h-581l-64 -303h639l-61 -299h-1069zM602 1901h385l152 -316h-275z" />
<glyph unicode="&#xc9;" horiz-adv-x="1257" d="M35 0l313 1475h1069l-65 -304h-639l-62 -286h580l-60 -283h-581l-64 -303h639l-61 -299h-1069zM696 1585l289 316h410l-396 -316h-303z" />
<glyph unicode="&#xca;" horiz-adv-x="1257" d="M35 0l313 1475h1069l-65 -304h-639l-62 -286h580l-60 -283h-581l-64 -303h639l-61 -299h-1069zM477 1597l348 316h314l213 -316h-359l-47 117l-96 -117h-373z" />
<glyph unicode="&#xcb;" horiz-adv-x="1257" d="M35 0l313 1475h1069l-65 -304h-639l-62 -286h580l-60 -283h-581l-64 -303h639l-61 -299h-1069zM494 1599l63 295h352l-63 -295h-352zM981 1599l63 295h355l-64 -295h-354z" />
<glyph unicode="&#xcc;" horiz-adv-x="661" d="M35 0l313 1475h428l-313 -1475h-428zM336 1901h385l151 -316h-274z" />
<glyph unicode="&#xcd;" horiz-adv-x="661" d="M35 0l313 1475h428l-313 -1475h-428zM303 1585l289 316h409l-395 -316h-303z" />
<glyph unicode="&#xce;" horiz-adv-x="661" d="M35 0l313 1475h428l-313 -1475h-428zM152 1597l348 316h313l213 -316h-358l-47 117l-97 -117h-372z" />
<glyph unicode="&#xcf;" horiz-adv-x="661" d="M35 0l313 1475h428l-313 -1475h-428zM170 1599l63 295h353l-64 -295h-352zM657 1599l64 295h354l-63 -295h-355z" />
<glyph unicode="&#xd0;" horiz-adv-x="1546" d="M37 0l133 631h-111l62 291h110l119 553h545q322 0 502 -147.5t180 -422.5q0 -121 -20.5 -234.5t-81 -239.5t-156.5 -218t-262 -152.5t-383 -60.5h-637zM526 293h164q102 0 184 42t130.5 105.5t81 145.5t44 153.5t11.5 139.5q0 150 -77 227.5t-212 77.5h-135l-58 -262h199 l-61 -291h-199z" />
<glyph unicode="&#xd1;" horiz-adv-x="1531" d="M35 0l313 1475h445l303 -873l186 873h365l-314 -1475h-418l-323 918l-193 -918h-364zM702 1597l54 256q113 59 209 60q63 0 141 -38t121 -38q59 0 194 68l-55 -256q-109 -57 -201 -58q-63 0 -141 37t-121 37q-68 0 -201 -68z" />
<glyph unicode="&#xd2;" horiz-adv-x="1638" d="M117 586q0 115 22.5 229.5t84 242.5t155.5 224t254 159.5t362 63.5q129 0 246 -36.5t214 -108.5t154.5 -194t57.5 -275q0 -117 -23.5 -234.5t-86 -244.5t-157.5 -222.5t-254 -158t-360 -62.5q-131 0 -248.5 37t-213 110.5t-151.5 194.5t-56 275zM553 586q0 -160 79 -238 t189 -78q88 0 161 43t118 109.5t76.5 151.5t45 163t13.5 150q0 162 -78 240.5t-188 78.5q-113 0 -199 -67.5t-130 -170t-65.5 -200.5t-21.5 -182zM750 1901h385l151 -316h-274z" />
<glyph unicode="&#xd3;" horiz-adv-x="1638" d="M117 586q0 115 22.5 229.5t84 242.5t155.5 224t254 159.5t362 63.5q129 0 246 -36.5t214 -108.5t154.5 -194t57.5 -275q0 -117 -23.5 -234.5t-86 -244.5t-157.5 -222.5t-254 -158t-360 -62.5q-131 0 -248.5 37t-213 110.5t-151.5 194.5t-56 275zM553 586q0 -160 79 -238 t189 -78q88 0 161 43t118 109.5t76.5 151.5t45 163t13.5 150q0 162 -78 240.5t-188 78.5q-113 0 -199 -67.5t-130 -170t-65.5 -200.5t-21.5 -182zM846 1585l289 316h409l-395 -316h-303z" />
<glyph unicode="&#xd4;" horiz-adv-x="1638" d="M117 586q0 115 22.5 229.5t84 242.5t155.5 224t254 159.5t362 63.5q129 0 246 -36.5t214 -108.5t154.5 -194t57.5 -275q0 -117 -23.5 -234.5t-86 -244.5t-157.5 -222.5t-254 -158t-360 -62.5q-131 0 -248.5 37t-213 110.5t-151.5 194.5t-56 275zM553 586q0 -160 79 -238 t189 -78q88 0 161 43t118 109.5t76.5 151.5t45 163t13.5 150q0 162 -78 240.5t-188 78.5q-113 0 -199 -67.5t-130 -170t-65.5 -200.5t-21.5 -182zM618 1597l349 316h313l213 -316h-358l-48 117l-96 -117h-373z" />
<glyph unicode="&#xd5;" horiz-adv-x="1638" d="M117 586q0 115 22.5 229.5t84 242.5t155.5 224t254 159.5t362 63.5q129 0 246 -36.5t214 -108.5t154.5 -194t57.5 -275q0 -117 -23.5 -234.5t-86 -244.5t-157.5 -222.5t-254 -158t-360 -62.5q-131 0 -248.5 37t-213 110.5t-151.5 194.5t-56 275zM553 586q0 -160 79 -238 t189 -78q88 0 161 43t118 109.5t76.5 151.5t45 163t13.5 150q0 162 -78 240.5t-188 78.5q-113 0 -199 -67.5t-130 -170t-65.5 -200.5t-21.5 -182zM737 1597l54 256q113 59 208 60q61 0 139.5 -38t123.5 -38q59 0 194 68l-55 -256q-109 -57 -201 -58q-63 0 -141 37t-121 37 q-68 0 -201 -68z" />
<glyph unicode="&#xd6;" horiz-adv-x="1638" d="M117 586q0 115 22.5 229.5t84 242.5t155.5 224t254 159.5t362 63.5q129 0 246 -36.5t214 -108.5t154.5 -194t57.5 -275q0 -117 -23.5 -234.5t-86 -244.5t-157.5 -222.5t-254 -158t-360 -62.5q-131 0 -248.5 37t-213 110.5t-151.5 194.5t-56 275zM553 586q0 -160 79 -238 t189 -78q88 0 161 43t118 109.5t76.5 151.5t45 163t13.5 150q0 162 -78 240.5t-188 78.5q-113 0 -199 -67.5t-130 -170t-65.5 -200.5t-21.5 -182zM653 1599l64 295h352l-63 -295h-353zM1141 1599l63 295h355l-64 -295h-354z" />
<glyph unicode="&#xd7;" d="M205 442l266 220l-174 219l246 202l172 -219l266 219l166 -209l-266 -219l174 -221l-246 -203l-174 220l-266 -220z" />
<glyph unicode="&#xd8;" horiz-adv-x="1638" d="M100 -225l230 338q-213 168 -213 473q0 115 22.5 229.5t84 242.5t155.5 224t254 159.5t362 63.5q133 0 252 -39l146 213h303l-228 -333q199 -168 199 -455q0 -117 -23.5 -234.5t-86 -244.5t-157.5 -222.5t-254 -158t-360 -62.5q-121 0 -231 31l-149 -225h-306zM553 586 q0 -84 31 -146l487 744q-45 23 -102 22q-113 0 -199 -67.5t-130 -170t-65.5 -200.5t-21.5 -182zM721 289q49 -18 100 -19q88 0 161 43t118 109.5t76.5 151.5t45 163t13.5 150q0 76 -29 139z" />
<glyph unicode="&#xd9;" horiz-adv-x="1517" d="M117 403q0 51 12 111l205 961h430l-211 -988q-8 -37 -8 -53q0 -80 54 -124t149 -44q221 0 268 213l211 996h415l-206 -971q-115 -535 -717 -535q-281 0 -441.5 116.5t-160.5 317.5zM641 1901h385l152 -316h-275z" />
<glyph unicode="&#xda;" horiz-adv-x="1517" d="M117 403q0 51 12 111l205 961h430l-211 -988q-8 -37 -8 -53q0 -80 54 -124t149 -44q221 0 268 213l211 996h415l-206 -971q-115 -535 -717 -535q-281 0 -441.5 116.5t-160.5 317.5zM840 1585l288 316h410l-395 -316h-303z" />
<glyph unicode="&#xdb;" horiz-adv-x="1517" d="M117 403q0 51 12 111l205 961h430l-211 -988q-8 -37 -8 -53q0 -80 54 -124t149 -44q221 0 268 213l211 996h415l-206 -971q-115 -535 -717 -535q-281 0 -441.5 116.5t-160.5 317.5zM573 1597l349 316h313l213 -316h-358l-48 117l-96 -117h-373z" />
<glyph unicode="&#xdc;" horiz-adv-x="1517" d="M117 403q0 51 12 111l205 961h430l-211 -988q-8 -37 -8 -53q0 -80 54 -124t149 -44q221 0 268 213l211 996h415l-206 -971q-115 -535 -717 -535q-281 0 -441.5 116.5t-160.5 317.5zM592 1599l63 295h353l-64 -295h-352zM1079 1599l64 295h354l-63 -295h-355z" />
<glyph unicode="&#xdd;" horiz-adv-x="1482" d="M231 1475h449l168 -562l432 562h434l-725 -885l-125 -590h-409l125 590zM827 1585l289 316h410l-396 -316h-303z" />
<glyph unicode="&#xde;" horiz-adv-x="1359" d="M35 0l313 1475h426l-47 -222h74q299 0 446.5 -108.5t147.5 -306.5q0 -590 -758 -590h-123l-53 -248h-426zM575 537h72q309 0 309 258q0 84 -54 127t-154 43h-82z" />
<glyph unicode="&#xdf;" horiz-adv-x="1359" d="M12 0l224 1057q51 236 173.5 342t389.5 106q217 0 346 -84t129 -219q0 -63 -23.5 -114.5t-56.5 -84t-65.5 -61.5t-56 -61.5t-23.5 -67.5q0 -68 86 -121q199 -125 198.5 -297t-115 -299t-348.5 -127q-201 0 -298 91.5t-97 250.5h340q-2 -12 -2 -32q0 -74 66 -74 q37 0 61.5 37t24.5 100q0 98 -125 168q-154 86 -154 209q0 70 33 129t72.5 95t72.5 87t33 105q0 43 -30.5 68.5t-80.5 25.5q-68 0 -102.5 -48t-62.5 -175l-64 -293l-221 -713h-324z" />
<glyph unicode="&#xe0;" horiz-adv-x="1189" d="M18 236q0 166 120 262t407 143l229 37l6 29q4 16 4 38q0 92 -102 93q-109 0 -145 -105h-396q154 362 590 363q213 0 330 -89t117 -247q0 -57 -11 -101l-139 -659h-307l-25 119q-57 -63 -154.5 -106.5t-211.5 -43.5q-147 0 -229.5 71t-82.5 196zM420 305q0 -78 92 -78 q68 0 124 43t75 115l20 90q-195 -35 -253 -66.5t-58 -103.5zM461 1499h385l151 -315h-274z" />
<glyph unicode="&#xe1;" horiz-adv-x="1189" d="M18 236q0 166 120 262t407 143l229 37l6 29q4 16 4 38q0 92 -102 93q-109 0 -145 -105h-396q154 362 590 363q213 0 330 -89t117 -247q0 -57 -11 -101l-139 -659h-307l-25 119q-57 -63 -154.5 -106.5t-211.5 -43.5q-147 0 -229.5 71t-82.5 196zM420 305q0 -78 92 -78 q68 0 124 43t75 115l20 90q-195 -35 -253 -66.5t-58 -103.5zM594 1184l289 315h409l-395 -315h-303z" />
<glyph unicode="&#xe2;" horiz-adv-x="1189" d="M18 236q0 166 120 262t407 143l229 37l6 29q4 16 4 38q0 92 -102 93q-109 0 -145 -105h-396q154 362 590 363q213 0 330 -89t117 -247q0 -57 -11 -101l-139 -659h-307l-25 119q-57 -63 -154.5 -106.5t-211.5 -43.5q-147 0 -229.5 71t-82.5 196zM332 1196l348 315h313 l213 -315h-358l-47 117l-96 -117h-373zM420 305q0 -78 92 -78q68 0 124 43t75 115l20 90q-195 -35 -253 -66.5t-58 -103.5z" />
<glyph unicode="&#xe3;" horiz-adv-x="1189" d="M18 236q0 166 120 262t407 143l229 37l6 29q4 16 4 38q0 92 -102 93q-109 0 -145 -105h-396q154 362 590 363q213 0 330 -89t117 -247q0 -57 -11 -101l-139 -659h-307l-25 119q-57 -63 -154.5 -106.5t-211.5 -43.5q-147 0 -229.5 71t-82.5 196zM420 305q0 -78 92 -78 q68 0 124 43t75 115l20 90q-195 -35 -253 -66.5t-58 -103.5zM440 1196l54 256q113 59 208 59q63 0 141.5 -37.5t121.5 -37.5q59 0 194 67l-55 -256q-109 -57 -201 -57q-63 0 -141 37t-121 37q-68 0 -201 -68z" />
<glyph unicode="&#xe4;" horiz-adv-x="1189" d="M18 236q0 166 120 262t407 143l229 37l6 29q4 16 4 38q0 92 -102 93q-109 0 -145 -105h-396q154 362 590 363q213 0 330 -89t117 -247q0 -57 -11 -101l-139 -659h-307l-25 119q-57 -63 -154.5 -106.5t-211.5 -43.5q-147 0 -229.5 71t-82.5 196zM336 1198l63 295h353 l-64 -295h-352zM420 305q0 -78 92 -78q68 0 124 43t75 115l20 90q-195 -35 -253 -66.5t-58 -103.5zM823 1198l64 295h354l-63 -295h-355z" />
<glyph unicode="&#xe5;" horiz-adv-x="1189" d="M18 236q0 166 120 262t407 143l229 37l6 29q4 16 4 38q0 92 -102 93q-109 0 -145 -105h-396q154 362 590 363q213 0 330 -89t117 -247q0 -57 -11 -101l-139 -659h-307l-25 119q-57 -63 -154.5 -106.5t-211.5 -43.5q-147 0 -229.5 71t-82.5 196zM420 305q0 -78 92 -78 q68 0 124 43t75 115l20 90q-195 -35 -253 -66.5t-58 -103.5zM487 1421q0 129 91.5 214t257.5 85q147 0 227 -72.5t80 -181.5q0 -129 -91 -213t-259 -84q-147 0 -226.5 71.5t-79.5 180.5zM741 1434q0 -76 66 -76q80 0 80 100q0 72 -66 72q-35 0 -57.5 -25.5t-22.5 -70.5z" />
<glyph unicode="&#xe6;" horiz-adv-x="1923" d="M18 233q0 166 120 263.5t407 144.5l229 37l8 37q4 20 4 30q0 92 -102 93q-113 0 -145 -105h-398q156 362 592 363q195 0 322 -97q154 96 334 97q229 0 368 -124t139 -349q0 -84 -18 -177h-752q-2 -12 -2 -36q0 -172 164 -172q117 0 156 100h403q-168 -369 -616 -369 q-143 0 -254 55.5t-174 153.5q-172 -209 -457 -209q-158 0 -243 70.5t-85 193.5zM420 305q0 -35 23.5 -56.5t66.5 -21.5q76 0 132 47.5t71 114.5l18 86q-193 -33 -252 -65.5t-59 -104.5zM1176 653h342q4 18 4 45q0 147 -146 148q-137 0 -200 -193z" />
<glyph unicode="&#xe7;" horiz-adv-x="1241" d="M70 406q0 94 20.5 185t70.5 184t124.5 163t193.5 114t269 44q225 0 361 -111t140 -295h-407v17q0 55 -34 83.5t-85 28.5q-68 0 -120 -44t-76.5 -111.5t-37 -131t-12.5 -118.5q0 -86 39 -133.5t90 -47.5q119 0 176 166h408q-72 -180 -208 -292.5t-339 -131.5l-6 -47 q80 -18 122 -69.5t42 -118.5q0 -131 -100.5 -209t-264.5 -78q-152 0 -243 67.5t-91 180.5v18h260q0 -33 22 -55t67 -22q88 0 88 73q0 80 -181 80l58 191q-170 31 -258 140.5t-88 279.5z" />
<glyph unicode="&#xe8;" horiz-adv-x="1267" d="M76 436q0 123 41 237.5t118.5 210t206.5 154t291 58.5q229 0 368.5 -124t139.5 -349q0 -86 -20 -177h-750q-2 -12 -2 -36q0 -170 164 -170q117 0 155 98h402q-74 -168 -225.5 -268.5t-378.5 -100.5q-231 0 -370.5 128t-139.5 339zM449 1499h385l151 -315h-274zM516 655 h342q4 18 4 52q0 141 -143 141q-137 0 -203 -193z" />
<glyph unicode="&#xe9;" horiz-adv-x="1267" d="M76 436q0 123 41 237.5t118.5 210t206.5 154t291 58.5q229 0 368.5 -124t139.5 -349q0 -86 -20 -177h-750q-2 -12 -2 -36q0 -170 164 -170q117 0 155 98h402q-74 -168 -225.5 -268.5t-378.5 -100.5q-231 0 -370.5 128t-139.5 339zM516 655h342q4 18 4 52q0 141 -143 141 q-137 0 -203 -193zM580 1184l288 315h410l-395 -315h-303z" />
<glyph unicode="&#xea;" horiz-adv-x="1267" d="M76 436q0 123 41 237.5t118.5 210t206.5 154t291 58.5q229 0 368.5 -124t139.5 -349q0 -86 -20 -177h-750q-2 -12 -2 -36q0 -170 164 -170q117 0 155 98h402q-74 -168 -225.5 -268.5t-378.5 -100.5q-231 0 -370.5 128t-139.5 339zM350 1196l348 315h314l213 -315h-359 l-47 117l-96 -117h-373zM516 655h342q4 18 4 52q0 141 -143 141q-137 0 -203 -193z" />
<glyph unicode="&#xeb;" horiz-adv-x="1267" d="M76 436q0 123 41 237.5t118.5 210t206.5 154t291 58.5q229 0 368.5 -124t139.5 -349q0 -86 -20 -177h-750q-2 -12 -2 -36q0 -170 164 -170q117 0 155 98h402q-74 -168 -225.5 -268.5t-378.5 -100.5q-231 0 -370.5 128t-139.5 339zM369 1198l63 295h352l-63 -295h-352z M516 655h342q4 18 4 52q0 141 -143 141q-137 0 -203 -193zM856 1198l64 295h354l-64 -295h-354z" />
<glyph unicode="&#xec;" horiz-adv-x="604" d="M23 0l225 1065h395l-225 -1065h-395zM203 1499h385l151 -315h-274z" />
<glyph unicode="&#xed;" horiz-adv-x="604" d="M23 0l225 1065h395l-225 -1065h-395zM190 1184l289 315h410l-395 -315h-304z" />
<glyph unicode="&#xee;" horiz-adv-x="604" d="M23 0l225 1065h395l-225 -1065h-395zM37 1196l348 315h313l213 -315h-358l-47 117l-96 -117h-373z" />
<glyph unicode="&#xef;" horiz-adv-x="604" d="M23 0l225 1065h395l-225 -1065h-395zM53 1198l64 295h352l-63 -295h-353zM541 1198l63 295h354l-63 -295h-354z" />
<glyph unicode="&#xf0;" horiz-adv-x="1206" d="M66 412q0 258 157.5 418.5t403.5 160.5q49 0 105 -16.5t79 -40.5q-16 94 -57 153l-35 -28h-309l184 153q-78 39 -195 66l58 264q229 -23 399 -110l51 43h310l-195 -162q203 -190 203 -504q0 -109 -20.5 -219.5t-72 -224t-126 -199.5t-193.5 -141.5t-264 -55.5 q-213 0 -348 118t-135 325zM477 389q0 -152 107 -151q82 0 135 106.5t53 210.5q0 170 -106 170q-66 0 -111 -59.5t-61.5 -132t-16.5 -144.5z" />
<glyph unicode="&#xf1;" horiz-adv-x="1243" d="M12 0l226 1065h335l7 -119q70 70 162 110t178 40q150 0 232.5 -80t82.5 -225q0 -68 -14 -132l-142 -659h-397l141 659q8 37 8 62q0 49 -28.5 75.5t-73.5 26.5q-72 0 -122 -53t-66 -139l-133 -631h-396zM475 1196l53 256q113 59 209 59q61 0 139 -37.5t123 -37.5 q59 0 195 67l-55 -256q-109 -57 -201 -57q-63 0 -141 37t-121 37q-68 0 -201 -68z" />
<glyph unicode="&#xf2;" horiz-adv-x="1288" d="M74 426q0 88 17.5 173t63.5 177t118.5 162t192.5 114t273 44q242 0 389.5 -118t147.5 -333q0 -133 -39 -251t-118 -215t-211 -153.5t-304 -56.5q-238 0 -384 119t-146 338zM471 1499h385l152 -315h-275zM479 414q0 -182 158 -183q70 0 121 49.5t73.5 124t32.5 138 t10 119.5q0 172 -155 172q-72 0 -123 -48.5t-73.5 -122t-33 -135t-10.5 -114.5z" />
<glyph unicode="&#xf3;" horiz-adv-x="1288" d="M74 426q0 88 17.5 173t63.5 177t118.5 162t192.5 114t273 44q242 0 389.5 -118t147.5 -333q0 -133 -39 -251t-118 -215t-211 -153.5t-304 -56.5q-238 0 -384 119t-146 338zM479 414q0 -182 158 -183q70 0 121 49.5t73.5 124t32.5 138t10 119.5q0 172 -155 172 q-72 0 -123 -48.5t-73.5 -122t-33 -135t-10.5 -114.5zM588 1184l289 315h409l-395 -315h-303z" />
<glyph unicode="&#xf4;" horiz-adv-x="1288" d="M74 426q0 88 17.5 173t63.5 177t118.5 162t192.5 114t273 44q242 0 389.5 -118t147.5 -333q0 -133 -39 -251t-118 -215t-211 -153.5t-304 -56.5q-238 0 -384 119t-146 338zM350 1196l348 315h314l213 -315h-359l-47 117l-96 -117h-373zM479 414q0 -182 158 -183 q70 0 121 49.5t73.5 124t32.5 138t10 119.5q0 172 -155 172q-72 0 -123 -48.5t-73.5 -122t-33 -135t-10.5 -114.5z" />
<glyph unicode="&#xf5;" horiz-adv-x="1288" d="M74 426q0 88 17.5 173t63.5 177t118.5 162t192.5 114t273 44q242 0 389.5 -118t147.5 -333q0 -133 -39 -251t-118 -215t-211 -153.5t-304 -56.5q-238 0 -384 119t-146 338zM473 1196l53 256q113 59 209 59q63 0 141 -37.5t121 -37.5q59 0 195 67l-55 -256 q-109 -57 -201 -57q-63 0 -141 37t-121 37q-68 0 -201 -68zM479 414q0 -182 158 -183q70 0 121 49.5t73.5 124t32.5 138t10 119.5q0 172 -155 172q-72 0 -123 -48.5t-73.5 -122t-33 -135t-10.5 -114.5z" />
<glyph unicode="&#xf6;" horiz-adv-x="1288" d="M74 426q0 88 17.5 173t63.5 177t118.5 162t192.5 114t273 44q242 0 389.5 -118t147.5 -333q0 -133 -39 -251t-118 -215t-211 -153.5t-304 -56.5q-238 0 -384 119t-146 338zM367 1198l63 295h352l-63 -295h-352zM479 414q0 -182 158 -183q70 0 121 49.5t73.5 124t32.5 138 t10 119.5q0 172 -155 172q-72 0 -123 -48.5t-73.5 -122t-33 -135t-10.5 -114.5zM854 1198l64 295h354l-64 -295h-354z" />
<glyph unicode="&#xf7;" d="M178 512l60 287h927l-61 -287h-926zM371 123l69 323h375l-70 -323h-374zM528 864l68 324h375l-70 -324h-373z" />
<glyph unicode="&#xf8;" horiz-adv-x="1288" d="M-8 -225l225 313q-145 125 -145 336q0 88 17 174t64.5 178t119 161t192.5 114t274 45q96 0 187 -23l153 217h277l-226 -317q143 -119 144 -328q0 -133 -39 -251t-117 -215t-211 -153.5t-303 -56.5q-94 0 -178 23l-152 -217h-282zM479 457q0 -55 4 -78l310 440 q-35 12 -74 12q-66 0 -116 -40.5t-75.5 -102t-37 -121t-11.5 -110.5zM563 244q31 -12 74 -13q68 0 118 48.5t73.5 120t34.5 132t11 103.5q0 45 -2 57z" />
<glyph unicode="&#xf9;" d="M68 270q0 57 16 136l139 659h395l-137 -653q-10 -51 -10 -68q0 -47 26.5 -74.5t73.5 -27.5q68 0 115 53t66 141l133 629h393l-225 -1065h-334l-8 109q-143 -139 -332 -140q-150 0 -230.5 79t-80.5 222zM397 1499h385l152 -315h-275z" />
<glyph unicode="&#xfa;" d="M68 270q0 57 16 136l139 659h395l-137 -653q-10 -51 -10 -68q0 -47 26.5 -74.5t73.5 -27.5q68 0 115 53t66 141l133 629h393l-225 -1065h-334l-8 109q-143 -139 -332 -140q-150 0 -230.5 79t-80.5 222zM612 1184l289 315h410l-396 -315h-303z" />
<glyph unicode="&#xfb;" d="M68 270q0 57 16 136l139 659h395l-137 -653q-10 -51 -10 -68q0 -47 26.5 -74.5t73.5 -27.5q68 0 115 53t66 141l133 629h393l-225 -1065h-334l-8 109q-143 -139 -332 -140q-150 0 -230.5 79t-80.5 222zM336 1196l348 315h313l213 -315h-358l-47 117l-96 -117h-373z" />
<glyph unicode="&#xfc;" d="M68 270q0 57 16 136l139 659h395l-137 -653q-10 -51 -10 -68q0 -47 26.5 -74.5t73.5 -27.5q68 0 115 53t66 141l133 629h393l-225 -1065h-334l-8 109q-143 -139 -332 -140q-150 0 -230.5 79t-80.5 222zM358 1198l64 295h352l-63 -295h-353zM846 1198l63 295h355l-64 -295 h-354z" />
<glyph unicode="&#xfd;" horiz-adv-x="1216" d="M39 -367l57 267q92 -29 146 -29q45 0 76.5 27.5t68.5 101.5h-74l-170 1065h410l27 -782l370 782h412l-614 -1079q-129 -223 -231.5 -304t-258.5 -81q-106 -1 -219 32zM627 1184l288 315h410l-395 -315h-303z" />
<glyph unicode="&#xfe;" horiz-adv-x="1312" d="M-68 -369l394 1844h397l-111 -519q143 139 328 140q170 0 269.5 -106.5t99.5 -295.5q0 -125 -35 -247.5t-104.5 -232.5t-188.5 -177.5t-268 -67.5q-182 0 -283 121l-98 -459h-400zM502 430q0 -178 151 -178q70 0 122 42t79 106.5t39 123t12 107.5q0 90 -41 136t-108.5 46 t-120.5 -41t-80 -103.5t-40 -124t-13 -114.5z" />
<glyph unicode="&#xff;" horiz-adv-x="1216" d="M39 -367l57 267q92 -29 146 -29q45 0 76.5 27.5t68.5 101.5h-74l-170 1065h410l27 -782l370 782h412l-614 -1079q-129 -223 -231.5 -304t-258.5 -81q-106 -1 -219 32zM360 1198l64 295h352l-63 -295h-353zM848 1198l63 295h355l-64 -295h-354z" />
<glyph unicode="&#x152;" horiz-adv-x="2011" d="M115 565q0 145 32.5 280.5t105.5 256.5t177.5 210t257 141t338.5 52q137 0 254 -30h891l-66 -304h-575l-62 -286h517l-62 -285h-514l-66 -301h576l-61 -299h-900q-123 -31 -235 -31q-262 0 -435 151.5t-173 444.5zM549 569q0 -152 68.5 -225.5t177.5 -73.5q61 0 120 23 l187 887q-45 25 -119 24q-117 0 -206 -63.5t-136 -163.5t-69.5 -204t-22.5 -204z" />
<glyph unicode="&#x153;" horiz-adv-x="2048" d="M72 432q0 270 177 467t494 197q227 0 377 -133q174 133 396 133q229 0 367 -123t138 -350q0 -70 -20 -177h-752q-2 -12 -2 -36q0 -172 164 -172q115 0 158 100h401q-76 -168 -228.5 -268.5t-377.5 -100.5q-217 0 -358 131q-166 -131 -408 -131q-236 0 -381 123t-145 340z M477 428q0 -197 146 -197q111 0 181 114t70 314q0 172 -147 172q-72 0 -124 -41.5t-77.5 -107.5t-37 -129.5t-11.5 -124.5zM1294 653h344q4 37 4 52q0 70 -38.5 105.5t-108.5 35.5q-138 0 -201 -193z" />
<glyph unicode="&#x178;" horiz-adv-x="1482" d="M231 1475h449l168 -562l432 562h434l-725 -885l-125 -590h-409l125 590zM586 1599l63 295h352l-63 -295h-352zM1073 1599l64 295h354l-64 -295h-354z" />
<glyph unicode="&#x2c6;" horiz-adv-x="997" d="M231 1196l349 315h313l213 -315h-358l-48 117l-96 -117h-373z" />
<glyph unicode="&#x2dc;" horiz-adv-x="776" d="M233 1196l54 256q113 59 209 59q61 0 139 -37.5t123 -37.5q59 0 194 67l-55 -256q-109 -57 -201 -57q-63 0 -141 37t-121 37q-68 0 -201 -68z" />
<glyph unicode="&#x2013;" horiz-adv-x="921" d="M63 512l60 287h850l-62 -287h-848z" />
<glyph unicode="&#x2014;" horiz-adv-x="1312" d="M63 512l60 287h1241l-61 -287h-1240z" />
<glyph unicode="&#x2018;" horiz-adv-x="552" d="M125 743l63 301q84 397 564 431l-41 -183q-184 -23 -217 -178h143l-80 -371h-432z" />
<glyph unicode="&#x2019;" horiz-adv-x="552" d="M109 743l38 181q184 23 218 180h-142l78 371h432l-69 -326q-45 -203 -182 -296.5t-373 -109.5z" />
<glyph unicode="&#x201a;" horiz-adv-x="552" d="M-125 -360l37 180q186 23 219 180h-143l78 371h432l-70 -326q-45 -203 -181 -296t-372 -109z" />
<glyph unicode="&#x201c;" horiz-adv-x="1091" d="M139 743l70 326q45 203 181 296t376 110l-41 -183q-184 -23 -217 -178h143l-80 -371h-432zM664 743l69 326q43 203 180.5 296t376.5 110l-41 -183q-184 -23 -217 -178h144l-80 -371h-432z" />
<glyph unicode="&#x201d;" horiz-adv-x="1091" d="M109 743l38 181q184 23 218 180h-142l78 371h432l-69 -326q-43 -203 -180 -296.5t-375 -109.5zM633 743l39 181q184 23 217 180h-141l77 371h432l-69 -326q-45 -203 -182 -296.5t-373 -109.5z" />
<glyph unicode="&#x201e;" horiz-adv-x="1077" d="M-125 -360l37 180q186 23 219 180h-143l78 371h432l-70 -326q-45 -203 -181 -296t-372 -109zM397 -360l39 180q186 23 219 180h-143l78 371h432l-70 -326q-43 -203 -180 -296t-375 -109z" />
<glyph unicode="&#x2022;" horiz-adv-x="686" d="M76 403l102 488h527l-105 -488h-524z" />
<glyph unicode="&#x2026;" horiz-adv-x="1861" d="M12 0l78 371h432l-78 -371h-432zM633 0l78 371h432l-78 -371h-432zM1253 0l78 371h432l-77 -371h-433z" />
<glyph unicode="&#x2039;" horiz-adv-x="700" d="M115 641l356 424h307l-284 -434l71 -455h-286z" />
<glyph unicode="&#x203a;" horiz-adv-x="700" d="M43 176l268 455l-102 434h291l192 -424l-344 -465h-305z" />
<glyph unicode="&#x20ac;" d="M2 473l90 209h55q4 35 17 86h-98l90 209h67q176 487 658 487q219 0 359 -108.5t140 -284.5v-24h-379q-2 63 -44 93.5t-103 30.5q-147 0 -231 -194h362l-90 -209h-338q-8 -29 -16 -86h321l-90 -209h-244q14 -211 170 -211q113 0 170 123h379q-72 -199 -222.5 -307.5 t-371.5 -108.5q-205 0 -351 128t-163 376h-137z" />
<glyph unicode="&#x2122;" horiz-adv-x="1748" d="M205 1249v226h1009l125 -408l117 408h363v-822h-267v363l-112 -363h-209l-113 363v-363h-262v596h-141v-596h-277v596h-233z" />
<glyph unicode="&#xe000;" horiz-adv-x="1065" d="M0 1065h1065v-1065h-1065v1065z" />
<glyph unicode="&#xfb01;" horiz-adv-x="1292" d="M86 0l168 797h-156l58 268h155l13 65q39 209 150.5 292t334.5 83q188 0 360 -43l-57 -276q-145 33 -250 33q-72 0 -104.5 -26t-42.5 -83l-8 -45h634l-225 -1065h-397l168 797h-238l-168 -797h-395z" />
<glyph unicode="&#xfb02;" horiz-adv-x="1304" d="M86 0l170 797h-156l56 268h155l15 65q45 207 151.5 291t315.5 84q139 0 270 -30l379 18l-318 -1493h-397l254 1202q-78 16 -123 17q-125 0 -143 -109l-6 -45h139l-57 -268h-140l-170 -797h-395z" />
<glyph unicode="&#xfb03;" horiz-adv-x="1921" d="M86 0l168 797h-156l58 268h155l8 45q37 207 146.5 291t322.5 84q215 0 373 -55q123 76 301 75q160 0 344 -41l-57 -274q-143 29 -246 29q-84 0 -115.5 -35t-44.5 -119h627l-225 -1065h-387l168 797h-240l-168 -797h-395l168 797h-242l-168 -797h-395zM707 1065h241 l27 117q-78 16 -135 16q-61 0 -89 -22.5t-38 -77.5z" />
<glyph unicode="&#xfb04;" horiz-adv-x="1941" d="M86 0l168 797h-156l58 268h155l8 45q37 207 146.5 291t322.5 84q209 0 365 -53q115 74 301 73q127 0 248 -28l377 16l-318 -1493h-397q172 803 256 1206q-74 12 -127 13q-78 0 -102.5 -31t-47.5 -123h148l-55 -268h-150l-168 -797h-395l168 797h-242l-168 -797h-395z M707 1065h241l27 117q-78 16 -135 16q-61 0 -89 -22.5t-38 -77.5z" />
</font>
</defs>
</svg>
