<?xml version="1.0" standalone="no"?>
<!DOCTYPE svg PUBLIC "-//W3C//DTD SVG 1.1//EN" "http://www.w3.org/Graphics/SVG/1.1/DTD/svg11.dtd" >
<svg xmlns="http://www.w3.org/2000/svg">
<metadata>
This is a custom SVG webfont generated by Font Squirrel.
Copyright   : Copyright c 2010 by Ralph du Carrois Erik Spiekermann  Botio Nikoltchev All rights reserved
Designer    : Ralph du Carrois Erik Spiekermann  Botio Nikoltchev
Foundry     : Ralph du Carrois Erik Spiekermann  Botio Nikoltchev
Foundry URL : httpedenspiekermanncom
</metadata>
<defs>
<font id="CiscoSansThinOblique" horiz-adv-x="1228" >
<font-face units-per-em="2048" ascent="1618" descent="-430" />
<missing-glyph horiz-adv-x="614" />
<glyph unicode=" "  horiz-adv-x="614" />
<glyph unicode="&#x09;" horiz-adv-x="614" />
<glyph unicode="&#xa0;" horiz-adv-x="614" />
<glyph unicode="!" horiz-adv-x="512" d="M119 0l26 131h111l-27 -131h-110zM221 451l219 1024h80l-219 -1024h-80z" />
<glyph unicode="&#x22;" d="M383 1004l49 313l41 188h82l-41 -188l-80 -313h-51zM649 1004l49 313l41 188h82l-41 -188l-80 -313h-51z" />
<glyph unicode="#" d="M117 412l14 67h184l144 475h-185l15 68h190l123 412h74l-123 -412h444l123 412h74l-123 -412h180l-14 -68h-186l-144 -475h187l-15 -67h-192l-121 -412h-74l121 412h-444l-121 -412h-74l121 412h-178zM389 479h445l143 475h-445z" />
<glyph unicode="$" d="M78 371h76q0 -160 106.5 -240t292.5 -80q217 0 367.5 103.5t150.5 283.5q0 102 -90 175t-317 120q-371 76 -371 311q0 180 144.5 294t377.5 124l51 238h72l-51 -238q184 -8 298.5 -102t117.5 -250h-78q-6 133 -105.5 210t-269.5 77q-221 0 -350 -97.5t-129 -252.5 q0 -94 78.5 -155t277.5 -101q225 -49 323.5 -135.5t98.5 -211.5q0 -201 -159 -327.5t-419 -134.5l-53 -258h-72l56 260q-197 10 -310.5 109.5t-113.5 277.5z" />
<glyph unicode="%" horiz-adv-x="1687" d="M254 1069q0 188 105.5 291.5t254.5 103.5q131 0 216 -77.5t85 -221.5q0 -170 -98 -281.5t-266 -111.5q-131 0 -214 77t-83 220zM322 1069q0 -119 63.5 -178.5t167.5 -59.5q117 0 205 85t88 247q0 121 -64.5 181.5t-169.5 60.5q-133 0 -211.5 -95.5t-78.5 -240.5zM403 0 l938 1434h78l-938 -1434h-78zM911 266q0 188 105.5 292t255.5 104q131 0 216 -78t85 -222q0 -170 -98.5 -281.5t-266.5 -111.5q-131 0 -214 77t-83 220zM979 266q0 -119 63.5 -178t167.5 -59q117 0 205 85t88 246q0 121 -64.5 181.5t-168.5 60.5q-133 0 -212 -95.5 t-79 -240.5z" />
<glyph unicode="&#x26;" horiz-adv-x="1239" d="M47 266q0 86 27.5 154.5t89 126t128 100.5t173.5 101q-100 127 -142 201.5t-44 154.5q0 141 113.5 250.5t312.5 109.5q158 0 239.5 -74.5t81.5 -185.5q0 -127 -109.5 -237.5t-353.5 -237.5l357 -448q150 174 225 405l72 -10q-88 -258 -254 -449l172 -217l-58 -41 l-164 207q-211 -207 -471 -207q-190 0 -292.5 82t-102.5 215zM123 268q0 -111 85 -174t238 -63q227 0 424 200l-366 467q-96 -51 -156.5 -89t-117 -90t-82 -113.5t-25.5 -137.5zM350 1110q0 -68 40 -139.5t136 -192.5q223 119 326.5 216.5t103.5 207.5q0 84 -62.5 142.5 t-193.5 58.5q-160 0 -255 -87t-95 -206z" />
<glyph unicode="'" horiz-adv-x="552" d="M383 1004l49 313l41 188h82l-41 -188l-80 -313h-51z" />
<glyph unicode="(" horiz-adv-x="696" d="M203 315q0 215 54 424t145.5 380t184.5 301t197 239h70q-293 -354 -435.5 -666.5t-142.5 -687.5q0 -317 150 -653h-66q-157 288 -157 663z" />
<glyph unicode=")" horiz-adv-x="696" d="M-45 -348q293 354 435 666.5t142 687.5q0 317 -149 653h66q158 -289 157 -664q0 -215 -54 -424t-145.5 -380t-184.5 -301t-197 -238h-70z" />
<glyph unicode="*" horiz-adv-x="962" d="M293 1210l22 68l328 -123l-16 350h73l-16 -350l328 123l22 -68l-340 -94l219 -274l-57 -45l-192 290l-193 -290l-57 45l219 274z" />
<glyph unicode="+" d="M254 625l16 69h373l78 375h74l-78 -375h373l-17 -69h-373l-79 -375h-74l80 375h-373z" />
<glyph unicode="," horiz-adv-x="552" d="M8 -276l12 63q66 25 103 74t57 139h-37l27 131h115l-31 -145q-23 -113 -83.5 -173t-162.5 -89z" />
<glyph unicode="-" horiz-adv-x="1105" d="M254 625l16 69h697l-17 -69h-696z" />
<glyph unicode="." horiz-adv-x="569" d="M147 0l27 131h111l-27 -131h-111z" />
<glyph unicode="/" horiz-adv-x="696" d="M-27 -184l789 1689h76l-789 -1689h-76z" />
<glyph unicode="0" d="M166 430q0 102 19.5 227t69.5 270.5t123 263.5t191.5 195.5t264.5 77.5q168 0 267 -115.5t99 -344.5q0 -102 -19.5 -227.5t-69.5 -271t-123 -263t-191.5 -195.5t-264.5 -78q-168 0 -267 116t-99 345zM242 422q0 -193 76.5 -290t220.5 -97q125 0 229 74.5t167.5 187.5 t109 250t62.5 255t17 210q0 193 -76.5 290t-218.5 97q-125 0 -229 -75t-168.5 -187.5t-110 -249.5t-62.5 -255t-17 -210z" />
<glyph unicode="1" d="M489 1151l17 82l381 201h74l-304 -1434h-75l286 1350z" />
<glyph unicode="2" d="M78 0l14 70l684 579q117 98 181.5 167t109.5 157t45 182q0 115 -77 179.5t-214 64.5q-154 0 -271.5 -82t-164.5 -217h-80q63 172 203.5 268t320.5 96q158 0 258.5 -82t100.5 -221q0 -162 -92 -287.5t-299 -300.5l-598 -503h762l-15 -70h-868z" />
<glyph unicode="3" d="M102 313h76q0 -135 87 -206.5t251 -71.5q219 0 347 134t128 308q0 121 -77.5 185.5t-219.5 64.5h-159l14 68h151q188 0 295 115.5t107 254.5q0 111 -80 172.5t-217 61.5q-158 0 -273.5 -72t-173.5 -207h-79q63 162 204.5 253t327.5 91q166 0 266.5 -80.5t100.5 -216.5 q0 -150 -96.5 -262t-258.5 -143q111 -14 176.5 -90t65.5 -195q0 -207 -148.5 -357.5t-410.5 -150.5q-186 0 -295 90t-109 254z" />
<glyph unicode="4" d="M127 270l16 80l883 1084h92l-233 -1098h217l-12 -66h-218l-57 -270h-76l58 270h-670zM219 336h590l209 983z" />
<glyph unicode="5" d="M121 328h76q0 -145 91 -219t238 -74q217 0 357.5 162.5t140.5 363.5q0 139 -86 215t-236 76q-139 0 -247.5 -56.5t-169.5 -125.5h-58l189 764h794l-14 -66h-723l-151 -598q176 147 397 148q174 0 275.5 -92.5t101.5 -260.5q0 -238 -161 -417t-419 -179 q-176 0 -285.5 95.5t-109.5 263.5z" />
<glyph unicode="6" d="M158 389q0 100 19.5 227t71.5 280t128 276.5t200.5 207.5t278.5 84q137 0 230.5 -74.5t99.5 -199.5h-74q-8 100 -76.5 154.5t-183.5 54.5q-86 0 -165 -34t-160 -110.5t-149.5 -226t-115.5 -358.5q68 113 192 186.5t267 73.5q168 0 269.5 -95.5t101.5 -265.5 q0 -264 -170 -432t-392 -168q-193 0 -282.5 117t-89.5 303zM227 389q0 -352 314 -352q178 0 328.5 148.5t150.5 381.5q0 141 -84 219t-229 78q-180 0 -330 -135t-150 -340z" />
<glyph unicode="7" d="M219 0l952 1366h-821l15 68h905l-15 -68l-950 -1366h-86z" />
<glyph unicode="8" d="M102 303q0 336 449 455q-242 80 -242 284q0 135 82 234.5t199 143.5t244 44q168 0 279.5 -73.5t111.5 -210.5q0 -309 -408 -420q301 -88 301 -318q0 -199 -167 -336t-419 -137q-199 0 -314.5 95.5t-115.5 238.5zM176 305q0 -123 101.5 -196.5t261.5 -73.5 q201 0 351 113.5t150 291.5q0 125 -102 195t-254 96q-508 -102 -508 -426zM385 1044q0 -201 307 -256q74 14 132.5 32t122 49.5t105.5 70.5t69.5 99.5t27.5 134.5q0 113 -91 170t-229 57q-104 0 -200.5 -34t-170 -119t-73.5 -204z" />
<glyph unicode="9" d="M145 244h72q8 -98 86 -153.5t193 -55.5q195 0 350 175t233 554q-72 -113 -194.5 -186.5t-263.5 -73.5q-164 0 -269.5 95t-105.5 267q0 256 170 427t383 171q199 0 290 -118.5t91 -309.5q0 -72 -12.5 -168t-40 -221t-81 -240.5t-126 -216t-184 -161t-247.5 -60.5 q-139 0 -239.5 76t-104.5 199zM319 866q0 -145 86.5 -221t227.5 -76q180 0 328.5 135.5t148.5 342.5q0 145 -72.5 247.5t-240.5 102.5q-186 0 -332 -154t-146 -377z" />
<glyph unicode=":" horiz-adv-x="569" d="M147 0l27 131h111l-27 -131h-111zM344 934l29 131h110l-28 -131h-111z" />
<glyph unicode=";" horiz-adv-x="569" d="M8 -276l12 63q66 25 103 74t57 139h-37l27 131h115l-31 -145q-23 -113 -83.5 -173t-162.5 -89zM344 934l29 131h110l-28 -131h-111z" />
<glyph unicode="&#x3c;" d="M256 631l12 59l908 416l-17 -86l-811 -363v-4l656 -360l-17 -78z" />
<glyph unicode="=" d="M209 410l14 69h819l-14 -69h-819zM301 840l14 69h820l-15 -69h-819z" />
<glyph unicode="&#x3e;" d="M168 215l16 86l811 363v4l-655 362l16 76l731 -416l-12 -59z" />
<glyph unicode="?" horiz-adv-x="1009" d="M283 1174q57 145 184 238t295 93q154 0 249 -77.5t95 -194.5q0 -84 -42 -158t-92 -121t-173 -149l-37 -31q-111 -92 -145.5 -150.5t-67.5 -213.5h-74q37 174 76 244.5t164 170.5q88 72 118.5 97.5t83 75t68.5 77t30.5 68.5t14.5 86q0 90 -72.5 151.5t-201.5 61.5 q-133 0 -238.5 -75t-155.5 -193h-79zM371 0l26 131h111l-27 -131h-110z" />
<glyph unicode="@" horiz-adv-x="1904" d="M197 584q0 195 57 353.5t150.5 262t215 174t245.5 101t249 30.5q352 0 554 -183t202 -462q0 -289 -123 -467t-289 -178q-90 0 -143 61.5t-53 163.5q-35 -74 -134.5 -144.5t-224.5 -70.5q-129 0 -220 92.5t-91 251.5q0 258 145.5 416t337.5 158q84 0 162 -46t100 -130 l47 161h56l-115 -573q-12 -61 -12 -100q0 -84 40 -130t109 -46q133 0 233.5 153.5t100.5 421.5q0 260 -184.5 423t-501.5 163q-111 0 -221.5 -27t-224 -91.5t-199.5 -159.5t-140.5 -242.5t-54.5 -329.5q0 -322 212 -505t528 -183q168 0 323 49l17 -62q-156 -55 -346 -55 q-160 0 -303.5 49t-257 140.5t-180 237t-66.5 323.5zM664 578q0 -135 71.5 -212t184.5 -77q117 0 216 81t128 224l30 149q8 43 9 97q0 123 -68 182t-166 59q-154 0 -279.5 -135t-125.5 -368z" />
<glyph unicode="A" horiz-adv-x="1314" d="M-61 0l899 1475h104l270 -1475h-79l-80 436h-764l-266 -436h-84zM328 502h714l-163 903z" />
<glyph unicode="B" horiz-adv-x="1294" d="M92 0l314 1475h483q190 0 291.5 -76t101.5 -209q0 -141 -100.5 -261t-255.5 -155q123 -16 196.5 -94t73.5 -197q0 -88 -33 -170t-100.5 -154.5t-184 -115.5t-270.5 -43h-516zM182 68h443q242 0 366.5 124.5t124.5 290.5q0 121 -88 191.5t-248 70.5h-454zM340 811h448 q201 0 309.5 119t108.5 254q0 106 -78.5 164.5t-228.5 58.5h-432z" />
<glyph unicode="C" horiz-adv-x="1464" d="M162 535q0 113 28.5 238.5t94 257.5t159 236.5t237.5 171t314 66.5q233 0 368.5 -112.5t135.5 -350.5h-76q0 395 -436 396q-154 0 -284 -64.5t-212.5 -163t-141 -221.5t-84 -237.5t-25.5 -212.5q0 -231 123.5 -366.5t332.5 -135.5q211 0 371 115.5t233 324.5h76 q-70 -227 -253 -367.5t-428.5 -140.5t-389 154t-143.5 412z" />
<glyph unicode="D" horiz-adv-x="1380" d="M92 0l314 1475h376q266 0 423 -144.5t157 -402.5q0 -168 -56.5 -331t-162 -297t-275.5 -217t-376 -83h-400zM182 68h322q160 0 293 56t221 146t149.5 206t89 229.5t27.5 220.5q0 231 -135 356t-365 125h-317z" />
<glyph unicode="E" horiz-adv-x="1148" d="M92 0l314 1475h851l-14 -68h-776l-133 -623h717l-15 -67h-717l-137 -649h776l-14 -68h-852z" />
<glyph unicode="F" horiz-adv-x="1126" d="M92 0l314 1475h839l-14 -68h-764l-141 -664h688l-15 -67h-688l-143 -676h-76z" />
<glyph unicode="G" horiz-adv-x="1490" d="M164 524q0 129 31.5 264.5t100.5 264.5t165 229t234.5 161.5t297.5 61.5q227 0 358.5 -109.5t135.5 -310.5h-78q-4 174 -114.5 263.5t-307.5 89.5q-178 0 -324.5 -86t-236.5 -222.5t-138 -293t-48 -308.5q0 -236 128 -363.5t330 -127.5q205 0 376 128t212 316l47 217 h-497l14 68h563l-162 -766h-55l45 260q-96 -141 -237.5 -216t-309.5 -75q-231 0 -380.5 145.5t-149.5 409.5z" />
<glyph unicode="H" horiz-adv-x="1384" d="M92 0l314 1475h75l-147 -687h885l147 687h76l-314 -1475h-75l151 719h-885l-151 -719h-76z" />
<glyph unicode="I" horiz-adv-x="423" d="M92 0l314 1475h75l-313 -1475h-76z" />
<glyph unicode="J" horiz-adv-x="1058" d="M61 291q0 47 9 90h71q-6 -45 -6 -82q0 -127 73 -194.5t204 -67.5q156 0 263 94t146 270l230 1074h75l-231 -1082q-41 -197 -169 -310.5t-316 -113.5q-164 0 -256.5 86t-92.5 236z" />
<glyph unicode="K" horiz-adv-x="1187" d="M92 0l314 1475h75l-149 -699l899 699h98l-919 -723l665 -752h-96l-655 737l-156 -737h-76z" />
<glyph unicode="L" horiz-adv-x="1118" d="M92 0l314 1475h75l-299 -1407h776l-14 -68h-852z" />
<glyph unicode="M" horiz-adv-x="1697" d="M92 0l314 1475h114l275 -1403l841 1403h119l-313 -1475h-74l293 1386l-832 -1386h-92l-276 1397l-295 -1397h-74z" />
<glyph unicode="N" horiz-adv-x="1452" d="M92 0l314 1475h77l666 -1358l289 1358h71l-313 -1475h-74l-667 1368l-289 -1368h-74z" />
<glyph unicode="O" horiz-adv-x="1523" d="M164 526q0 115 26.5 242t91 260t156.5 237.5t235.5 172t315.5 67.5q233 0 375.5 -147.5t142.5 -409.5q0 -115 -26.5 -241.5t-91 -260t-156.5 -238t-235.5 -172t-315.5 -67.5q-233 0 -375.5 146.5t-142.5 410.5zM240 522q0 -233 120.5 -359t325.5 -126q158 0 289 64.5 t214 165t139 225t80 241.5t24 219q0 231 -122 358.5t-325 127.5q-160 0 -291 -64.5t-214 -165t-139 -226.5t-78.5 -241t-22.5 -219z" />
<glyph unicode="P" horiz-adv-x="1277" d="M92 0l314 1475h493q203 0 311.5 -92.5t108.5 -258.5q0 -219 -160 -380.5t-438 -161.5h-430l-123 -582h-76zM305 651h422q240 0 377 139.5t137 331.5q0 137 -88 211t-254 74h-432z" />
<glyph unicode="Q" horiz-adv-x="1523" d="M164 526q0 115 26.5 242t91 260t156.5 237.5t235.5 172t315.5 67.5q233 0 375.5 -147.5t142.5 -409.5q0 -221 -99 -461.5t-294 -382.5l162 -270l-76 -45l-147 277q-166 -96 -371 -97q-233 0 -375.5 146.5t-142.5 410.5zM240 522q0 -233 120.5 -359t325.5 -126 q158 0 289 64.5t214 165t139 225t80 241.5t24 219q0 231 -122 358.5t-325 127.5q-160 0 -291 -64.5t-214 -165t-139 -226.5t-78.5 -241t-22.5 -219z" />
<glyph unicode="R" horiz-adv-x="1267" d="M92 0l314 1475h505q203 0 309.5 -88.5t106.5 -247.5q0 -197 -128 -330t-347 -176l293 -633h-88l-287 625h-471l-131 -625h-76zM313 692h428q221 0 363.5 128t142.5 319q0 129 -85 198.5t-251 69.5h-444z" />
<glyph unicode="S" horiz-adv-x="1316" d="M90 360h76q0 -162 109.5 -241.5t310.5 -79.5q250 0 395 113.5t145 304.5q0 113 -95 179t-335 116q-201 41 -292 120.5t-91 202.5q0 195 150.5 312.5t421.5 117.5q213 0 341 -95t130 -259h-78q-6 135 -106.5 211t-288.5 76q-242 0 -368 -101.5t-126 -263.5 q0 -100 83 -158.5t288 -103.5q236 -51 340 -134t104 -222q0 -215 -167 -350.5t-457 -135.5q-229 0 -359.5 101.5t-130.5 289.5z" />
<glyph unicode="T" horiz-adv-x="1153" d="M258 1407l14 68h1071l-14 -68h-498l-299 -1407h-75l299 1407h-498z" />
<glyph unicode="U" horiz-adv-x="1433" d="M172 381q0 55 12 111l211 983h74l-213 -996q-10 -41 -10 -96q0 -156 108.5 -251t286.5 -95q209 0 371 124t202 318l213 996h74l-215 -1004q-47 -215 -223 -358.5t-428 -143.5q-221 0 -342 117t-121 295z" />
<glyph unicode="V" horiz-adv-x="1265" d="M252 1475h74l233 -1418l838 1418h80l-871 -1475h-112z" />
<glyph unicode="W" horiz-adv-x="1945" d="M262 1475h76l94 -1416l715 1416h113l110 -1412l698 1412h78l-729 -1475h-112l-115 1413l-711 -1413h-114z" />
<glyph unicode="X" horiz-adv-x="1220" d="M-41 0l686 766l-332 709h84l303 -654l600 654h93l-654 -715l359 -760h-84l-332 705l-627 -705h-96z" />
<glyph unicode="Y" horiz-adv-x="1269" d="M252 1475h78l354 -832l713 832h84l-770 -900l-121 -575h-76l123 580z" />
<glyph unicode="Z" horiz-adv-x="1308" d="M20 0l15 70l1290 1337h-958l14 68h1057l-15 -64l-1292 -1343h987l-14 -68h-1084z" />
<glyph unicode="[" horiz-adv-x="471" d="M-94 -348l426 2007h348l-14 -66h-275l-399 -1876h274l-14 -65h-346z" />
<glyph unicode="\" horiz-adv-x="622" d="M301 1505h68l67 -1689h-67z" />
<glyph unicode="]" horiz-adv-x="471" d="M-94 -348l12 65h275l399 1876h-275l15 66h348l-428 -2007h-346z" />
<glyph unicode="^" horiz-adv-x="983" d="M186 819l496 656h82l217 -656h-72l-194 598l-449 -598h-80z" />
<glyph unicode="_" horiz-adv-x="1236" d="M-68 -213l17 70h1114l-16 -70h-1115z" />
<glyph unicode="`" horiz-adv-x="442" d="M301 1505h105l151 -280h-65z" />
<glyph unicode="a" horiz-adv-x="1064" d="M68 211q0 176 128 267t359 128l340 53l23 109q6 35 6 63q0 94 -68 148.5t-190 54.5q-133 0 -233.5 -65.5t-135.5 -169.5h-74q41 133 164 215t287 82q147 0 235 -70t88 -195q0 -43 -8 -77l-160 -754h-59l27 190q-166 -221 -422 -221q-135 0 -221 64.5t-86 177.5zM147 215 q0 -90 68 -136t184 -46q141 0 271.5 97t163.5 245l49 223l-308 -49q-231 -37 -329.5 -118t-98.5 -216z" />
<glyph unicode="b" horiz-adv-x="1163" d="M82 0l313 1475h74l-135 -629q166 250 428 250q162 0 256 -96.5t94 -280.5q0 -92 -19.5 -190.5t-65.5 -199t-111.5 -180t-165 -130t-218.5 -50.5q-133 0 -220 72t-111 186l-60 -227h-59zM238 354q0 -158 77.5 -240.5t212.5 -82.5q104 0 193.5 50t146 126t96.5 171t57 182 t17 161q0 156 -77.5 234.5t-215.5 78.5q-158 0 -277.5 -110.5t-174.5 -262t-55 -307.5z" />
<glyph unicode="c" horiz-adv-x="1093" d="M113 365q0 170 64.5 332.5t204.5 280.5t327 118q168 0 263 -86t95 -232h-78q0 117 -73.5 186.5t-208.5 69.5q-127 0 -230.5 -66.5t-165 -169t-94.5 -216t-33 -217.5q0 -164 84 -248t224 -84q135 0 247.5 75.5t157.5 192.5h76q-55 -147 -189.5 -239.5t-302.5 -92.5 q-166 0 -267 104t-101 292z" />
<glyph unicode="d" horiz-adv-x="1163" d="M111 356q0 111 33.5 233t99 238.5t182.5 192.5t264 76q129 0 219 -71t117 -181l131 631h74l-313 -1475h-60l35 219q-164 -250 -430 -250q-156 0 -254 100.5t-98 286.5zM186 356q0 -160 80 -242.5t215 -82.5q156 0 274.5 109.5t174 261t55.5 307.5q0 160 -79 242.5 t-210 82.5q-127 0 -229 -69.5t-160.5 -176t-89.5 -219.5t-31 -213z" />
<glyph unicode="e" horiz-adv-x="1163" d="M117 383q0 119 38 240.5t108.5 229.5t189 175.5t264.5 67.5q172 0 276.5 -102.5t104.5 -297.5q0 -88 -21 -182h-872q-14 -70 -15 -137q0 -170 91.5 -257t244.5 -87q131 0 238.5 65.5t165.5 184.5h78q-66 -145 -197 -229.5t-293 -84.5q-182 0 -291.5 109.5t-109.5 304.5z M217 578h795q10 72 10 118q0 164 -84 251t-225 87q-164 0 -301.5 -120.5t-194.5 -335.5z" />
<glyph unicode="f" horiz-adv-x="595" d="M137 0l211 1001h-158l15 64h157l44 203q25 117 96 177t178 60q78 0 158 -30l-13 -62q-82 31 -151 31q-158 0 -197 -184l-41 -195h260l-14 -64h-260l-211 -1001h-74z" />
<glyph unicode="g" horiz-adv-x="1163" d="M45 -111h74q0 -115 78.5 -171t216.5 -56q164 0 280.5 92t149.5 246l57 266q-158 -225 -420 -225q-156 0 -257 101.5t-101 281.5q0 80 20.5 168t65.5 179t109.5 163t160.5 117t211 45q129 0 219 -67.5t117 -178.5l57 215h60l-228 -1075q-37 -174 -173 -281.5t-330 -107.5 q-172 0 -269.5 74.5t-97.5 213.5zM199 420q0 -154 81.5 -236t217.5 -82q127 0 226 61.5t154.5 158t83 199t27.5 202.5q0 154 -80 232.5t-215 78.5q-125 0 -224 -61.5t-155.5 -157.5t-86 -198.5t-29.5 -196.5z" />
<glyph unicode="h" horiz-adv-x="1120" d="M82 0l313 1475h74l-131 -611q74 111 181.5 171.5t223.5 60.5q141 0 224.5 -73t83.5 -198q0 -37 -11 -88l-155 -737h-74l156 733q10 43 10 84q0 102 -65.5 159.5t-188.5 57.5q-133 0 -264 -105.5t-164 -266.5l-139 -662h-74z" />
<glyph unicode="i" horiz-adv-x="393" d="M78 0l225 1065h74l-225 -1065h-74zM354 1358l27 117h94l-26 -117h-95z" />
<glyph unicode="j" horiz-adv-x="393" d="M-274 -367l14 62q70 -29 129 -29q137 0 176 180l258 1219h74l-262 -1233q-51 -231 -242 -231q-81 -1 -147 32zM354 1358l27 117h94l-26 -117h-95z" />
<glyph unicode="k" horiz-adv-x="970" d="M82 0l313 1475h74l-182 -852l639 442h106l-678 -471l525 -594h-97l-506 573l-120 -573h-74z" />
<glyph unicode="l" horiz-adv-x="401" d="M82 0l313 1475h74l-313 -1475h-74z" />
<glyph unicode="m" horiz-adv-x="1726" d="M82 0l225 1065h62l-29 -182q70 106 170 159.5t201 53.5q125 0 197.5 -59.5t76.5 -170.5q74 115 180.5 172.5t212.5 57.5q133 0 207 -66.5t74 -187.5q0 -47 -12 -103l-156 -739h-74l156 735q12 55 12 101q0 199 -223 198q-137 0 -252 -106.5t-147 -263.5l-140 -664h-73 l155 735q12 55 13 101q0 199 -220 198q-141 0 -255.5 -106.5t-147.5 -263.5l-139 -664h-74z" />
<glyph unicode="n" horiz-adv-x="1120" d="M82 0l225 1065h62l-33 -203q76 113 183.5 173.5t223.5 60.5q141 0 224.5 -73t83.5 -198q0 -37 -11 -88l-155 -737h-74l156 733q10 43 10 84q0 102 -65.5 159.5t-188.5 57.5q-133 0 -264 -104.5t-164 -265.5l-139 -664h-74z" />
<glyph unicode="o" horiz-adv-x="1157" d="M115 373q0 82 18.5 173t64.5 191.5t112.5 178t174 129t238.5 51.5q178 0 280.5 -106.5t102.5 -297.5q0 -104 -33 -222t-99.5 -233.5t-189 -191.5t-282.5 -76q-178 0 -282.5 107t-104.5 297zM190 371q0 -166 84 -253t232 -87q113 0 206 49t150.5 122.5t96 166t55 174.5 t16.5 151q0 166 -83 253t-230 87q-115 0 -209 -49t-151.5 -123t-96.5 -167t-54.5 -173.5t-15.5 -150.5z" />
<glyph unicode="p" horiz-adv-x="1163" d="M2 -369l305 1434h60l-35 -223q74 117 184.5 185.5t245.5 68.5q162 0 256 -96.5t94 -280.5q0 -117 -34 -242t-100.5 -241.5t-184 -191.5t-265.5 -75q-131 0 -217 71t-108 183l-127 -592h-74zM238 354q0 -158 77.5 -240.5t208.5 -82.5t235.5 73.5t162 185t87 224.5 t29.5 207q0 156 -77.5 234.5t-215.5 78.5q-158 0 -277.5 -110.5t-174.5 -262t-55 -307.5z" />
<glyph unicode="q" horiz-adv-x="1163" d="M111 356q0 111 33.5 233t99 238.5t182.5 192.5t264 76q129 0 218 -72t114 -186l61 227h60l-305 -1434h-74l125 586q-162 -248 -426 -248q-156 0 -254 100.5t-98 286.5zM186 356q0 -160 80 -242.5t215 -82.5q156 0 274.5 107.5t174 259t55.5 311t-79 242.5t-210 83 q-127 0 -229 -69.5t-160.5 -176t-89.5 -219.5t-31 -213z" />
<glyph unicode="r" horiz-adv-x="684" d="M82 0l225 1065h60l-35 -225q133 256 356 256q49 0 113 -19l-17 -71q-57 20 -108 20q-125 0 -239.5 -120t-153.5 -304l-127 -602h-74z" />
<glyph unicode="s" horiz-adv-x="1005" d="M61 240q0 14 2 32h74q-2 -14 -2 -28q0 -96 76 -153.5t213 -57.5q160 0 271.5 80t111.5 215q0 86 -75 131t-247 71q-133 20 -208.5 84t-75.5 166q0 137 111.5 226.5t316.5 89.5q162 0 256 -78t94 -209h-74v20q0 90 -75.5 147.5t-211.5 57.5q-172 0 -257 -72.5t-85 -185.5 q0 -76 63.5 -119t211.5 -67q336 -55 336 -260q0 -147 -124 -254t-343 -107q-168 0 -263.5 76t-95.5 195z" />
<glyph unicode="t" horiz-adv-x="602" d="M156 129q0 35 8 68l170 804h-154l15 64h153l64 256h65l-55 -256h254l-14 -64h-254l-170 -806q-8 -41 -9 -60q0 -104 125 -104q55 0 135 24l-14 -63q-72 -23 -133 -23q-186 0 -186 160z" />
<glyph unicode="u" horiz-adv-x="1110" d="M131 236q0 53 10 96l156 733h74l-152 -711q-14 -55 -14 -110q0 -213 250 -213q143 0 265 108.5t157 270.5l139 655h74l-226 -1065h-61l28 190q-76 -111 -183 -166t-216 -55q-137 0 -219 69t-82 198z" />
<glyph unicode="v" horiz-adv-x="1003" d="M184 1065h76l170 -1002l596 1002h80l-637 -1065h-98z" />
<glyph unicode="w" horiz-adv-x="1540" d="M195 1065h69l96 -993l506 993h99l100 -989l491 989h76l-530 -1065h-94l-105 999l-508 -999h-94z" />
<glyph unicode="x" horiz-adv-x="1032" d="M-41 0l537 563l-293 502h86l262 -451l426 451h94l-479 -504l317 -561h-84l-288 510l-482 -510h-96z" />
<glyph unicode="y" horiz-adv-x="1003" d="M35 -375l14 60q49 -23 101 -23q63 0 110 61.5t164 276.5h-29l-211 1065h74l199 -1012l569 1012h80l-606 -1071q-143 -256 -202.5 -324.5t-154.5 -68.5q-55 -1 -108 24z" />
<glyph unicode="z" horiz-adv-x="978" d="M0 0l14 74l926 927h-698l14 64h784l-16 -78l-922 -924h725l-12 -63h-815z" />
<glyph unicode="{" horiz-adv-x="696" d="M176 641l17 74q88 0 152.5 54t84.5 153l105 487q29 131 103.5 190.5t225.5 59.5l-14 -66q-117 0 -169 -47t-75 -147l-100 -475q-20 -100 -86 -167t-156 -83q66 -14 104 -62.5t38 -122.5q0 -33 -7 -65l-102 -483q-12 -59 -12 -97q0 -61 37.5 -92t130.5 -31l-15 -65 q-227 0 -227 188q0 53 16 123l99 467q6 31 6 60q0 70 -41 108.5t-115 38.5z" />
<glyph unicode="|" horiz-adv-x="696" d="M170 -287l401 1895h70l-401 -1895h-70z" />
<glyph unicode="}" horiz-adv-x="696" d="M-53 -344l14 65q117 0 169 47.5t75 147.5l100 475q20 100 86 167t156 83q-66 14 -103.5 62.5t-37.5 121.5q0 33 6 66l102 483q12 59 12 96q0 61 -37.5 92t-130.5 31l15 66q227 0 227 -189q0 -53 -16 -122l-99 -467q-6 -31 -6 -60q0 -70 41 -108.5t115 -38.5l-17 -74 q-88 0 -152.5 -54t-84.5 -153l-105 -487q-29 -131 -103 -190.5t-226 -59.5z" />
<glyph unicode="~" d="M250 594l16 86q127 84 234 84q88 0 188 -60.5t168 -60.5q104 0 244 102l-19 -83q-127 -84 -233 -84q-88 0 -188.5 60t-167.5 60q-103 0 -242 -104z" />
<glyph unicode="&#xa1;" horiz-adv-x="512" d="M47 -369l219 1024h80l-219 -1024h-80zM326 975l26 131h111l-27 -131h-110z" />
<glyph unicode="&#xa2;" d="M137 365q0 164 60.5 321.5t191.5 276t305 131.5l56 258h71l-55 -258q152 -8 239 -93.5t87 -222.5h-78q0 117 -74 186.5t-209 69.5q-127 0 -230.5 -66.5t-165 -169t-94 -216t-32.5 -217.5q0 -164 84 -248t223 -84q135 0 248 75.5t158 192.5h75q-53 -143 -181 -234.5 t-290 -97.5l-51 -245h-72l54 247q-145 16 -232.5 118t-87.5 276z" />
<glyph unicode="&#xa3;" d="M41 0l14 68q152 55 187 211l88 407h-92l14 66h92l70 333q39 184 154.5 281.5t287.5 97.5q141 0 233.5 -80.5t94.5 -199.5h-70q-4 94 -75.5 155.5t-186.5 61.5q-143 0 -239.5 -85t-129.5 -241l-67 -323h456l-14 -66h-457l-90 -418q-29 -127 -147 -200h803l-15 -68h-911z " />
<glyph unicode="&#xa4;" d="M174 256l137 137q-104 121 -104 303q0 176 100 299l-133 133l49 50l131 -134q133 121 309.5 121t309.5 -123l135 136l49 -50l-137 -137q100 -125 100 -295q0 -178 -102 -301l139 -139l-49 -49l-139 137q-133 -117 -305 -117t-306 115l-135 -135zM281 696 q0 -176 111.5 -289.5t273.5 -113.5q158 0 269.5 113.5t111.5 289.5t-112 290t-269 114q-160 0 -272.5 -114t-112.5 -290z" />
<glyph unicode="&#xa5;" d="M203 307l14 66h309l45 209h-309l14 65h269l-342 787h78l337 -785l676 785h84l-673 -787h270l-14 -65h-314l-45 -209h313l-14 -66h-313l-64 -307h-75l63 307h-309z" />
<glyph unicode="&#xa6;" horiz-adv-x="696" d="M170 -287l168 789h70l-168 -789h-70zM408 819l163 789h70l-166 -789h-67z" />
<glyph unicode="&#xa7;" horiz-adv-x="1187" d="M150 29h79q12 -74 80 -113t162 -39q154 0 233.5 81t79.5 171q0 74 -56 117t-177 88q-166 59 -238.5 123.5t-72.5 152.5q0 240 344 332q-147 74 -148 201q0 123 101.5 222t296.5 99q133 0 213.5 -62.5t91.5 -150.5h-80q-12 74 -76.5 113t-159.5 39q-154 0 -234.5 -81 t-80.5 -171q0 -76 57.5 -119t177.5 -86q166 -61 238 -125.5t72 -152.5q0 -236 -344 -332q150 -74 149 -199q0 -123 -100.5 -222t-296.5 -99q-133 0 -217 62.5t-94 150.5zM315 618q0 -76 63.5 -125t223.5 -110l39 -16q190 55 264 120.5t74 174.5q0 76 -63.5 125t-223.5 110 q-8 2 -21.5 7t-17.5 7q-190 -55 -264 -119.5t-74 -173.5z" />
<glyph unicode="&#xa8;" horiz-adv-x="757" d="M328 1358l26 117h95l-27 -117h-94zM729 1358l27 117h94l-27 -117h-94z" />
<glyph unicode="&#xa9;" horiz-adv-x="1726" d="M193 737.5q0 192.5 64.5 345t171 241.5t235.5 135t270 46t270 -46t235.5 -135t171 -241.5t64.5 -345t-64.5 -345t-171 -242t-235.5 -135.5t-270 -46t-270 46t-235.5 135.5t-171 242t-64.5 345zM258 737q0 -178 58.5 -318t155.5 -223t215 -125t247 -42t246.5 42t215 125 t156 223t58.5 318t-58.5 318.5t-156 223.5t-215 125t-246.5 42t-247 -42t-215 -125t-155.5 -223.5t-58.5 -318.5zM573 739q0 209 103.5 323t257.5 114q129 0 217 -68t111 -180h-74q-16 86 -84 136t-168 50q-127 0 -209 -97t-82 -280q0 -174 83 -266t206 -92q100 0 172 53 t88 141h72q-23 -117 -113 -187.5t-221 -70.5q-156 0 -257.5 111.5t-101.5 312.5z" />
<glyph unicode="&#xaa;" horiz-adv-x="901" d="M59 0l15 70h618l-14 -70h-619zM246 811q0 246 354 307l236 41l18 88q6 31 6 58q0 143 -178 143q-84 0 -149.5 -39t-86.5 -102h-71q31 94 120 145t197.5 51t172 -55t63.5 -150q0 -20 -8 -65l-129 -604h-54l17 137q-119 -154 -289 -154q-98 0 -158.5 54.5t-60.5 144.5z M315 811q0 -68 45.5 -104.5t126.5 -36.5q98 0 187.5 77.5t109.5 172.5l39 180l-211 -37q-137 -23 -217 -79t-80 -173z" />
<glyph unicode="&#xab;" horiz-adv-x="940" d="M186 645l326 420h70l-308 -424l101 -457h-62zM555 645l326 420h69l-307 -424l100 -457h-61z" />
<glyph unicode="&#xac;" d="M254 625l16 69h820l-97 -444h-73l79 375h-745z" />
<glyph unicode="&#xad;" horiz-adv-x="1105" d="M233 625l17 69h737l-16 -69h-738z" />
<glyph unicode="&#xae;" horiz-adv-x="1257" d="M287 1009.5q0 233.5 145.5 359.5t329.5 126t329.5 -126t145.5 -359.5t-145.5 -359.5t-329.5 -126t-329.5 126t-145.5 359.5zM344 1009.5q0 -200.5 124 -317.5t294 -117t294 117t124 317.5t-124 317.5t-294 117t-294 -117t-124 -317.5zM608 750v528h158q84 0 135 -38 t51 -114q0 -117 -116 -153l137 -223h-64l-129 213h-118v-213h-54zM662 1008h112q57 0 90 35.5t33 82.5q0 45 -31.5 76t-97.5 31h-106v-225z" />
<glyph unicode="&#xaf;" horiz-adv-x="593" d="M266 1354l15 65h471l-15 -65h-471z" />
<glyph unicode="&#xb0;" d="M295 1085q0 152 94 260.5t256 108.5q121 0 205 -73.5t84 -204.5q0 -152 -94.5 -260.5t-255.5 -108.5q-121 0 -205 73.5t-84 204.5zM369 1092q0 -104 60 -164t159 -60q123 0 197.5 88t74.5 213q0 104 -60.5 164t-156.5 60q-125 0 -199.5 -88t-74.5 -213z" />
<glyph unicode="&#xb1;" d="M123 0l14 70h819l-14 -70h-819zM254 625l16 69h373l78 375h74l-78 -375h373l-17 -69h-373l-73 -355h-74l74 355h-373z" />
<glyph unicode="&#xb2;" horiz-adv-x="696" d="M227 860l13 62l335 282q61 51 90 79t57 79t28 108q0 53 -33 92.5t-107 39.5q-145 0 -217 -138h-69q41 88 117.5 141.5t172.5 53.5q94 0 148.5 -52.5t54.5 -129.5q0 -94 -50 -165t-149 -153l-288 -237h366l-12 -62h-457z" />
<glyph unicode="&#xb3;" horiz-adv-x="696" d="M246 1028h67q6 -55 47 -88t107 -33q96 0 155.5 61.5t59.5 143.5q0 61 -44 96t-112 35h-47l10 55h58q74 0 130 61.5t56 133.5q0 51 -32.5 80t-92.5 29q-141 0 -198 -117h-70q37 82 109.5 128t166.5 46q84 0 134.5 -47t50.5 -119q0 -82 -49.5 -140.5t-133.5 -80.5 q55 -12 94.5 -53t39.5 -107q0 -115 -83 -189.5t-206 -74.5q-88 0 -152.5 53t-64.5 127z" />
<glyph unicode="&#xb4;" horiz-adv-x="442" d="M238 1225l270 280h113l-310 -280h-73z" />
<glyph unicode="&#xb5;" horiz-adv-x="1120" d="M2 -369l305 1434h74l-160 -748q-10 -47 -10 -77q0 -102 66.5 -155.5t187.5 -53.5q143 0 265 108.5t157 270.5l139 655h74l-226 -1065h-61l29 190q-76 -111 -181.5 -166t-214.5 -55q-201 0 -268 148l-102 -486h-74z" />
<glyph unicode="&#xb6;" horiz-adv-x="1126" d="M291 -369l250 1178q-86 0 -167 63.5t-81 188.5q0 160 113.5 287t277.5 127h70l-394 -1844h-69zM670 -369l393 1844h70l-394 -1844h-69z" />
<glyph unicode="&#xb7;" horiz-adv-x="569" d="M272 592l29 131h111l-29 -131h-111z" />
<glyph unicode="&#xb8;" horiz-adv-x="575" d="M-88 -319h65v-9q0 -100 144 -100q76 0 130 47t54 113q0 111 -209 110l56 189h57l-31 -137q94 -8 144.5 -53.5t50.5 -108.5q0 -82 -76 -150.5t-191 -68.5q-90 0 -142 40.5t-52 116.5v11z" />
<glyph unicode="&#xb9;" horiz-adv-x="696" d="M254 860l12 60h193l139 649l-250 -131l14 73l242 127h78l-154 -718h160l-12 -60h-422z" />
<glyph unicode="&#xba;" horiz-adv-x="786" d="M0 0l14 70h602l-14 -70h-602zM197 897q0 82 20.5 176t65.5 195.5t135 168t211 66.5q119 0 182 -72.5t63 -211.5q0 -84 -19 -177.5t-62 -195t-132.5 -168t-209.5 -66.5q-119 0 -186.5 73t-67.5 212zM264 895q0 -117 52.5 -171t138.5 -54q98 0 172.5 62.5t110.5 156.5 t52.5 178t16.5 154q0 225 -186 225q-98 0 -172 -62.5t-112 -156.5t-55.5 -179t-17.5 -153z" />
<glyph unicode="&#xbb;" horiz-adv-x="940" d="M111 184l292 457l-127 424h62l154 -420l-312 -461h-69zM479 184l293 457l-127 424h62l153 -420l-311 -461h-70z" />
<glyph unicode="&#xbc;" horiz-adv-x="1802" d="M299 -184l1307 1802h75l-1308 -1802h-74zM319 655l13 60h192l140 649l-250 -131l14 74l242 127h78l-154 -719h160l-13 -60h-422zM1063 184l12 62l287 532h72l-289 -534h233l8 41l56 207h59l-53 -248h137l-12 -60h-137l-39 -184h-70l39 184h-303z" />
<glyph unicode="&#xbd;" horiz-adv-x="1802" d="M295 -184l1307 1802h75l-1308 -1802h-74zM315 655l13 60h192l139 649l-249 -131l14 74l242 127h77l-153 -719h160l-13 -60h-422zM1092 0l12 61l336 283q61 51 90 79t56.5 79t27.5 108q0 53 -33 92t-106 39q-145 0 -218 -137h-69q41 88 117.5 141.5t173.5 53.5 q94 0 148 -52.5t54 -130.5q0 -94 -50 -164.5t-148 -152.5l-289 -238h367l-13 -61h-456z" />
<glyph unicode="&#xbe;" horiz-adv-x="1802" d="M299 -184l1307 1802h75l-1308 -1802h-74zM332 834h67q6 -55 47 -88t107 -33q96 0 155.5 61.5t59.5 143.5q0 61 -44 96t-112 35h-47l10 55h58q74 0 130 61.5t56 132.5q0 51 -32.5 80t-92.5 29q-141 0 -198 -117h-70q37 82 109.5 128t166.5 46q84 0 134.5 -47t50.5 -119 q0 -82 -49.5 -140t-132.5 -81q55 -12 94 -53t39 -106q0 -115 -83 -190t-206 -75q-88 0 -152.5 53.5t-64.5 127.5zM1063 184l12 62l287 532h72l-289 -534h233l8 41l56 207h59l-53 -248h137l-12 -60h-137l-39 -184h-70l39 184h-303z" />
<glyph unicode="&#xbf;" horiz-adv-x="1009" d="M-27 -127q0 33 3.5 59.5t16.5 55t20 48t33 49.5t36 43t50 48t52.5 46t64.5 53t68 57q111 92 146 150.5t67 213.5h74q-37 -174 -76 -244.5t-163 -170.5q-197 -160 -244 -218q-72 -84 -72 -186q0 -90 73 -151.5t202 -61.5q133 0 238.5 75t154.5 193h80 q-57 -145 -182.5 -238t-297.5 -93q-154 0 -249 77.5t-95 194.5zM571 975l27 131h111l-27 -131h-111z" />
<glyph unicode="&#xc0;" horiz-adv-x="1314" d="M-61 0l899 1475h104l270 -1475h-79l-80 436h-764l-266 -436h-84zM328 502h714l-163 903zM737 1853h105l151 -280h-65z" />
<glyph unicode="&#xc1;" horiz-adv-x="1314" d="M-61 0l899 1475h104l270 -1475h-79l-80 436h-764l-266 -436h-84zM328 502h714l-163 903zM793 1573l270 280h113l-310 -280h-73z" />
<glyph unicode="&#xc2;" horiz-adv-x="1314" d="M-61 0l899 1475h104l270 -1475h-79l-80 436h-764l-266 -436h-84zM328 502h714l-163 903zM637 1573l272 280h97l151 -280h-70l-137 231l-233 -231h-80z" />
<glyph unicode="&#xc3;" horiz-adv-x="1314" d="M-61 0l899 1475h104l270 -1475h-79l-80 436h-764l-266 -436h-84zM328 502h714l-163 903zM653 1638l17 80q92 59 157 60q57 0 112.5 -33t96.5 -33q59 0 166 72l-16 -80q-92 -59 -160 -59q-57 0 -112.5 32.5t-96.5 32.5q-58 0 -164 -72z" />
<glyph unicode="&#xc4;" horiz-adv-x="1314" d="M-61 0l899 1475h104l270 -1475h-79l-80 436h-764l-266 -436h-84zM328 502h714l-163 903zM678 1706l27 117h94l-27 -117h-94zM1079 1706l27 117h94l-26 -117h-95z" />
<glyph unicode="&#xc5;" horiz-adv-x="1314" d="M-61 0l876 1438q-127 47 -127 190q0 104 68.5 185t189.5 81q96 0 155.5 -57t59.5 -147q0 -92 -56 -169t-155 -94l262 -1427h-79l-80 436h-764l-266 -436h-84zM328 502h714l-163 903zM754 1632q0 -74 42 -113.5t109 -39.5q86 0 138.5 60t52.5 147q0 74 -42 113.5 t-110 39.5q-86 0 -138 -60.5t-52 -146.5z" />
<glyph unicode="&#xc6;" horiz-adv-x="1878" d="M-82 0l1200 1475h869l-15 -68h-735l-133 -623h676l-15 -67h-675l-138 -649h736l-15 -68h-811l92 436h-594l-354 -436h-88zM414 502h555l194 921z" />
<glyph unicode="&#xc7;" horiz-adv-x="1464" d="M162 535q0 113 28.5 238.5t94 257.5t159 236.5t237.5 171t314 66.5q233 0 368.5 -112.5t135.5 -350.5h-76q0 395 -436 396q-154 0 -284 -64.5t-212.5 -163t-141 -221.5t-84 -237.5t-25.5 -212.5q0 -231 123.5 -366.5t332.5 -135.5q211 0 371 115.5t233 324.5h76 q-70 -221 -245 -360.5t-410 -147.5l-16 -75q96 -8 145 -49.5t49 -102.5q0 -84 -77 -156.5t-189 -72.5q-90 0 -142.5 40.5t-52.5 116.5v11h66v-9q0 -100 143 -100q76 0 130 47t54 113q0 111 -208 110l36 129q-231 10 -364 163t-133 401z" />
<glyph unicode="&#xc8;" horiz-adv-x="1148" d="M92 0l314 1475h851l-14 -68h-776l-133 -623h717l-15 -67h-717l-137 -649h776l-14 -68h-852zM700 1853h105l151 -280h-65z" />
<glyph unicode="&#xc9;" horiz-adv-x="1148" d="M92 0l314 1475h851l-14 -68h-776l-133 -623h717l-15 -67h-717l-137 -649h776l-14 -68h-852zM729 1573l270 280h113l-309 -280h-74z" />
<glyph unicode="&#xca;" horiz-adv-x="1148" d="M92 0l314 1475h851l-14 -68h-776l-133 -623h717l-15 -67h-717l-137 -649h776l-14 -68h-852zM586 1573l272 280h96l152 -280h-70l-137 231l-233 -231h-80z" />
<glyph unicode="&#xcb;" horiz-adv-x="1148" d="M92 0l314 1475h851l-14 -68h-776l-133 -623h717l-15 -67h-717l-137 -649h776l-14 -68h-852zM602 1706l27 117h94l-27 -117h-94zM1004 1706l26 117h94l-26 -117h-94z" />
<glyph unicode="&#xcc;" horiz-adv-x="423" d="M92 0l314 1475h75l-313 -1475h-76zM287 1853h104l152 -280h-66z" />
<glyph unicode="&#xcd;" horiz-adv-x="423" d="M92 0l314 1475h75l-313 -1475h-76zM356 1573l271 280h112l-309 -280h-74z" />
<glyph unicode="&#xce;" horiz-adv-x="423" d="M92 0l314 1475h75l-313 -1475h-76zM190 1573l273 280h96l152 -280h-70l-137 231l-234 -231h-80z" />
<glyph unicode="&#xcf;" horiz-adv-x="423" d="M92 0l314 1475h75l-313 -1475h-76zM223 1706l27 117h94l-27 -117h-94zM625 1706l26 117h94l-26 -117h-94z" />
<glyph unicode="&#xd0;" horiz-adv-x="1380" d="M92 0l158 741h-125l14 68h125l142 666h376q266 0 423 -144.5t157 -402.5q0 -168 -56.5 -331t-162 -297t-275.5 -217t-376 -83h-400zM182 68h322q160 0 293 56t221 146t149.5 206t89 229.5t27.5 220.5q0 231 -135 356t-365 125h-317l-127 -598h485l-14 -68h-485z" />
<glyph unicode="&#xd1;" horiz-adv-x="1452" d="M92 0l314 1475h77l666 -1358l289 1358h71l-313 -1475h-74l-667 1368l-289 -1368h-74zM729 1638l16 80q92 59 158 60q57 0 112.5 -33t96.5 -33q59 0 166 72l-16 -80q-92 -59 -160 -59q-57 0 -112.5 32.5t-96.5 32.5q-58 0 -164 -72z" />
<glyph unicode="&#xd2;" horiz-adv-x="1523" d="M164 526q0 115 26.5 242t91 260t156.5 237.5t235.5 172t315.5 67.5q233 0 375.5 -147.5t142.5 -409.5q0 -115 -26.5 -241.5t-91 -260t-156.5 -238t-235.5 -172t-315.5 -67.5q-233 0 -375.5 146.5t-142.5 410.5zM240 522q0 -233 120.5 -359t325.5 -126q158 0 289 64.5 t214 165t139 225t80 241.5t24 219q0 231 -122 358.5t-325 127.5q-160 0 -291 -64.5t-214 -165t-139 -226.5t-78.5 -241t-22.5 -219zM815 1853h105l151 -280h-65z" />
<glyph unicode="&#xd3;" horiz-adv-x="1523" d="M164 526q0 115 26.5 242t91 260t156.5 237.5t235.5 172t315.5 67.5q233 0 375.5 -147.5t142.5 -409.5q0 -115 -26.5 -241.5t-91 -260t-156.5 -238t-235.5 -172t-315.5 -67.5q-233 0 -375.5 146.5t-142.5 410.5zM240 522q0 -233 120.5 -359t325.5 -126q158 0 289 64.5 t214 165t139 225t80 241.5t24 219q0 231 -122 358.5t-325 127.5q-160 0 -291 -64.5t-214 -165t-139 -226.5t-78.5 -241t-22.5 -219zM907 1573l271 280h112l-309 -280h-74z" />
<glyph unicode="&#xd4;" horiz-adv-x="1523" d="M164 526q0 115 26.5 242t91 260t156.5 237.5t235.5 172t315.5 67.5q233 0 375.5 -147.5t142.5 -409.5q0 -115 -26.5 -241.5t-91 -260t-156.5 -238t-235.5 -172t-315.5 -67.5q-233 0 -375.5 146.5t-142.5 410.5zM240 522q0 -233 120.5 -359t325.5 -126q158 0 289 64.5 t214 165t139 225t80 241.5t24 219q0 231 -122 358.5t-325 127.5q-160 0 -291 -64.5t-214 -165t-139 -226.5t-78.5 -241t-22.5 -219zM745 1573l273 280h96l152 -280h-70l-137 231l-234 -231h-80z" />
<glyph unicode="&#xd5;" horiz-adv-x="1523" d="M164 526q0 115 26.5 242t91 260t156.5 237.5t235.5 172t315.5 67.5q233 0 375.5 -147.5t142.5 -409.5q0 -115 -26.5 -241.5t-91 -260t-156.5 -238t-235.5 -172t-315.5 -67.5q-233 0 -375.5 146.5t-142.5 410.5zM240 522q0 -233 120.5 -359t325.5 -126q158 0 289 64.5 t214 165t139 225t80 241.5t24 219q0 231 -122 358.5t-325 127.5q-160 0 -291 -64.5t-214 -165t-139 -226.5t-78.5 -241t-22.5 -219zM760 1638l16 80q92 59 158 60q57 0 112.5 -33t96.5 -33q59 0 166 72l-17 -80q-92 -59 -159 -59q-57 0 -112.5 32.5t-96.5 32.5 q-58 0 -164 -72z" />
<glyph unicode="&#xd6;" horiz-adv-x="1523" d="M164 526q0 115 26.5 242t91 260t156.5 237.5t235.5 172t315.5 67.5q233 0 375.5 -147.5t142.5 -409.5q0 -115 -26.5 -241.5t-91 -260t-156.5 -238t-235.5 -172t-315.5 -67.5q-233 0 -375.5 146.5t-142.5 410.5zM240 522q0 -233 120.5 -359t325.5 -126q158 0 289 64.5 t214 165t139 225t80 241.5t24 219q0 231 -122 358.5t-325 127.5q-160 0 -291 -64.5t-214 -165t-139 -226.5t-78.5 -241t-22.5 -219zM784 1706l27 117h94l-26 -117h-95zM1186 1706l26 117h95l-27 -117h-94z" />
<glyph unicode="&#xd7;" d="M303 401l318 263l-205 262l57 47l207 -268l317 264l43 -54l-317 -262l203 -260l-58 -47l-204 266l-320 -264z" />
<glyph unicode="&#xd8;" horiz-adv-x="1523" d="M164 526q0 115 26.5 242t91 260t156.5 237.5t235.5 172t315.5 67.5q125 0 230 -47l129 221h75l-145 -252q229 -143 229 -479q0 -115 -26.5 -241.5t-91 -260t-156.5 -238t-235.5 -172t-315.5 -67.5q-127 0 -225 43l-138 -237h-75l153 266q-233 141 -233 485zM240 522 q0 -299 192 -420l752 1297q-90 39 -199 39q-160 0 -291 -64.5t-214 -165t-139 -226.5t-78.5 -241t-22.5 -219zM492 72q88 -35 194 -35q158 0 289 64.5t214 165t139 225t80 241.5t24 219q0 293 -191 414z" />
<glyph unicode="&#xd9;" horiz-adv-x="1433" d="M172 381q0 55 12 111l211 983h74l-213 -996q-10 -41 -10 -96q0 -156 108.5 -251t286.5 -95q209 0 371 124t202 318l213 996h74l-215 -1004q-47 -215 -223 -358.5t-428 -143.5q-221 0 -342 117t-121 295zM813 1853h105l151 -280h-65z" />
<glyph unicode="&#xda;" horiz-adv-x="1433" d="M172 381q0 55 12 111l211 983h74l-213 -996q-10 -41 -10 -96q0 -156 108.5 -251t286.5 -95q209 0 371 124t202 318l213 996h74l-215 -1004q-47 -215 -223 -358.5t-428 -143.5q-221 0 -342 117t-121 295zM852 1573l270 280h113l-309 -280h-74z" />
<glyph unicode="&#xdb;" horiz-adv-x="1433" d="M172 381q0 55 12 111l211 983h74l-213 -996q-10 -41 -10 -96q0 -156 108.5 -251t286.5 -95q209 0 371 124t202 318l213 996h74l-215 -1004q-47 -215 -223 -358.5t-428 -143.5q-221 0 -342 117t-121 295zM705 1573l272 280h96l152 -280h-70l-137 231l-234 -231h-79z" />
<glyph unicode="&#xdc;" horiz-adv-x="1433" d="M172 381q0 55 12 111l211 983h74l-213 -996q-10 -41 -10 -96q0 -156 108.5 -251t286.5 -95q209 0 371 124t202 318l213 996h74l-215 -1004q-47 -215 -223 -358.5t-428 -143.5q-221 0 -342 117t-121 295zM735 1706l27 117h94l-27 -117h-94zM1137 1706l26 117h94l-26 -117 h-94z" />
<glyph unicode="&#xdd;" horiz-adv-x="1269" d="M252 1475h78l354 -832l713 832h84l-770 -900l-121 -575h-76l123 580zM780 1573l271 280h112l-309 -280h-74z" />
<glyph unicode="&#xde;" horiz-adv-x="1277" d="M92 0l314 1475h75l-59 -273h420q203 0 311.5 -92t108.5 -258q0 -240 -169 -391.5t-429 -151.5h-431l-65 -309h-76zM248 379h422q227 0 370.5 133t143.5 338q0 135 -88 210t-254 75h-432z" />
<glyph unicode="&#xdf;" horiz-adv-x="1116" d="M82 0l240 1135q78 371 421 370q127 0 207 -60.5t80 -172.5q0 -76 -32.5 -137.5t-79 -101.5t-92.5 -75.5t-78.5 -77.5t-32.5 -89q0 -88 131 -166q195 -117 194 -275q0 -162 -114.5 -271.5t-288.5 -109.5q-129 0 -207 58.5t-98 148.5h78q16 -68 79.5 -106.5t159.5 -38.5 q125 0 219.5 88t94.5 229q0 125 -162 225q-156 96 -156 205q0 61 33 112.5t79 87.5t92 72.5t79 91t33 124.5q0 86 -60.5 132t-163.5 46q-274 0 -342 -316l-239 -1128h-74z" />
<glyph unicode="&#xe0;" horiz-adv-x="1064" d="M68 211q0 176 128 267t359 128l340 53l23 109q6 35 6 63q0 94 -68 148.5t-190 54.5q-133 0 -233.5 -65.5t-135.5 -169.5h-74q41 133 164 215t287 82q147 0 235 -70t88 -195q0 -43 -8 -77l-160 -754h-59l27 190q-166 -221 -422 -221q-135 0 -221 64.5t-86 177.5zM147 215 q0 -90 68 -136t184 -46q141 0 271.5 97t163.5 245l49 223l-308 -49q-231 -37 -329.5 -118t-98.5 -216zM522 1505h105l151 -280h-65z" />
<glyph unicode="&#xe1;" horiz-adv-x="1064" d="M68 211q0 176 128 267t359 128l340 53l23 109q6 35 6 63q0 94 -68 148.5t-190 54.5q-133 0 -233.5 -65.5t-135.5 -169.5h-74q41 133 164 215t287 82q147 0 235 -70t88 -195q0 -43 -8 -77l-160 -754h-59l27 190q-166 -221 -422 -221q-135 0 -221 64.5t-86 177.5zM147 215 q0 -90 68 -136t184 -46q141 0 271.5 97t163.5 245l49 223l-308 -49q-231 -37 -329.5 -118t-98.5 -216zM639 1225l270 280h113l-309 -280h-74z" />
<glyph unicode="&#xe2;" horiz-adv-x="1064" d="M68 211q0 176 128 267t359 128l340 53l23 109q6 35 6 63q0 94 -68 148.5t-190 54.5q-133 0 -233.5 -65.5t-135.5 -169.5h-74q41 133 164 215t287 82q147 0 235 -70t88 -195q0 -43 -8 -77l-160 -754h-59l27 190q-166 -221 -422 -221q-135 0 -221 64.5t-86 177.5zM147 215 q0 -90 68 -136t184 -46q141 0 271.5 97t163.5 245l49 223l-308 -49q-231 -37 -329.5 -118t-98.5 -216zM457 1225l272 280h96l152 -280h-70l-137 231l-233 -231h-80z" />
<glyph unicode="&#xe3;" horiz-adv-x="1064" d="M68 211q0 176 128 267t359 128l340 53l23 109q6 35 6 63q0 94 -68 148.5t-190 54.5q-133 0 -233.5 -65.5t-135.5 -169.5h-74q41 133 164 215t287 82q147 0 235 -70t88 -195q0 -43 -8 -77l-160 -754h-59l27 190q-166 -221 -422 -221q-135 0 -221 64.5t-86 177.5zM147 215 q0 -90 68 -136t184 -46q141 0 271.5 97t163.5 245l49 223l-308 -49q-231 -37 -329.5 -118t-98.5 -216zM465 1290l16 80q92 59 158 60q57 0 112.5 -33t96.5 -33q59 0 166 72l-17 -80q-92 -59 -159 -60q-57 0 -112.5 33t-96.5 33q-58 0 -164 -72z" />
<glyph unicode="&#xe4;" horiz-adv-x="1064" d="M68 211q0 176 128 267t359 128l340 53l23 109q6 35 6 63q0 94 -68 148.5t-190 54.5q-133 0 -233.5 -65.5t-135.5 -169.5h-74q41 133 164 215t287 82q147 0 235 -70t88 -195q0 -43 -8 -77l-160 -754h-59l27 190q-166 -221 -422 -221q-135 0 -221 64.5t-86 177.5zM147 215 q0 -90 68 -136t184 -46q141 0 271.5 97t163.5 245l49 223l-308 -49q-231 -37 -329.5 -118t-98.5 -216zM489 1358l27 117h94l-26 -117h-95zM891 1358l27 117h94l-27 -117h-94z" />
<glyph unicode="&#xe5;" horiz-adv-x="1064" d="M68 211q0 176 128 267t359 128l340 53l23 109q6 35 6 63q0 94 -68 148.5t-190 54.5q-133 0 -233.5 -65.5t-135.5 -169.5h-74q41 133 164 215t287 82q147 0 235 -70t88 -195q0 -43 -8 -77l-160 -754h-59l27 190q-166 -221 -422 -221q-135 0 -221 64.5t-86 177.5zM147 215 q0 -90 68 -136t184 -46q141 0 271.5 97t163.5 245l49 223l-308 -49q-231 -37 -329.5 -118t-98.5 -216zM508 1403q0 104 68.5 185t189.5 81q96 0 155.5 -57.5t59.5 -147.5q0 -104 -68.5 -185t-189.5 -81q-96 0 -155.5 57.5t-59.5 147.5zM573 1407q0 -74 42 -114t110 -40 q86 0 138 60.5t52 146.5q0 74 -42 114t-109 40q-86 0 -138.5 -60.5t-52.5 -146.5z" />
<glyph unicode="&#xe6;" horiz-adv-x="1898" d="M68 211q0 319 487 395l340 53l23 109q6 35 6 63q0 94 -68 148.5t-190 54.5q-133 0 -233.5 -65.5t-135.5 -169.5h-74q41 133 164 215t287 82q145 0 228 -70t83 -197q82 133 204 205t261 72q172 0 277.5 -103.5t105.5 -289.5q0 -82 -16 -156h-873q-20 -90 -20 -170 q0 -174 92 -259t244 -85q131 0 238.5 65.5t164.5 184.5h78q-66 -145 -197 -229t-293 -84q-154 0 -255 78.5t-128 224.5q-82 -162 -216 -238t-277 -76q-135 0 -221 64.5t-86 177.5zM147 215q0 -90 68 -136t184 -46q141 0 271.5 97t163.5 245l49 223l-308 -49 q-231 -37 -329.5 -118t-98.5 -216zM956 621h795q8 47 8 98q0 156 -85 240.5t-228 84.5q-158 0 -300.5 -122.5t-189.5 -300.5z" />
<glyph unicode="&#xe7;" horiz-adv-x="1093" d="M113 365q0 170 64.5 332.5t204.5 280.5t327 118q168 0 263 -86t95 -232h-78q0 117 -73.5 186.5t-208.5 69.5q-127 0 -230.5 -66.5t-165 -169t-94.5 -216t-33 -217.5q0 -164 84 -248t224 -84q135 0 247.5 75.5t157.5 192.5h76q-53 -141 -180 -231t-285 -99l-16 -77 q94 -8 144 -51.5t50 -106.5q0 -84 -73.5 -153.5t-192.5 -69.5q-90 0 -142.5 40.5t-52.5 116.5v11h66v-9q0 -100 143 -100q76 0 130 47t54 113q0 111 -208 110l36 129q-152 10 -242.5 112t-90.5 282z" />
<glyph unicode="&#xe8;" horiz-adv-x="1163" d="M117 383q0 119 38 240.5t108.5 229.5t189 175.5t264.5 67.5q172 0 276.5 -102.5t104.5 -297.5q0 -88 -21 -182h-872q-14 -70 -15 -137q0 -170 91.5 -257t244.5 -87q131 0 238.5 65.5t165.5 184.5h78q-66 -145 -197 -229.5t-293 -84.5q-182 0 -291.5 109.5t-109.5 304.5z M217 578h795q10 72 10 118q0 164 -84 251t-225 87q-164 0 -301.5 -120.5t-194.5 -335.5zM573 1505h105l151 -280h-65z" />
<glyph unicode="&#xe9;" horiz-adv-x="1163" d="M117 383q0 119 38 240.5t108.5 229.5t189 175.5t264.5 67.5q172 0 276.5 -102.5t104.5 -297.5q0 -88 -21 -182h-872q-14 -70 -15 -137q0 -170 91.5 -257t244.5 -87q131 0 238.5 65.5t165.5 184.5h78q-66 -145 -197 -229.5t-293 -84.5q-182 0 -291.5 109.5t-109.5 304.5z M217 578h795q10 72 10 118q0 164 -84 251t-225 87q-164 0 -301.5 -120.5t-194.5 -335.5zM686 1225l270 280h113l-309 -280h-74z" />
<glyph unicode="&#xea;" horiz-adv-x="1163" d="M117 383q0 119 38 240.5t108.5 229.5t189 175.5t264.5 67.5q172 0 276.5 -102.5t104.5 -297.5q0 -88 -21 -182h-872q-14 -70 -15 -137q0 -170 91.5 -257t244.5 -87q131 0 238.5 65.5t165.5 184.5h78q-66 -145 -197 -229.5t-293 -84.5q-182 0 -291.5 109.5t-109.5 304.5z M217 578h795q10 72 10 118q0 164 -84 251t-225 87q-164 0 -301.5 -120.5t-194.5 -335.5zM492 1225l272 280h96l152 -280h-70l-137 231l-234 -231h-79z" />
<glyph unicode="&#xeb;" horiz-adv-x="1163" d="M117 383q0 119 38 240.5t108.5 229.5t189 175.5t264.5 67.5q172 0 276.5 -102.5t104.5 -297.5q0 -88 -21 -182h-872q-14 -70 -15 -137q0 -170 91.5 -257t244.5 -87q131 0 238.5 65.5t165.5 184.5h78q-66 -145 -197 -229.5t-293 -84.5q-182 0 -291.5 109.5t-109.5 304.5z M217 578h795q10 72 10 118q0 164 -84 251t-225 87q-164 0 -301.5 -120.5t-194.5 -335.5zM532 1358l27 117h94l-26 -117h-95zM934 1358l27 117h94l-27 -117h-94z" />
<glyph unicode="&#xec;" horiz-adv-x="393" d="M78 0l225 1065h74l-225 -1065h-74zM215 1505h104l152 -280h-65z" />
<glyph unicode="&#xed;" horiz-adv-x="393" d="M78 0l225 1065h74l-225 -1065h-74zM274 1225l271 280h112l-309 -280h-74z" />
<glyph unicode="&#xee;" horiz-adv-x="393" d="M78 0l225 1065h74l-225 -1065h-74zM115 1225l272 280h96l152 -280h-70l-137 231l-233 -231h-80z" />
<glyph unicode="&#xef;" horiz-adv-x="393" d="M78 0l225 1065h74l-225 -1065h-74zM154 1358l26 117h94l-26 -117h-94zM555 1358l27 117h94l-27 -117h-94z" />
<glyph unicode="&#xf0;" horiz-adv-x="1097" d="M106 348q0 254 151 442.5t382 188.5q160 0 248 -86t96 -207q16 90 16 184q0 258 -155 400l-154 -131h-88l197 168q-115 84 -301 120l26 58q188 -37 322 -137l147 127h88l-190 -164q180 -166 180 -451q0 -82 -13.5 -182t-55 -229.5t-106.5 -232.5t-179.5 -175t-261.5 -72 q-166 0 -257.5 103.5t-91.5 275.5zM182 346q0 -141 72 -225t203 -84q100 0 185 42t139.5 104.5t92 140t53 145.5t15.5 123q0 137 -75.5 229t-221.5 92q-211 0 -337 -172t-126 -395z" />
<glyph unicode="&#xf1;" horiz-adv-x="1120" d="M82 0l225 1065h62l-33 -203q76 113 183.5 173.5t223.5 60.5q141 0 224.5 -73t83.5 -198q0 -37 -11 -88l-155 -737h-74l156 733q10 43 10 84q0 102 -65.5 159.5t-188.5 57.5q-133 0 -264 -104.5t-164 -265.5l-139 -664h-74zM514 1290l16 80q92 59 158 60q57 0 112.5 -33 t96.5 -33q59 0 166 72l-16 -80q-92 -59 -160 -60q-57 0 -112.5 33t-96.5 33q-58 0 -164 -72z" />
<glyph unicode="&#xf2;" horiz-adv-x="1157" d="M115 373q0 82 18.5 173t64.5 191.5t112.5 178t174 129t238.5 51.5q178 0 280.5 -106.5t102.5 -297.5q0 -104 -33 -222t-99.5 -233.5t-189 -191.5t-282.5 -76q-178 0 -282.5 107t-104.5 297zM190 371q0 -166 84 -253t232 -87q113 0 206 49t150.5 122.5t96 166t55 174.5 t16.5 151q0 166 -83 253t-230 87q-115 0 -209 -49t-151.5 -123t-96.5 -167t-54.5 -173.5t-15.5 -150.5zM573 1505h105l151 -280h-65z" />
<glyph unicode="&#xf3;" horiz-adv-x="1157" d="M115 373q0 82 18.5 173t64.5 191.5t112.5 178t174 129t238.5 51.5q178 0 280.5 -106.5t102.5 -297.5q0 -104 -33 -222t-99.5 -233.5t-189 -191.5t-282.5 -76q-178 0 -282.5 107t-104.5 297zM190 371q0 -166 84 -253t232 -87q113 0 206 49t150.5 122.5t96 166t55 174.5 t16.5 151q0 166 -83 253t-230 87q-115 0 -209 -49t-151.5 -123t-96.5 -167t-54.5 -173.5t-15.5 -150.5zM678 1225l270 280h113l-309 -280h-74z" />
<glyph unicode="&#xf4;" horiz-adv-x="1157" d="M115 373q0 82 18.5 173t64.5 191.5t112.5 178t174 129t238.5 51.5q178 0 280.5 -106.5t102.5 -297.5q0 -104 -33 -222t-99.5 -233.5t-189 -191.5t-282.5 -76q-178 0 -282.5 107t-104.5 297zM190 371q0 -166 84 -253t232 -87q113 0 206 49t150.5 122.5t96 166t55 174.5 t16.5 151q0 166 -83 253t-230 87q-115 0 -209 -49t-151.5 -123t-96.5 -167t-54.5 -173.5t-15.5 -150.5zM498 1225l272 280h96l152 -280h-70l-137 231l-233 -231h-80z" />
<glyph unicode="&#xf5;" horiz-adv-x="1157" d="M115 373q0 82 18.5 173t64.5 191.5t112.5 178t174 129t238.5 51.5q178 0 280.5 -106.5t102.5 -297.5q0 -104 -33 -222t-99.5 -233.5t-189 -191.5t-282.5 -76q-178 0 -282.5 107t-104.5 297zM190 371q0 -166 84 -253t232 -87q113 0 206 49t150.5 122.5t96 166t55 174.5 t16.5 151q0 166 -83 253t-230 87q-115 0 -209 -49t-151.5 -123t-96.5 -167t-54.5 -173.5t-15.5 -150.5zM510 1290l16 80q92 59 158 60q57 0 112.5 -33t96.5 -33q59 0 166 72l-17 -80q-92 -59 -159 -60q-57 0 -112.5 33t-96.5 33q-58 0 -164 -72z" />
<glyph unicode="&#xf6;" horiz-adv-x="1157" d="M115 373q0 82 18.5 173t64.5 191.5t112.5 178t174 129t238.5 51.5q178 0 280.5 -106.5t102.5 -297.5q0 -104 -33 -222t-99.5 -233.5t-189 -191.5t-282.5 -76q-178 0 -282.5 107t-104.5 297zM190 371q0 -166 84 -253t232 -87q113 0 206 49t150.5 122.5t96 166t55 174.5 t16.5 151q0 166 -83 253t-230 87q-115 0 -209 -49t-151.5 -123t-96.5 -167t-54.5 -173.5t-15.5 -150.5zM537 1358l26 117h94l-26 -117h-94zM938 1358l27 117h94l-27 -117h-94z" />
<glyph unicode="&#xf7;" d="M254 625l16 69h820l-17 -69h-819zM508 131l29 131h102l-29 -131h-102zM705 1057l28 131h103l-29 -131h-102z" />
<glyph unicode="&#xf8;" horiz-adv-x="1157" d="M70 -225l180 272q-135 106 -135 326q0 82 18.5 173t64.5 191.5t112.5 178t174 129t238.5 51.5q109 0 190 -41l156 235h78l-178 -270q137 -109 137 -328q0 -104 -33 -222t-99.5 -233.5t-189 -191.5t-282.5 -76q-106 0 -199 43l-156 -237h-77zM190 371q0 -176 97 -267 l590 895q-70 35 -160 35q-115 0 -209 -49t-151.5 -123t-96.5 -167t-54.5 -173.5t-15.5 -150.5zM340 68q68 -37 166 -37q113 0 206 49t150.5 122.5t96 166t55 174.5t16.5 151q0 180 -100 269z" />
<glyph unicode="&#xf9;" horiz-adv-x="1110" d="M131 236q0 53 10 96l156 733h74l-152 -711q-14 -55 -14 -110q0 -213 250 -213q143 0 265 108.5t157 270.5l139 655h74l-226 -1065h-61l28 190q-76 -111 -183 -166t-216 -55q-137 0 -219 69t-82 198zM553 1505h104l152 -280h-66z" />
<glyph unicode="&#xfa;" horiz-adv-x="1110" d="M131 236q0 53 10 96l156 733h74l-152 -711q-14 -55 -14 -110q0 -213 250 -213q143 0 265 108.5t157 270.5l139 655h74l-226 -1065h-61l28 190q-76 -111 -183 -166t-216 -55q-137 0 -219 69t-82 198zM643 1225l270 280h113l-309 -280h-74z" />
<glyph unicode="&#xfb;" horiz-adv-x="1110" d="M131 236q0 53 10 96l156 733h74l-152 -711q-14 -55 -14 -110q0 -213 250 -213q143 0 265 108.5t157 270.5l139 655h74l-226 -1065h-61l28 190q-76 -111 -183 -166t-216 -55q-137 0 -219 69t-82 198zM469 1225l272 280h97l151 -280h-69l-138 231l-233 -231h-80z" />
<glyph unicode="&#xfc;" horiz-adv-x="1110" d="M131 236q0 53 10 96l156 733h74l-152 -711q-14 -55 -14 -110q0 -213 250 -213q143 0 265 108.5t157 270.5l139 655h74l-226 -1065h-61l28 190q-76 -111 -183 -166t-216 -55q-137 0 -219 69t-82 198zM508 1358l27 117h94l-27 -117h-94zM909 1358l27 117h94l-26 -117h-95z " />
<glyph unicode="&#xfd;" horiz-adv-x="1003" d="M35 -375l14 60q49 -23 101 -23q63 0 110 61.5t164 276.5h-29l-211 1065h74l199 -1012l569 1012h80l-606 -1071q-143 -256 -202.5 -324.5t-154.5 -68.5q-55 -1 -108 24zM578 1225l270 280h113l-310 -280h-73z" />
<glyph unicode="&#xfe;" horiz-adv-x="1163" d="M2 -369l393 1844h74l-135 -629q166 250 428 250q162 0 256 -96.5t94 -280.5q0 -92 -19.5 -190.5t-65.5 -199t-111.5 -180t-165 -130t-218.5 -50.5q-133 0 -219 70t-110 184l-127 -592h-74zM238 354q0 -158 77.5 -240.5t212.5 -82.5q104 0 193.5 50t146 126t96.5 171 t57 182t17 161q0 156 -77.5 234.5t-215.5 78.5q-158 0 -277.5 -110.5t-174.5 -262t-55 -307.5z" />
<glyph unicode="&#xff;" horiz-adv-x="1003" d="M35 -375l14 60q49 -23 101 -23q63 0 110 61.5t164 276.5h-29l-211 1065h74l199 -1012l569 1012h80l-606 -1071q-143 -256 -202.5 -324.5t-154.5 -68.5q-55 -1 -108 24zM467 1358l27 117h94l-27 -117h-94zM868 1358l27 117h94l-26 -117h-95z" />
<glyph unicode="&#x152;" horiz-adv-x="1898" d="M164 530q0 119 28.5 247t94 260t159 234.5t238.5 168t317 65.5q98 0 201 -30h805l-14 -68h-736l-133 -623h676l-14 -67h-676l-137 -649h735l-14 -68h-811q-94 -20 -199 -20q-236 0 -378 144t-142 406zM240 526q0 -231 121.5 -355t326.5 -124q121 0 209 25l285 1337 q-78 29 -187 29q-160 0 -292 -63.5t-216 -161t-142 -222.5t-81.5 -242t-23.5 -223z" />
<glyph unicode="&#x153;" horiz-adv-x="2037" d="M115 373q0 82 18.5 173t64.5 191.5t112.5 178t174 129t238.5 51.5q158 0 255 -87t112 -253q80 164 212 252t287 88q172 0 276.5 -102.5t104.5 -297.5q0 -88 -20 -182h-873q-14 -70 -14 -137q0 -170 91 -257t245 -87q131 0 238.5 65.5t164.5 184.5h78 q-66 -145 -197 -229.5t-292 -84.5q-166 0 -269.5 90.5t-120.5 253.5q-78 -170 -207.5 -257t-291.5 -87q-178 0 -282.5 107t-104.5 297zM190 371q0 -166 84 -253t232 -87q178 0 315 129t189 372q18 92 18 168q0 164 -83 249t-228 85q-115 0 -209 -49t-151.5 -123t-96.5 -167 t-54.5 -173.5t-15.5 -150.5zM1090 578h794q10 72 10 118q0 164 -84 251t-225 87q-164 0 -301 -120.5t-194 -335.5z" />
<glyph unicode="&#x178;" horiz-adv-x="1269" d="M252 1475h78l354 -832l713 832h84l-770 -900l-121 -575h-76l123 580zM651 1706l27 117h94l-27 -117h-94zM1053 1706l26 117h95l-27 -117h-94z" />
<glyph unicode="&#x2c6;" horiz-adv-x="634" d="M236 1225l272 280h96l152 -280h-70l-137 231l-234 -231h-79z" />
<glyph unicode="&#x2dc;" horiz-adv-x="643" d="M254 1290l16 80q92 59 158 60q57 0 112.5 -33t96.5 -33q59 0 166 72l-17 -80q-92 -59 -159 -60q-57 0 -112.5 33t-96.5 33q-58 0 -164 -72z" />
<glyph unicode="&#x2013;" horiz-adv-x="819" d="M49 625l17 69h819l-17 -69h-819z" />
<glyph unicode="&#x2014;" d="M49 625l17 69h1228l-16 -69h-1229z" />
<glyph unicode="&#x2018;" horiz-adv-x="552" d="M356 1067l31 145q23 113 83 173.5t163 89.5l-12 -64q-66 -25 -103 -74t-57 -139h37l-27 -131h-115z" />
<glyph unicode="&#x2019;" horiz-adv-x="552" d="M293 1067l12 63q66 25 102.5 74t57.5 139h-37l27 132h114l-30 -146q-23 -113 -83.5 -173t-162.5 -89z" />
<glyph unicode="&#x201a;" horiz-adv-x="552" d="M8 -276l12 63q66 25 103 74t57 139h-37l27 131h115l-31 -145q-23 -113 -83.5 -173t-162.5 -89z" />
<glyph unicode="&#x201c;" horiz-adv-x="815" d="M362 1067l31 145q23 113 83.5 173.5t162.5 89.5l-12 -64q-66 -25 -103 -74t-57 -139h37l-27 -131h-115zM618 1067l31 145q23 113 83.5 173.5t162.5 89.5l-12 -64q-66 -25 -103 -74t-57 -139h37l-27 -131h-115z" />
<glyph unicode="&#x201d;" horiz-adv-x="808" d="M293 1067l12 63q66 25 102.5 74t57.5 139h-37l27 132h114l-30 -146q-23 -113 -83.5 -173t-162.5 -89zM549 1067l12 63q66 25 102.5 74t57.5 139h-37l27 132h114l-30 -146q-23 -113 -83.5 -173t-162.5 -89z" />
<glyph unicode="&#x201e;" horiz-adv-x="808" d="M8 -276l12 63q66 25 103 74t57 139h-37l27 131h115l-31 -145q-23 -113 -83.5 -173t-162.5 -89zM264 -276l12 63q66 25 103 74t57 139h-37l27 131h115l-31 -145q-23 -113 -83.5 -173t-162.5 -89z" />
<glyph unicode="&#x2022;" horiz-adv-x="604" d="M215 532l49 238h236l-49 -238h-236z" />
<glyph unicode="&#x2026;" horiz-adv-x="1200" d="M147 0l27 131h94l-26 -131h-95zM471 0l27 131h94l-27 -131h-94zM795 0l26 131h94l-26 -131h-94z" />
<glyph unicode="&#x2039;" horiz-adv-x="571" d="M186 645l326 420h70l-308 -424l101 -457h-62z" />
<glyph unicode="&#x203a;" horiz-adv-x="571" d="M111 184l292 457l-127 424h62l154 -420l-312 -461h-69z" />
<glyph unicode="&#x20ac;" d="M88 539l31 65h139q12 113 47 236h-151l28 65h142q37 115 89 210t124.5 176t172 127t216.5 46q162 0 276.5 -82t120.5 -262h-76q-2 143 -91 211t-228 68q-367 0 -527 -494h648l-29 -65h-639q-29 -102 -47 -236h569l-31 -65h-544q-6 -72 -6 -123q0 -381 315 -381 q324 0 442 278h76q-66 -172 -202 -258t-320 -86q-387 0 -387 449q0 78 4 121h-162z" />
<glyph unicode="&#x2122;" horiz-adv-x="1679" d="M289 1415v60h778l285 -734l278 734h92v-811h-63v737l-279 -737h-59l-289 737v-737h-61v751h-303v-751h-64v751h-315z" />
<glyph unicode="&#xe000;" horiz-adv-x="1065" d="M0 1065h1065v-1065h-1065v1065z" />
<glyph unicode="&#xfb01;" horiz-adv-x="1116" d="M137 0l211 1001h-158l15 64h157l39 182q53 258 355 258q125 0 252 -49l-19 -59q-129 47 -239 47q-233 0 -277 -205l-37 -174h660l-226 -1065h-73l211 1001h-586l-211 -1001h-74z" />
<glyph unicode="&#xfb02;" horiz-adv-x="1116" d="M137 0l211 1001h-158l15 64h157l27 121q35 162 125 240.5t283 78.5q131 0 311 -47l76 17l-314 -1475h-73l295 1397q-137 47 -301 47q-154 0 -226.5 -63.5t-103.5 -202.5l-25 -113h250l-14 -64h-250l-211 -1001h-74z" />
<glyph unicode="&#xfb03;" horiz-adv-x="1769" d="M137 0l211 1001h-158l15 64h157l23 109q33 160 123 239.5t283 79.5q180 0 352 -78q90 90 270 90q125 0 252 -49l-18 -59q-129 47 -240 47q-233 0 -277 -205l-36 -174h659l-225 -1065h-74l211 1001h-586l-211 -1001h-73l211 1001h-584l-211 -1001h-74zM436 1065h584 l39 182q16 74 43 117q-152 68 -316 68q-156 0 -228.5 -62.5t-100.5 -204.5z" />
<glyph unicode="&#xfb04;" horiz-adv-x="1775" d="M137 0l211 1001h-158l15 64h157l23 109q33 160 123 239.5t283 79.5q188 0 366 -82q98 94 299 94q131 0 311 -47l76 17l-313 -1475h-74l295 1397q-137 47 -301 47q-154 0 -226.5 -63.5t-103.5 -202.5l-24 -113h250l-15 -64h-250l-211 -1001h-73l211 1001h-586l-211 -1001 h-74zM436 1065h586l27 121q23 111 67 176q-156 70 -330 70q-156 0 -228.5 -62.5t-100.5 -204.5z" />
</font>
</defs>
</svg>
