<?xml version="1.0" standalone="no"?>
<!DOCTYPE svg PUBLIC "-//W3C//DTD SVG 1.1//EN" "http://www.w3.org/Graphics/SVG/1.1/DTD/svg11.dtd" >
<svg xmlns="http://www.w3.org/2000/svg">
<metadata>
This is a custom SVG webfont generated by Font Squirrel.
Copyright   : Copyright c 2010 by Ralph du Carrois Erik Spiekermann  Botio Nikoltchev All rights reserved
Designer    : Ralph du Carrois Erik Spiekermann  Botio Nikoltchev
Foundry     : Ralph du Carrois Erik Spiekermann  Botio Nikoltchev
Foundry URL : httpedenspiekermanncom
</metadata>
<defs>
<font id="CiscoSansBoldOblique" horiz-adv-x="1228" >
<font-face units-per-em="2048" ascent="1618" descent="-430" />
<missing-glyph horiz-adv-x="532" />
<glyph unicode=" "  horiz-adv-x="532" />
<glyph unicode="&#x09;" horiz-adv-x="532" />
<glyph unicode="&#xa0;" horiz-adv-x="532" />
<glyph unicode="!" horiz-adv-x="634" d="M53 0l68 322h362l-67 -322h-363zM188 492l164 1013h406l-266 -1013h-304z" />
<glyph unicode="&#x22;" d="M317 1004l35 313l41 188h266l-41 -188l-96 -313h-205zM686 1004l35 313l41 188h266l-41 -188l-96 -313h-205z" />
<glyph unicode="#" d="M70 328l47 225h135l98 328h-123l47 225h144l98 328h264l-98 -328h236l98 328h264l-98 -328h116l-47 -225h-137l-98 -328h125l-47 -225h-144l-98 -328h-264l98 328h-235l-99 -328h-264l98 328h-116zM516 553h236l98 328h-236z" />
<glyph unicode="$" d="M6 403q0 4 1 13.5t1 15.5h326q0 -104 66.5 -164.5t207.5 -60.5q135 0 215 47t80 143q0 84 -81 128t-244 85q-418 102 -418 389q0 225 138 333t402 128l52 240h264l-53 -246h-9q197 -31 287 -134t90 -239v-26h-321q0 90 -65.5 132t-170.5 42q-119 0 -185.5 -32t-66.5 -126 q0 -68 63.5 -110.5t200.5 -75.5q229 -53 353.5 -147.5t124.5 -270.5q0 -215 -150.5 -349t-466.5 -149l-51 -245h-264l53 260q-203 39 -291 157.5t-88 261.5z" />
<glyph unicode="%" horiz-adv-x="1636" d="M172 1071q0 180 102.5 286.5t282.5 106.5q158 0 247 -80.5t89 -222.5q0 -174 -103.5 -281.5t-283.5 -107.5q-158 0 -246 80t-88 219zM260 0l1004 1434h254l-1004 -1434h-254zM389 1073q0 -141 121 -141q76 0 121 62.5t45 162.5q0 147 -125 148q-76 0 -119 -58.5 t-43 -173.5zM881 266q0 180 103 286.5t284 106.5q158 0 246 -79.5t88 -219.5q0 -178 -102.5 -285.5t-285.5 -107.5q-158 0 -245.5 80t-87.5 219zM1098 274q0 -147 125 -147q76 0 118.5 63.5t42.5 165.5q0 143 -122 144q-74 0 -119 -57.5t-45 -168.5z" />
<glyph unicode="&#x26;" horiz-adv-x="1402" d="M70 330q0 139 85 229t265 184q-131 141 -131 304q0 78 24.5 146.5t78.5 132t155.5 101t240.5 37.5q203 0 306.5 -89t103.5 -212q0 -145 -96 -241.5t-273 -192.5l185 -192q39 74 80 188l290 -39q-70 -201 -190 -362l139 -164l-248 -191l-112 133q-186 -133 -410 -133 q-246 0 -369.5 101.5t-123.5 259.5zM424 350q0 -72 49 -110.5t133 -38.5q125 0 219 78l-252 276q-86 -55 -117.5 -98.5t-31.5 -106.5zM600 1079q0 -80 82 -168q125 74 169 124t44 116q0 53 -34 83t-91 30q-137 0 -166 -142q-4 -14 -4 -43z" />
<glyph unicode="'" horiz-adv-x="552" d="M305 1004l35 313l41 188h266l-41 -188l-96 -313h-205z" />
<glyph unicode="(" horiz-adv-x="696" d="M94 322q0 260 95.5 532t215 459.5t261.5 345.5h270q-545 -709 -545 -1360q0 -305 117 -647h-270q-144 303 -144 670z" />
<glyph unicode=")" horiz-adv-x="696" d="M-125 -348q307 424 425 733t118 623q0 307 -117 651h270q145 -315 146 -674q0 -199 -53.5 -401.5t-142.5 -374.5t-182 -308.5t-196 -248.5h-268z" />
<glyph unicode="*" horiz-adv-x="962" d="M219 1098l90 270l230 -123l-62 260h283l-47 -264l235 127l90 -270l-268 -21l191 -180l-230 -168l-102 244l-103 -244l-229 168l188 180z" />
<glyph unicode="+" d="M195 535l53 251h317l70 324h264l-70 -324h320l-53 -251h-320l-69 -326h-265l70 326h-317z" />
<glyph unicode="," horiz-adv-x="552" d="M-86 -375l31 160q178 37 217 215h-129l67 322h363l-64 -302q-25 -113 -78 -191.5t-126.5 -118.5t-138 -58.5t-142.5 -26.5z" />
<glyph unicode="-" horiz-adv-x="1105" d="M195 535l53 251h778l-53 -251h-778z" />
<glyph unicode="." horiz-adv-x="591" d="M33 0l67 322h363l-68 -322h-362z" />
<glyph unicode="/" horiz-adv-x="696" d="M-121 -184l772 1689h283l-774 -1689h-281z" />
<glyph unicode="0" d="M106 481q0 86 10.5 178.5t36 209t78 218t125 188.5t188 138t259.5 51q211 0 334 -128t123 -378q0 -78 -11.5 -169t-39 -207.5t-80 -221t-125 -194.5t-186 -143.5t-253.5 -53.5q-209 0 -334 131t-125 381zM428 418q0 -231 158 -232q92 0 164.5 93.5t111.5 231.5t57.5 269 t18.5 234q0 236 -156 235q-90 0 -162.5 -91t-111.5 -227t-59.5 -270t-20.5 -243z" />
<glyph unicode="1" d="M324 958l63 302l367 174h317l-303 -1434h-319l239 1126z" />
<glyph unicode="2" d="M49 0l53 260l420 340q287 231 348 299q84 92 84 186q0 63 -42 102.5t-113 39.5q-154 0 -238 -187h-334q72 203 237 313.5t367 110.5q195 0 323 -102t128 -258q0 -35 -6 -68q-10 -55 -25.5 -97t-52.5 -92t-59.5 -79t-98 -93.5t-114.5 -96t-156 -125.5l-240 -193h566 l-54 -260h-993z" />
<glyph unicode="3" d="M66 324q0 29 2 43h317v-17q0 -68 46 -108.5t130 -40.5q106 0 176 67.5t70 200.5q0 86 -54.5 131t-152.5 45h-125l47 219h150q92 0 167.5 59.5t75.5 166.5q0 66 -43 105.5t-106 39.5q-139 0 -201 -141h-311q63 172 207.5 271t351.5 99q182 0 307 -86t125 -239 q0 -143 -106.5 -243.5t-264.5 -125.5q115 -14 189 -102t74 -207q0 -31 -7 -66q-39 -201 -197.5 -313.5t-397.5 -112.5q-211 0 -340 99.5t-129 255.5z" />
<glyph unicode="4" d="M59 270l58 271l784 893h328l-197 -928h162l-49 -236h-162l-57 -270h-303l57 270h-621zM414 506h315l107 500z" />
<glyph unicode="5" d="M119 338q0 6 1 16.5t1 14.5h311q0 -84 45 -126t125 -42q109 0 181.5 101t72.5 251q0 94 -49 143t-135 49q-100 0 -201 -88h-252l201 777h856l-47 -226h-570l-86 -321q123 68 244 67q168 0 271.5 -102t103.5 -272q0 -274 -183.5 -442.5t-443.5 -168.5q-201 0 -323.5 97.5 t-122.5 271.5z" />
<glyph unicode="6" d="M109 479q0 106 24 232q39 186 100.5 324.5t129 219t155.5 129t166 64.5t170 16q193 0 312.5 -83t133.5 -230h-346q-12 98 -137 98q-94 0 -176 -96t-152 -334q145 160 338 160q170 0 268.5 -105.5t98.5 -279.5q0 -281 -180 -453t-457 -172q-211 0 -329.5 134t-118.5 376z M422 412q0 -88 41 -152.5t129 -64.5q115 0 194.5 108.5t79.5 274.5q0 176 -155 176q-121 0 -205 -103.5t-84 -238.5z" />
<glyph unicode="7" d="M168 0l795 1192h-670l51 242h993l-53 -250l-770 -1184h-346z" />
<glyph unicode="8" d="M61 330q0 166 89.5 257t259.5 158q-164 100 -164 269q0 160 84 264t206.5 145t278.5 41q111 0 211 -29.5t176 -105.5t76 -184q0 -248 -311 -381q197 -121 196 -318q0 -221 -163.5 -349t-440.5 -128q-229 0 -363.5 100.5t-134.5 260.5zM403 354q0 -80 54.5 -120.5 t122.5 -40.5q92 0 168.5 65.5t76.5 181.5q0 84 -55 130t-143 75q-224 -98 -224 -291zM563 1053q0 -135 176 -191q221 98 222 256q0 70 -54.5 108t-109.5 38q-49 0 -98.5 -16.5t-92.5 -66.5t-43 -128z" />
<glyph unicode="9" d="M72 313h346q0 -63 39 -96t104 -33q92 0 168 92.5t145 327.5q-139 -150 -325 -149q-188 0 -281.5 105.5t-93.5 283.5q0 127 36 232.5t95.5 176t141 119.5t170 70.5t184.5 21.5q211 0 336 -125t125 -368q0 -119 -20.5 -245t-73 -265t-131.5 -245.5t-209 -176.5t-293 -70 q-201 0 -328 93t-135 251zM504 879q0 -96 45 -147.5t127 -51.5q125 0 197.5 106.5t72.5 251.5q0 88 -40 144.5t-128 56.5q-131 0 -202.5 -105t-71.5 -255z" />
<glyph unicode=":" horiz-adv-x="591" d="M33 0l67 322h363l-68 -322h-362zM190 743l68 322h363l-68 -322h-363z" />
<glyph unicode=";" horiz-adv-x="591" d="M-86 -375l31 160q178 37 217 215h-129l67 322h363l-64 -302q-25 -113 -78 -191.5t-126.5 -118.5t-138 -58.5t-142.5 -26.5zM190 743l68 322h363l-68 -322h-363z" />
<glyph unicode="&#x3c;" d="M197 543l51 239l991 430l-63 -309l-629 -239l-2 -15l526 -239l-65 -297z" />
<glyph unicode="=" d="M150 324l53 251h901l-53 -251h-901zM240 743l53 252h901l-53 -252h-901z" />
<glyph unicode="&#x3e;" d="M104 113l66 309l629 240l2 14l-527 239l64 297l811 -430l-51 -239z" />
<glyph unicode="?" horiz-adv-x="1122" d="M242 1096q47 174 200.5 291.5t356.5 117.5q195 0 308.5 -84t113.5 -215q0 -133 -70 -228t-279 -288q-33 -31 -55 -69.5t-30.5 -68.5t-20.5 -81h-322q33 150 67 220.5t140 170.5q137 133 179 195.5t42 120.5q0 41 -28.5 64.5t-75.5 23.5q-113 0 -180 -170h-346zM328 0 l67 322h363l-68 -322h-362z" />
<glyph unicode="@" horiz-adv-x="1873" d="M156 573q0 199 59 362t156.5 266.5t224.5 174t256 100t262 29.5q340 0 553 -169t213 -470q0 -303 -145.5 -487t-343.5 -184q-96 0 -154.5 52t-62.5 126q-33 -59 -115 -108.5t-180 -49.5q-150 0 -225.5 95.5t-75.5 250.5q0 254 144 413t329 159q57 0 102 -25t57 -64l43 74 h209l-108 -540q-18 -86 -19 -121q0 -72 66 -72q88 0 143 134t55 349q0 430 -499 430q-113 0 -222.5 -36.5t-213 -115.5t-167 -226.5t-63.5 -344.5q0 -287 162 -418.5t416 -131.5q145 0 327 55l41 -201q-184 -66 -399 -65q-164 0 -309.5 48t-262 139t-185 239.5t-68.5 332.5z M846 539q0 -131 98 -131q51 0 93 48t63 146l22 109q16 80 17 118q0 115 -84 115t-146.5 -105t-62.5 -300z" />
<glyph unicode="A" horiz-adv-x="1435" d="M-82 0l838 1475h383l215 -1475h-353l-32 338h-525l-176 -338h-350zM561 563h387l-59 629z" />
<glyph unicode="B" horiz-adv-x="1325" d="M41 0l313 1475h471q539 0 539 -318q0 -154 -104.5 -251t-260.5 -126q125 -27 203 -108.5t78 -198.5q0 -473 -680 -473h-559zM432 225h211q141 0 214 67.5t73 194.5q0 82 -55.5 129.5t-151.5 47.5h-199zM569 877h189q117 0 185.5 60t68.5 161q0 70 -55.5 110.5 t-145.5 40.5h-162z" />
<glyph unicode="C" horiz-adv-x="1517" d="M131 559q0 125 23.5 249t86 252t155.5 225t245 158.5t342 61.5q246 0 414 -129t168 -356v-27h-344q0 135 -70 204t-190 69q-104 0 -188.5 -52.5t-135.5 -131t-85 -178t-47 -186.5t-13 -165q0 -174 73.5 -258t192.5 -84q143 0 234 80t141 252h350q-190 -573 -764 -574 q-279 0 -433.5 154.5t-154.5 435.5z" />
<glyph unicode="D" horiz-adv-x="1492" d="M41 0l313 1475h506q305 0 476 -142.5t171 -412.5q0 -76 -9 -153t-34.5 -170t-66.5 -175t-109.5 -161t-158 -135t-218.5 -91t-284 -35h-586zM434 240h221q141 0 247 69.5t157 177t74.5 210t23.5 196.5q0 168 -87 256t-239 88h-184z" />
<glyph unicode="E" horiz-adv-x="1189" d="M41 0l313 1475h996l-56 -252h-651l-76 -361h592l-51 -237h-592l-80 -377h651l-51 -248h-995z" />
<glyph unicode="F" horiz-adv-x="1120" d="M41 0l313 1475h936l-53 -248h-592l-84 -393h529l-52 -238h-528l-125 -596h-344z" />
<glyph unicode="G" horiz-adv-x="1533" d="M131 551q0 106 19.5 219t79 249t153.5 240.5t259 175t378 70.5q252 0 402.5 -120.5t150.5 -331.5h-342q-6 106 -76 159.5t-182 53.5q-131 0 -231.5 -79t-151.5 -198t-74.5 -231.5t-23.5 -206.5q0 -170 75.5 -255t204.5 -85q143 0 249.5 79t135.5 204l23 104h-349l48 223 h645l-174 -821h-222l-20 137q-186 -168 -440 -168q-236 0 -386.5 154t-150.5 428z" />
<glyph unicode="H" horiz-adv-x="1480" d="M41 0l313 1475h344l-129 -607h549l129 607h342l-313 -1475h-342l131 623h-549l-131 -623h-344z" />
<glyph unicode="I" horiz-adv-x="589" d="M41 0l313 1475h344l-313 -1475h-344z" />
<glyph unicode="J" horiz-adv-x="1157" d="M49 379q0 37 2 57h328q-6 -31 -6 -57q0 -84 46 -125t107 -41q72 0 122 48t77 175l221 1039h330l-219 -1024q-55 -250 -183.5 -366t-363.5 -116q-123 0 -222.5 37t-169 133.5t-69.5 239.5z" />
<glyph unicode="K" horiz-adv-x="1466" d="M41 0l313 1475h344l-133 -619l637 619h418l-768 -721l532 -754h-423l-439 657l-137 -657h-344z" />
<glyph unicode="L" horiz-adv-x="1224" d="M41 0l313 1475h344l-260 -1217h717l-53 -258h-1061z" />
<glyph unicode="M" horiz-adv-x="1828" d="M41 0l313 1475h385l154 -1151l633 1151h411l-313 -1475h-311l215 1016l-561 -1016h-281l-139 1014l-215 -1014h-291z" />
<glyph unicode="N" horiz-adv-x="1476" d="M41 0l313 1475h381l340 -1022l217 1022h293l-313 -1475h-354l-359 1067l-223 -1067h-295z" />
<glyph unicode="O" horiz-adv-x="1605" d="M131 578q0 127 26.5 250.5t90 247.5t159 218.5t246 152.5t334.5 58q164 0 303.5 -62.5t234.5 -205.5t95 -346q0 -115 -22.5 -231.5t-84 -243.5t-154.5 -223.5t-248 -160t-351 -63.5q-121 0 -230.5 37t-200.5 108.5t-144.5 191.5t-53.5 272zM483 567q0 -182 91.5 -268 t220.5 -86q121 0 217 68.5t149 176t81 222.5t28 225q0 182 -90 270.5t-219 88.5q-125 0 -222.5 -70t-149.5 -179.5t-79 -224t-27 -223.5z" />
<glyph unicode="P" horiz-adv-x="1363" d="M41 0l313 1475h514q281 0 421.5 -109t140.5 -305q0 -281 -182.5 -424t-526.5 -143h-232l-104 -494h-344zM539 729h219q143 0 229 86t86 227q0 197 -252 197h-174z" />
<glyph unicode="Q" horiz-adv-x="1605" d="M131 578q0 127 26.5 250.5t90 247.5t159 218.5t246 152.5t334.5 58q164 0 303.5 -62.5t234.5 -205.5t95 -346q0 -133 -30.5 -266t-114.5 -277.5t-213 -234.5l165 -242l-317 -195l-125 318q-117 -25 -225 -25q-121 0 -230.5 37t-200.5 108.5t-144.5 191.5t-53.5 272z M483 567q0 -182 91.5 -268t220.5 -86q121 0 217 68.5t149 176t81 222.5t28 225q0 182 -90 270.5t-219 88.5q-125 0 -222.5 -70t-149.5 -179.5t-79 -224t-27 -223.5z" />
<glyph unicode="R" horiz-adv-x="1398" d="M41 0l313 1475h523q268 0 412.5 -101.5t144.5 -283.5q0 -186 -107.5 -310.5t-300.5 -183.5l281 -596h-400l-215 539h-194l-113 -539h-344zM549 776h223q129 0 215 74t86 211q0 176 -235 176h-191z" />
<glyph unicode="S" horiz-adv-x="1318" d="M51 410v24h326v-12q0 -96 72.5 -154.5t209.5 -58.5q287 0 287 190q0 92 -71.5 142.5t-260.5 97.5q-403 100 -403 403q0 463 616 463q262 0 407.5 -108.5t145.5 -300.5h-321v12q0 76 -69.5 119t-178.5 43q-125 0 -182.5 -39t-57.5 -123q0 -76 64.5 -125t204.5 -84 q463 -115 463 -440q0 -489 -664 -490q-274 0 -431 119t-157 322z" />
<glyph unicode="T" horiz-adv-x="1234" d="M186 1217l56 258h1214l-55 -258h-438l-258 -1217h-345l258 1217h-432z" />
<glyph unicode="U" horiz-adv-x="1460" d="M119 393q0 53 12 113l207 969h344l-213 -992q-8 -41 -8 -63q0 -96 67.5 -151.5t184.5 -55.5q268 0 319 246l217 1016h330l-211 -994q-109 -512 -682 -512q-262 0 -414.5 113.5t-152.5 310.5z" />
<glyph unicode="V" horiz-adv-x="1353" d="M231 1475h340l74 -1207l594 1207h346l-784 -1475h-412z" />
<glyph unicode="W" horiz-adv-x="2017" d="M231 1475h336v-1090l482 1090h383l34 -1096l447 1096h336l-643 -1475h-406l-33 1139l-503 -1139h-392z" />
<glyph unicode="X" horiz-adv-x="1435" d="M-72 0l672 770l-326 705h375l199 -455l383 455h385l-623 -703l350 -772h-376l-224 506l-409 -506h-406z" />
<glyph unicode="Y" horiz-adv-x="1368" d="M231 1475h355l194 -601l477 601h342l-710 -887l-125 -588h-324l125 588z" />
<glyph unicode="Z" horiz-adv-x="1269" d="M-31 0l51 248l975 983h-727l54 244h1128l-53 -242l-977 -989h756l-52 -244h-1155z" />
<glyph unicode="[" horiz-adv-x="696" d="M-35 -348l428 2007h512l-45 -211h-233l-338 -1585h233l-45 -211h-512z" />
<glyph unicode="\" horiz-adv-x="696" d="M238 1505h282l53 -1689h-282z" />
<glyph unicode="]" horiz-adv-x="696" d="M-94 -348l43 211h233l338 1585h-233l45 211h512l-428 -2007h-510z" />
<glyph unicode="^" horiz-adv-x="1064" d="M145 819l465 656h308l186 -656h-299l-88 408l-260 -408h-312z" />
<glyph unicode="_" horiz-adv-x="1114" d="M-145 -305l53 252h1112l-53 -252h-1112z" />
<glyph unicode="`" horiz-adv-x="675" d="M303 1475h336l145 -281h-237z" />
<glyph unicode="a" horiz-adv-x="1187" d="M45 240q0 164 114.5 261t383.5 138l284 45l4 18q8 35 9 62q0 59 -39 92t-109 33q-147 0 -194 -131h-328q154 338 565 338q195 0 308.5 -90.5t113.5 -237.5q0 -45 -8 -84l-145 -684h-250l-17 111q-152 -141 -383 -142q-143 0 -226 72t-83 199zM371 293q0 -49 31.5 -77 t91.5 -28q104 0 179 59.5t93 145.5l25 117l-203 -39q-123 -23 -170 -64.5t-47 -113.5z" />
<glyph unicode="b" horiz-adv-x="1302" d="M31 0l313 1475h320l-111 -517q158 137 330 138q180 0 289.5 -117t109.5 -311q0 -84 -17.5 -173t-62.5 -185.5t-110.5 -170t-173 -122t-240.5 -48.5q-96 0 -184 43t-134 109l-79 -121h-250zM440 420q0 -104 55.5 -160.5t153.5 -56.5q88 0 151.5 48t94.5 123t44 140.5 t13 120.5q0 113 -53 170t-145 57q-86 0 -152.5 -50t-98.5 -126t-47.5 -143.5t-15.5 -122.5z" />
<glyph unicode="c" horiz-adv-x="1208" d="M84 389q0 92 18.5 183.5t64.5 187.5t116.5 168.5t185.5 120t258 47.5q215 0 351 -99.5t141 -259.5h-336q-4 63 -53.5 102.5t-112.5 39.5q-86 0 -149.5 -51.5t-94.5 -130.5t-44 -148.5t-13 -128.5q0 -111 49 -172.5t123 -61.5q70 0 120 40t95 128h336 q-78 -182 -212 -283.5t-358 -101.5q-242 0 -363.5 109.5t-121.5 310.5z" />
<glyph unicode="d" horiz-adv-x="1300" d="M82 406q0 92 21.5 185t69.5 184t115.5 162t169 115t222.5 44q102 0 185 -38t126 -102l109 519h319l-313 -1475h-250l-29 117q-162 -147 -348 -148q-180 0 -288.5 120t-108.5 317zM410 432q0 -111 54 -170t146 -59q88 0 154.5 50t98.5 127t46.5 143.5t14.5 125.5 q0 113 -57.5 163t-143.5 50q-90 0 -156.5 -47t-98.5 -119.5t-45 -138.5t-13 -125z" />
<glyph unicode="e" horiz-adv-x="1232" d="M90 430q0 68 13.5 144.5t56.5 173t110.5 171t187.5 126t273 51.5q221 0 349 -114t128 -335q0 -84 -22 -192h-776q-2 -14 -2 -41q0 -109 56 -165t154 -56q139 0 199 116h326q-76 -164 -204 -252t-351 -88q-221 0 -359.5 126t-138.5 335zM449 641h448q6 37 6 70 q0 184 -186 184q-188 0 -268 -254z" />
<glyph unicode="f" horiz-adv-x="778" d="M111 0l178 844h-162l47 221h162l16 78q41 197 140.5 279.5t295.5 82.5q127 0 240 -41l-47 -227q-98 35 -162 35q-68 0 -100.5 -26.5t-44.5 -90.5l-19 -90h234l-47 -221h-234l-178 -844h-319z" />
<glyph unicode="g" horiz-adv-x="1280" d="M2 -66h326q14 -61 61 -85.5t143 -24.5q100 0 158 51t82 162l23 100q-139 -106 -297 -106q-178 0 -291 119.5t-113 316.5q0 285 168 457t420 172q94 0 181 -37t130 -98l76 104h242l-215 -1008q-47 -219 -197.5 -337.5t-400.5 -118.5q-242 0 -369 83t-127 230v20zM418 485 q0 -104 56 -162.5t149 -58.5q86 0 148.5 40t94 102.5t46 122t14.5 116.5q0 104 -55.5 160.5t-147.5 56.5q-152 0 -228.5 -118t-76.5 -259z" />
<glyph unicode="h" horiz-adv-x="1230" d="M31 0l313 1475h320l-109 -506q141 127 319 127q154 0 240 -82t86 -228q0 -57 -12 -118l-141 -668h-320l141 664q8 35 9 67q0 70 -39 104.5t-105 34.5q-88 0 -156.5 -60t-91.5 -169l-135 -641h-319z" />
<glyph unicode="i" horiz-adv-x="585" d="M51 0l225 1065h320l-225 -1065h-320zM293 1202l59 273h344l-59 -273h-344z" />
<glyph unicode="j" horiz-adv-x="567" d="M-270 -360l47 223q70 -27 127 -27q53 0 82.5 25.5t42.5 85.5l237 1118h320l-242 -1135q-70 -330 -401 -329q-129 0 -213 39zM283 1202l59 273h344l-59 -273h-344z" />
<glyph unicode="k" horiz-adv-x="1198" d="M31 0l313 1475h320l-170 -793l428 383h387l-529 -467l357 -598h-394l-290 489l-103 -489h-319z" />
<glyph unicode="l" horiz-adv-x="544" d="M31 0l313 1475h320l-314 -1475h-319z" />
<glyph unicode="m" horiz-adv-x="1886" d="M31 0l225 1065h225l29 -117q154 147 340 148q242 0 309 -148q162 147 367 148q152 0 240.5 -77t88.5 -226q0 -45 -14 -121l-141 -672h-320l144 686q6 27 6 55q0 61 -36 95t-99 34q-92 0 -152.5 -60t-81.5 -159l-137 -651h-319l143 686q6 27 6 55q0 61 -36 95t-99 34 q-84 0 -146.5 -57t-80.5 -147l-142 -666h-319z" />
<glyph unicode="n" horiz-adv-x="1230" d="M31 0l225 1065h264l6 -117q158 147 348 148q154 0 240 -82t86 -228q0 -57 -12 -118l-141 -668h-320l141 664q8 33 9 67q0 70 -39 104.5t-105 34.5q-88 0 -156.5 -60t-91.5 -169l-135 -641h-319z" />
<glyph unicode="o" horiz-adv-x="1269" d="M88 424q0 86 14.5 168t57.5 177t111.5 165t188.5 116t275 46q231 0 368.5 -120t137.5 -331q0 -82 -14.5 -163t-58.5 -177t-112.5 -167.5t-188 -120t-275.5 -48.5q-233 0 -368.5 120t-135.5 335zM416 418q0 -115 55 -174.5t145 -59.5q76 0 134.5 39t89 93.5t49 125 t24 121.5t5.5 96q0 113 -54.5 167.5t-146.5 54.5q-78 0 -137.5 -39t-89 -92.5t-48 -124t-22.5 -117.5t-4 -90z" />
<glyph unicode="p" horiz-adv-x="1300" d="M-49 -369l305 1434h242l37 -125q160 156 350 156q178 0 286.5 -119t108.5 -315q0 -299 -173 -496t-437 -197q-88 0 -171 37t-128 94l-101 -469h-319zM438 418q0 -106 57.5 -160.5t153.5 -54.5q106 0 179 75.5t98.5 168t25.5 188.5q0 111 -53 169t-145 58q-90 0 -157 -52 t-98.5 -129t-46 -143.5t-14.5 -119.5z" />
<glyph unicode="q" horiz-adv-x="1300" d="M82 412q0 74 15.5 155.5t57.5 179t106.5 172t174 126t248.5 51.5q109 0 191.5 -42t125.5 -116l89 127h241l-305 -1434h-319l100 467q-154 -129 -328 -129q-180 0 -288.5 122t-108.5 321zM410 440q0 -113 54 -175t146 -62q88 0 152.5 43t97.5 112.5t48.5 137t15.5 133.5 q0 111 -56.5 172t-148.5 61q-74 0 -131.5 -31.5t-90 -77.5t-53 -106.5t-27.5 -110t-7 -96.5z" />
<glyph unicode="r" horiz-adv-x="813" d="M31 0l225 1065h266v-162q129 193 320 193q72 0 119 -15l-64 -297q-61 20 -133 21q-109 0 -197 -93.5t-125 -269.5l-92 -442h-319z" />
<glyph unicode="s" horiz-adv-x="1071" d="M33 289v12h321q0 -51 44 -83t118 -32q170 0 170 101q0 49 -48 81.5t-179 65.5q-319 78 -320 316q0 346 479 346q211 0 334 -87t123 -239h-321q0 109 -152 109q-133 0 -133 -86t197 -142q168 -45 262 -114.5t94 -196.5q0 -182 -123 -276.5t-391 -94.5q-213 0 -344 88.5 t-131 231.5z" />
<glyph unicode="t" horiz-adv-x="753" d="M117 844l47 221h162l75 256h299l-55 -256h219l-47 -221h-219l-119 -557q-2 -8 -2 -23q0 -68 88 -67q39 0 123 26l-47 -217q-106 -37 -192 -37q-139 0 -217 65.5t-78 184.5q0 37 10 88l115 537h-162z" />
<glyph unicode="u" horiz-adv-x="1220" d="M90 279q0 61 14 124l142 662h319l-145 -688q-6 -29 -6 -49q0 -63 40 -98t107 -35q84 0 148.5 61t87.5 170l135 639h319l-225 -1065h-264l-8 113q-147 -143 -342 -144q-154 0 -238 82.5t-84 227.5z" />
<glyph unicode="v" horiz-adv-x="1159" d="M154 1065h333l58 -829l405 829h342l-594 -1065h-403z" />
<glyph unicode="w" horiz-adv-x="1761" d="M164 1065h317v-801l359 801h381l-2 -805l354 805h311l-518 -1065h-399v778l-355 -778h-387z" />
<glyph unicode="x" horiz-adv-x="1175" d="M-72 0l516 561l-270 504h358l130 -279l245 279h346l-458 -500l288 -565h-368l-142 330l-290 -330h-355z" />
<glyph unicode="y" horiz-adv-x="1169" d="M43 -369l49 224q80 -27 135 -27q106 0 174 172h-90l-157 1065h329l60 -832l430 832h330l-623 -1108q-117 -209 -210 -282.5t-239 -73.5q-96 -1 -188 30z" />
<glyph unicode="z" horiz-adv-x="1038" d="M-41 0l51 248l674 581h-512l49 236h920l-54 -248l-665 -581h522l-49 -236h-936z" />
<glyph unicode="{" horiz-adv-x="696" d="M66 557l51 238q172 0 211 180l67 321q20 100 56 168t78 107t110 58.5t128 24.5t159 5l-47 -221q-100 -2 -140.5 -27t-60.5 -125l-68 -317q-29 -135 -92 -203t-164 -100q139 -51 140 -199q0 -45 -13 -105l-71 -337q-10 -47 -11 -74q0 -53 33 -69.5t111 -18.5l-45 -211 q-195 0 -290 53t-95 203q0 63 18 147l68 322q6 31 6 59q0 121 -139 121z" />
<glyph unicode="|" horiz-adv-x="696" d="M66 -287l401 1895h278l-401 -1895h-278z" />
<glyph unicode="}" horiz-adv-x="696" d="M-117 -348l47 221q100 2 140.5 26.5t60.5 125.5l68 317q29 135 92 202.5t164 100.5q-139 51 -140 199q0 43 13 104l71 338q8 39 9 72q0 55 -32 71.5t-110 18.5l45 211q195 0 289 -54.5t94 -203.5q0 -72 -16 -146l-68 -321q-8 -45 -8 -60q0 -121 141 -120l-51 -238 q-174 0 -211 -180l-67 -322q-20 -100 -56 -167.5t-78 -106.5t-110 -58.5t-128.5 -24.5t-158.5 -5z" />
<glyph unicode="~" d="M186 496l56 260q119 82 282 82q88 0 194.5 -56.5t166.5 -56.5q133 0 272 102l-55 -260q-119 -82 -283 -82q-88 0 -193.5 56.5t-164.5 56.5q-136 0 -275 -102z" />
<glyph unicode="&#xa1;" horiz-adv-x="634" d="M-47 -369l266 1014h303l-164 -1014h-405zM225 815l68 322h362l-67 -322h-363z" />
<glyph unicode="&#xa2;" d="M86 389q0 109 27.5 216.5t86 213t172 179t265.5 92.5l55 262h264l-59 -275q147 -35 233.5 -125t90.5 -215h-336q-4 63 -53.5 102.5t-112.5 39.5q-86 0 -149.5 -51.5t-94.5 -130.5t-44 -148.5t-13 -128.5q0 -111 49 -172.5t123 -61.5q70 0 120 40t95 128h336 q-150 -342 -477 -379l-54 -251h-264l53 264q-313 69 -313 401z" />
<glyph unicode="&#xa3;" d="M12 0l54 258q63 18 90.5 62.5t48.5 138.5l35 159h-113l39 191h113l49 215q51 225 180 332.5t358 107.5q201 0 317.5 -98t116.5 -252v-18h-307q-6 129 -145 129q-76 0 -123 -50.5t-72 -164.5l-43 -201h414l-39 -191h-416l-32 -147q-31 -135 -140 -213h690l-53 -258h-1022z " />
<glyph unicode="&#xa4;" d="M174 322l121 120q-57 109 -57 254q0 137 55 248l-119 119l180 180l113 -115q121 72 266 72q147 0 268 -72l115 115l180 -180l-118 -119q55 -111 55 -248q0 -141 -59 -254l122 -120l-180 -181l-119 119q-121 -68 -264 -67.5t-260 67.5l-119 -119zM489 696.5 q0 -116.5 68 -187.5t178 -71q109 0 177.5 71t68.5 187.5t-68.5 187t-177.5 70.5q-111 0 -178.5 -70.5t-67.5 -187z" />
<glyph unicode="&#xa5;" d="M170 266l41 191h256l20 96h-256l41 190h164l-264 691h350l180 -580l451 580h346l-555 -691h164l-41 -190h-256l-20 -96h256l-41 -191h-256l-56 -266h-323l55 266h-256z" />
<glyph unicode="&#xa6;" horiz-adv-x="696" d="M66 -287l167 789h279l-168 -789h-278zM301 819l166 789h278l-165 -789h-279z" />
<glyph unicode="&#xa7;" d="M106 106q0 14 5 44h284q0 -51 41 -87t105 -36q119 0 118 94q0 37 -35.5 66.5t-125.5 68.5q-68 31 -115 57.5t-96 66.5t-75 92t-26 116q0 119 66.5 192.5t210.5 122.5q-113 82 -113 225q0 61 17.5 112.5t62.5 106t140.5 85t234.5 30.5q184 0 289.5 -95t105.5 -212 q0 -23 -2 -33h-285q0 53 -36.5 90t-94.5 37q-113 0 -112 -92q0 -39 37.5 -68.5t123.5 -66.5q158 -68 237 -141.5t79 -196.5q0 -217 -273 -309q49 -35 79 -94.5t30 -120.5q0 -137 -113.5 -241.5t-359.5 -104.5q-188 0 -296 81.5t-108 210.5zM510 623q0 -49 40 -86t142 -74 q131 80 131 188q0 51 -41 90t-143 74q-129 -81 -129 -192z" />
<glyph unicode="&#xa8;" horiz-adv-x="897" d="M236 1212l57 263h303l-57 -263h-303zM707 1212l57 263h303l-57 -263h-303z" />
<glyph unicode="&#xa9;" horiz-adv-x="1726" d="M170 737.5q0 194.5 68.5 346t183.5 240.5t250 135t280.5 46t280.5 -46t249.5 -135t183.5 -240.5t69 -346t-69 -346t-183.5 -241t-249.5 -135.5t-280.5 -46t-280.5 46t-250 135.5t-183.5 241t-68.5 346zM379 737.5q0 -286.5 170 -443.5t403.5 -157t403.5 157t170 443.5 t-170 443t-403.5 156.5t-403.5 -156.5t-170 -443zM539 733q0 209 114.5 328t311.5 119q164 0 274.5 -76t136.5 -203h-262q-12 49 -51 80t-90 31q-174 0 -174 -283q0 -129 45 -193.5t121 -64.5q109 0 151 129h262q-33 -135 -136 -216t-281 -81q-201 0 -311.5 108.5 t-110.5 321.5z" />
<glyph unicode="&#xaa;" horiz-adv-x="1075" d="M72 0l53 252h786l-53 -252h-786zM240 825q0 104 65.5 178t154.5 106t206 46l145 16l10 43q2 10 2 29q0 39 -23.5 57.5t-56.5 18.5q-78 0 -114 -84h-279q45 127 160 198.5t270 71.5q147 0 236.5 -70.5t89.5 -189.5q0 -33 -6 -65l-117 -551h-199l-24 88 q-117 -113 -258 -113q-102 0 -182 55t-80 166zM535 879q0 -35 24.5 -56.5t69.5 -21.5q51 0 83.5 31.5t43.5 78.5l20 99l-92 -13q-149 -18 -149 -118z" />
<glyph unicode="&#xab;" horiz-adv-x="1116" d="M145 645l355 420h239l-280 -426l73 -455h-225zM573 645l355 420h239l-280 -426l74 -455h-226z" />
<glyph unicode="&#xac;" d="M195 535l53 251h901l-123 -577h-264l69 326h-636z" />
<glyph unicode="&#xad;" horiz-adv-x="1105" d="M195 535l53 251h778l-53 -251h-778z" />
<glyph unicode="&#xae;" horiz-adv-x="1277" d="M221 975q0 135 47 240.5t126 167t171 92t190.5 30.5t191.5 -30.5t172 -92t127 -167t48 -240.5t-48 -240.5t-127 -167t-172 -92.5t-191.5 -31t-190.5 31t-171 92.5t-126 167t-47 240.5zM379 975q0 -205 109.5 -305.5t267 -100.5t269.5 100.5t112 305.5t-112 305 t-269.5 100t-267 -100t-109.5 -305zM555 719v541h201q229 0 229 -170q0 -113 -108 -152l145 -219h-152l-118 199h-70v-199h-127zM682 1004h80q37 0 64.5 20t27.5 66q0 82 -96 81h-76v-167z" />
<glyph unicode="&#xaf;" horiz-adv-x="675" d="M244 1245l49 230h553l-49 -230h-553z" />
<glyph unicode="&#xb0;" horiz-adv-x="1105" d="M217 1085q0 176 118 283t279 107q139 0 231.5 -81t92.5 -220q0 -172 -119 -280t-280 -108q-139 0 -230.5 80t-91.5 219zM461 1098q0 -113 100 -113q55 0 93 42t38 128q0 121 -100 121q-61 0 -96 -47t-35 -131z" />
<glyph unicode="&#xb1;" d="M82 0l53 252h901l-53 -252h-901zM195 535l53 251h317l70 324h264l-70 -324h320l-53 -251h-320l-43 -203h-264l43 203h-317z" />
<glyph unicode="&#xb2;" horiz-adv-x="696" d="M186 860l37 174l242 197q6 4 33.5 26.5t35 29.5t29 26.5t29.5 30t19.5 28t15.5 33.5t4 33q0 57 -56 57q-57 0 -92 -72h-211q100 236 346 236q109 0 172.5 -53.5t63.5 -141.5q0 -51 -20.5 -99t-68.5 -98t-78 -76t-97 -79l-98 -78h270l-37 -174h-539z" />
<glyph unicode="&#xb3;" horiz-adv-x="696" d="M197 1049q0 4 1 10t1 10h221q0 -27 18.5 -43t44.5 -16q39 0 61.5 31.5t22.5 80.5q0 70 -100 70h-37l35 158h51q45 0 73.5 27.5t28.5 68.5q0 49 -53 49q-43 0 -67 -43h-209q33 90 116.5 148.5t200.5 58.5q98 0 166 -47t68 -133q0 -70 -45 -124.5t-129 -78.5 q131 -29 131 -148q0 -127 -96.5 -203.5t-237.5 -76.5q-117 0 -191.5 55.5t-74.5 145.5z" />
<glyph unicode="&#xb4;" horiz-adv-x="675" d="M221 1194l268 281h357l-367 -281h-258z" />
<glyph unicode="&#xb5;" horiz-adv-x="1230" d="M-49 -367l305 1432h319l-145 -688q-6 -29 -6 -49q0 -63 40 -98t107 -35q84 0 148.5 61t87.5 170l135 639h320l-226 -1065h-264l-8 113q-147 -143 -342 -144q-43 0 -80 6l-72 -342h-319z" />
<glyph unicode="&#xb6;" horiz-adv-x="1382" d="M193 1018q0 135 44 230t117.5 141.5t149.5 66t160 19.5h299l-394 -1844h-299l215 1014q-100 0 -196 102.5t-96 270.5zM809 -369l393 1844h299l-393 -1844h-299z" />
<glyph unicode="&#xb7;" horiz-adv-x="552" d="M139 508l62 291h323l-61 -291h-324z" />
<glyph unicode="&#xb8;" horiz-adv-x="733" d="M-82 -281h205q0 -84 98 -84t98 80q0 82 -151 82l80 254h176l-29 -133q66 -18 101.5 -65.5t35.5 -110.5q0 -121 -88 -195.5t-229 -74.5q-135 0 -216 62.5t-81 166.5v18z" />
<glyph unicode="&#xb9;" horiz-adv-x="696" d="M205 860l37 180h159l84 396l-178 -93l43 203l172 92h221l-129 -598h140l-37 -180h-512z" />
<glyph unicode="&#xba;" horiz-adv-x="1073" d="M47 0l53 252h818l-54 -252h-817zM233 961q0 76 14.5 148.5t51.5 146t91 128t142.5 88t198.5 33.5q76 0 140.5 -15t123 -51t91 -106.5t32.5 -171.5q0 -76 -13 -148.5t-48 -148.5t-88.5 -132t-143.5 -92t-202 -36q-166 0 -278 82t-112 275zM528 952q0 -156 113 -155 q51 0 90 36.5t58.5 96t27.5 118t8 115.5q0 150 -110 150q-55 0 -94 -36t-57.5 -95.5t-27 -116t-8.5 -113.5z" />
<glyph unicode="&#xbb;" horiz-adv-x="1116" d="M70 184l266 455l-100 426h225l188 -420l-340 -461h-239zM498 184l266 455l-100 426h225l188 -420l-340 -461h-239z" />
<glyph unicode="&#xbc;" horiz-adv-x="1802" d="M139 -184l1274 1802h246l-1276 -1802h-244zM156 655l37 181h159l84 395l-178 -92l43 202l172 93h221l-129 -598h140l-37 -181h-512zM883 145l39 185l268 448h225l-266 -456h80l10 47l53 123h172l-37 -170h84l-36 -177h-84l-31 -145h-199l31 145h-309z" />
<glyph unicode="&#xbd;" horiz-adv-x="1802" d="M139 -184l1274 1802h246l-1276 -1802h-244zM158 655l37 181h159l84 395l-178 -92l43 202l172 93h221l-129 -598h140l-37 -181h-512zM924 0l37 174l241 197q6 4 34 26.5t35 29.5t28.5 26.5t29.5 30t19.5 27.5t15.5 33.5t4 33.5q0 57 -55 57q-57 0 -92 -72h-211 q100 236 346 236q109 0 172 -53.5t63 -141.5q0 -51 -20.5 -99t-68.5 -98.5t-77.5 -76t-97.5 -78.5l-98 -78h270l-37 -174h-538z" />
<glyph unicode="&#xbe;" horiz-adv-x="1802" d="M139 -184l1274 1802h246l-1276 -1802h-244zM170 854q0 2 1 10t1 10h221q0 -27 18.5 -43t45.5 -16q39 0 61.5 32t22.5 81q0 70 -101 69h-37l35 158h51q45 0 74 27.5t29 68.5q0 49 -53 49q-43 0 -68 -43h-209q33 90 117 148.5t201 58.5q98 0 165.5 -47t67.5 -133 q0 -70 -45 -124t-129 -79q131 -29 131 -147q0 -127 -96 -204t-238 -77q-117 0 -191.5 55.5t-74.5 145.5zM883 145l39 185l268 448h225l-266 -456h80l10 47l53 123h172l-37 -170h84l-36 -177h-84l-31 -145h-199l31 145h-309z" />
<glyph unicode="&#xbf;" horiz-adv-x="1122" d="M-29 -100q0 57 15.5 107t34 87t72.5 97.5t93 97.5t133 127q72 68 107 219h322q-31 -145 -69 -219t-138 -172q-137 -133 -179.5 -195.5t-42.5 -120.5q0 -41 29 -64.5t76 -23.5q113 0 180 170h346q-47 -174 -200.5 -291.5t-356.5 -117.5q-195 0 -308.5 84t-113.5 215z M434 784l68 322h362l-67 -322h-363z" />
<glyph unicode="&#xc0;" horiz-adv-x="1435" d="M-82 0l838 1475h383l215 -1475h-353l-32 338h-525l-176 -338h-350zM561 563h387l-59 629zM715 1864h336l145 -281h-238z" />
<glyph unicode="&#xc1;" horiz-adv-x="1435" d="M-82 0l838 1475h383l215 -1475h-353l-32 338h-525l-176 -338h-350zM561 563h387l-59 629zM715 1583l268 281h356l-366 -281h-258z" />
<glyph unicode="&#xc2;" horiz-adv-x="1435" d="M-82 0l838 1475h383l215 -1475h-353l-32 338h-525l-176 -338h-350zM547 1614l338 280h286l215 -280h-317l-68 121l-118 -121h-336zM561 563h387l-59 629z" />
<glyph unicode="&#xc3;" horiz-adv-x="1435" d="M-82 0l838 1475h383l215 -1475h-353l-32 338h-525l-176 -338h-350zM561 563h387l-59 629zM657 1602l50 225q106 68 196 67q63 0 135 -38.5t115 -38.5q68 0 182 77l-49 -225q-106 -68 -188 -67q-63 0 -135 38.5t-115 38.5q-76 1 -191 -77z" />
<glyph unicode="&#xc4;" horiz-adv-x="1435" d="M-82 0l838 1475h383l215 -1475h-353l-32 338h-525l-176 -338h-350zM561 563h387l-59 629zM578 1602l57 262h303l-57 -262h-303zM1049 1602l57 262h303l-57 -262h-303z" />
<glyph unicode="&#xc5;" horiz-adv-x="1435" d="M-82 0l809 1425q-47 57 -47 142q0 117 86 198.5t227 81.5q123 0 191.5 -63.5t68.5 -159.5q0 -135 -106 -215l207 -1409h-353l-32 338h-525l-176 -338h-350zM561 563h387l-59 629zM881 1575q0 -84 73 -84q39 0 68 32.5t29 92.5q0 84 -74 84q-41 0 -68.5 -35t-27.5 -90z " />
<glyph unicode="&#xc6;" horiz-adv-x="1968" d="M-82 0l1026 1475h1184l-55 -252h-590l-76 -361h530l-51 -237h-530l-80 -377h590l-51 -248h-934l71 338h-444l-232 -338h-358zM662 563h337l150 709z" />
<glyph unicode="&#xc7;" horiz-adv-x="1517" d="M131 559q0 125 23.5 249t86 252t155.5 225t245 158.5t342 61.5q246 0 414 -129t168 -356v-27h-344q0 135 -70 204t-190 69q-104 0 -188.5 -52.5t-135.5 -131t-85 -178t-47 -186.5t-13 -165q0 -174 73.5 -258t192.5 -84q143 0 234 80t141 252h350q-182 -553 -723 -574 l-10 -51q66 -18 101.5 -65.5t35.5 -110.5q0 -121 -88 -195.5t-230 -74.5q-135 0 -216 62.5t-81 166.5v18h205q0 -84 98.5 -84t98.5 80q0 82 -152 82l58 185q-215 35 -332 185t-117 392z" />
<glyph unicode="&#xc8;" horiz-adv-x="1189" d="M41 0l313 1475h996l-56 -252h-651l-76 -361h592l-51 -237h-592l-80 -377h651l-51 -248h-995zM602 1864h336l145 -281h-237z" />
<glyph unicode="&#xc9;" horiz-adv-x="1189" d="M41 0l313 1475h996l-56 -252h-651l-76 -361h592l-51 -237h-592l-80 -377h651l-51 -248h-995zM680 1583l268 281h357l-367 -281h-258z" />
<glyph unicode="&#xca;" horiz-adv-x="1189" d="M41 0l313 1475h996l-56 -252h-651l-76 -361h592l-51 -237h-592l-80 -377h651l-51 -248h-995zM457 1614l338 280h286l215 -280h-317l-68 121l-118 -121h-336z" />
<glyph unicode="&#xcb;" horiz-adv-x="1189" d="M41 0l313 1475h996l-56 -252h-651l-76 -361h592l-51 -237h-592l-80 -377h651l-51 -248h-995zM485 1602l58 262h303l-58 -262h-303zM956 1602l58 262h303l-57 -262h-304z" />
<glyph unicode="&#xcc;" horiz-adv-x="589" d="M41 0l313 1475h344l-313 -1475h-344zM309 1864h336l146 -281h-238z" />
<glyph unicode="&#xcd;" horiz-adv-x="589" d="M41 0l313 1475h344l-313 -1475h-344zM293 1583l268 281h357l-367 -281h-258z" />
<glyph unicode="&#xce;" horiz-adv-x="589" d="M41 0l313 1475h344l-313 -1475h-344zM135 1614l338 280h287l215 -280h-318l-67 121l-119 -121h-336z" />
<glyph unicode="&#xcf;" horiz-adv-x="589" d="M41 0l313 1475h344l-313 -1475h-344zM166 1602l57 262h303l-57 -262h-303zM637 1602l57 262h303l-57 -262h-303z" />
<glyph unicode="&#xd0;" horiz-adv-x="1492" d="M41 0l137 645h-104l55 258h104l121 572h506q305 0 476 -142.5t171 -412.5q0 -76 -9 -153t-34.5 -170t-66.5 -175t-109.5 -161t-158 -135t-218.5 -91t-284 -35h-586zM434 240h221q141 0 247 69.5t157 177t74.5 210t23.5 196.5q0 168 -87 256t-239 88h-184l-72 -334h265 l-56 -258h-264z" />
<glyph unicode="&#xd1;" horiz-adv-x="1476" d="M41 0l313 1475h381l340 -1022l217 1022h293l-313 -1475h-354l-359 1067l-223 -1067h-295zM686 1602l49 225q106 68 197 67q63 0 135 -38.5t115 -38.5q68 0 182 77l-49 -225q-106 -68 -189 -67q-63 0 -134.5 38.5t-114.5 38.5q-76 1 -191 -77z" />
<glyph unicode="&#xd2;" horiz-adv-x="1605" d="M131 578q0 127 26.5 250.5t90 247.5t159 218.5t246 152.5t334.5 58q164 0 303.5 -62.5t234.5 -205.5t95 -346q0 -115 -22.5 -231.5t-84 -243.5t-154.5 -223.5t-248 -160t-351 -63.5q-121 0 -230.5 37t-200.5 108.5t-144.5 191.5t-53.5 272zM483 567q0 -182 91.5 -268 t220.5 -86q121 0 217 68.5t149 176t81 222.5t28 225q0 182 -90 270.5t-219 88.5q-125 0 -222.5 -70t-149.5 -179.5t-79 -224t-27 -223.5zM774 1864h336l145 -281h-237z" />
<glyph unicode="&#xd3;" horiz-adv-x="1605" d="M131 578q0 127 26.5 250.5t90 247.5t159 218.5t246 152.5t334.5 58q164 0 303.5 -62.5t234.5 -205.5t95 -346q0 -115 -22.5 -231.5t-84 -243.5t-154.5 -223.5t-248 -160t-351 -63.5q-121 0 -230.5 37t-200.5 108.5t-144.5 191.5t-53.5 272zM483 567q0 -182 91.5 -268 t220.5 -86q121 0 217 68.5t149 176t81 222.5t28 225q0 182 -90 270.5t-219 88.5q-125 0 -222.5 -70t-149.5 -179.5t-79 -224t-27 -223.5zM856 1583l268 281h357l-367 -281h-258z" />
<glyph unicode="&#xd4;" horiz-adv-x="1605" d="M131 578q0 127 26.5 250.5t90 247.5t159 218.5t246 152.5t334.5 58q164 0 303.5 -62.5t234.5 -205.5t95 -346q0 -115 -22.5 -231.5t-84 -243.5t-154.5 -223.5t-248 -160t-351 -63.5q-121 0 -230.5 37t-200.5 108.5t-144.5 191.5t-53.5 272zM483 567q0 -182 91.5 -268 t220.5 -86q121 0 217 68.5t149 176t81 222.5t28 225q0 182 -90 270.5t-219 88.5q-125 0 -222.5 -70t-149.5 -179.5t-79 -224t-27 -223.5zM641 1614l338 280h287l215 -280h-318l-67 121l-119 -121h-336z" />
<glyph unicode="&#xd5;" horiz-adv-x="1605" d="M131 578q0 127 26.5 250.5t90 247.5t159 218.5t246 152.5t334.5 58q164 0 303.5 -62.5t234.5 -205.5t95 -346q0 -115 -22.5 -231.5t-84 -243.5t-154.5 -223.5t-248 -160t-351 -63.5q-121 0 -230.5 37t-200.5 108.5t-144.5 191.5t-53.5 272zM483 567q0 -182 91.5 -268 t220.5 -86q121 0 217 68.5t149 176t81 222.5t28 225q0 182 -90 270.5t-219 88.5q-125 0 -222.5 -70t-149.5 -179.5t-79 -224t-27 -223.5zM752 1602l49 225q106 68 196 67q63 0 135 -38.5t115 -38.5q68 0 183 77l-50 -225q-106 -68 -188 -67q-63 0 -135 38.5t-115 38.5 q-75 1 -190 -77z" />
<glyph unicode="&#xd6;" horiz-adv-x="1605" d="M131 578q0 127 26.5 250.5t90 247.5t159 218.5t246 152.5t334.5 58q164 0 303.5 -62.5t234.5 -205.5t95 -346q0 -115 -22.5 -231.5t-84 -243.5t-154.5 -223.5t-248 -160t-351 -63.5q-121 0 -230.5 37t-200.5 108.5t-144.5 191.5t-53.5 272zM483 567q0 -182 91.5 -268 t220.5 -86q121 0 217 68.5t149 176t81 222.5t28 225q0 182 -90 270.5t-219 88.5q-125 0 -222.5 -70t-149.5 -179.5t-79 -224t-27 -223.5zM672 1602l57 262h303l-57 -262h-303zM1143 1602l57 262h303l-57 -262h-303z" />
<glyph unicode="&#xd7;" d="M215 446l279 230l-181 229l195 162l180 -229l279 229l141 -178l-279 -230l181 -229l-195 -162l-182 230l-277 -230z" />
<glyph unicode="&#xd8;" horiz-adv-x="1605" d="M131 578q0 127 26.5 250.5t90 247.5t159 218.5t246 152.5t334.5 58q106 0 207 -30l121 204h244l-175 -295q236 -170 236 -493q0 -115 -22.5 -231.5t-84 -243.5t-154.5 -223.5t-248 -160t-351 -63.5q-109 0 -201 27l-125 -221h-244l175 311q-234 164 -234 492zM483 567 q0 -152 66 -239l524 915q-53 20 -112 21q-125 0 -222.5 -70t-149.5 -179.5t-79 -224t-27 -223.5zM680 231q55 -18 115 -18q121 0 217 68.5t149 176t81 222.5t28 225q0 150 -66 242z" />
<glyph unicode="&#xd9;" horiz-adv-x="1460" d="M119 393q0 53 12 113l207 969h344l-213 -992q-8 -41 -8 -63q0 -96 67.5 -151.5t184.5 -55.5q268 0 319 246l217 1016h330l-211 -994q-109 -512 -682 -512q-262 0 -414.5 113.5t-152.5 310.5zM655 1864h336l146 -281h-238z" />
<glyph unicode="&#xda;" horiz-adv-x="1460" d="M119 393q0 53 12 113l207 969h344l-213 -992q-8 -41 -8 -63q0 -96 67.5 -151.5t184.5 -55.5q268 0 319 246l217 1016h330l-211 -994q-109 -512 -682 -512q-262 0 -414.5 113.5t-152.5 310.5zM842 1583l268 281h356l-366 -281h-258z" />
<glyph unicode="&#xdb;" horiz-adv-x="1460" d="M119 393q0 53 12 113l207 969h344l-213 -992q-8 -41 -8 -63q0 -96 67.5 -151.5t184.5 -55.5q268 0 319 246l217 1016h330l-211 -994q-109 -512 -682 -512q-262 0 -414.5 113.5t-152.5 310.5zM565 1614l338 280h287l215 -280h-318l-67 121l-119 -121h-336z" />
<glyph unicode="&#xdc;" horiz-adv-x="1460" d="M119 393q0 53 12 113l207 969h344l-213 -992q-8 -41 -8 -63q0 -96 67.5 -151.5t184.5 -55.5q268 0 319 246l217 1016h330l-211 -994q-109 -512 -682 -512q-262 0 -414.5 113.5t-152.5 310.5zM596 1602l57 262h303l-57 -262h-303zM1067 1602l57 262h303l-57 -262h-303z " />
<glyph unicode="&#xdd;" horiz-adv-x="1368" d="M231 1475h355l194 -601l477 601h342l-710 -887l-125 -588h-324l125 588zM782 1583l269 281h356l-367 -281h-258z" />
<glyph unicode="&#xde;" horiz-adv-x="1363" d="M41 0l313 1475h344l-51 -236h172q281 0 421 -108.5t140 -305.5q0 -281 -182 -424t-526 -143h-232l-55 -258h-344zM489 494h220q143 0 229 86t86 227q0 197 -252 197h-174z" />
<glyph unicode="&#xdf;" horiz-adv-x="1325" d="M31 0l225 1069q47 225 170 330.5t397 105.5q197 0 328 -86t131 -219q0 -82 -46 -146.5t-100.5 -99t-100.5 -77.5t-46 -86q0 -51 82 -107q217 -143 217 -328q0 -176 -127 -281.5t-352 -105.5q-190 0 -281.5 83t-91.5 229v20h322q0 -2 -1 -10t-1 -10q0 -92 78 -93 q47 0 81.5 48.5t34.5 128t-90 139.5q-150 98 -149 231q0 74 37.5 135.5t83 97.5t83 87t37.5 104q0 51 -44 86t-117 35q-90 0 -141.5 -55.5t-76.5 -171.5l-75 -351l-189 -702h-278z" />
<glyph unicode="&#xe0;" horiz-adv-x="1187" d="M45 240q0 164 114.5 261t383.5 138l284 45l4 18q8 35 9 62q0 59 -39 92t-109 33q-147 0 -194 -131h-328q154 338 565 338q195 0 308.5 -90.5t113.5 -237.5q0 -45 -8 -84l-145 -684h-250l-17 111q-152 -141 -383 -142q-143 0 -226 72t-83 199zM371 293q0 -49 31.5 -77 t91.5 -28q104 0 179 59.5t93 145.5l25 117l-203 -39q-123 -23 -170 -64.5t-47 -113.5zM451 1475h335l146 -281h-238z" />
<glyph unicode="&#xe1;" horiz-adv-x="1187" d="M45 240q0 164 114.5 261t383.5 138l284 45l4 18q8 35 9 62q0 59 -39 92t-109 33q-147 0 -194 -131h-328q154 338 565 338q195 0 308.5 -90.5t113.5 -237.5q0 -45 -8 -84l-145 -684h-250l-17 111q-152 -141 -383 -142q-143 0 -226 72t-83 199zM371 293q0 -49 31.5 -77 t91.5 -28q104 0 179 59.5t93 145.5l25 117l-203 -39q-123 -23 -170 -64.5t-47 -113.5zM625 1194l268 281h356l-366 -281h-258z" />
<glyph unicode="&#xe2;" horiz-adv-x="1187" d="M45 240q0 164 114.5 261t383.5 138l284 45l4 18q8 35 9 62q0 59 -39 92t-109 33q-147 0 -194 -131h-328q154 338 565 338q195 0 308.5 -90.5t113.5 -237.5q0 -45 -8 -84l-145 -684h-250l-17 111q-152 -141 -383 -142q-143 0 -226 72t-83 199zM358 1225l338 280h287 l215 -280h-317l-68 121l-119 -121h-336zM371 293q0 -49 31.5 -77t91.5 -28q104 0 179 59.5t93 145.5l25 117l-203 -39q-123 -23 -170 -64.5t-47 -113.5z" />
<glyph unicode="&#xe3;" horiz-adv-x="1187" d="M45 240q0 164 114.5 261t383.5 138l284 45l4 18q8 35 9 62q0 59 -39 92t-109 33q-147 0 -194 -131h-328q154 338 565 338q195 0 308.5 -90.5t113.5 -237.5q0 -45 -8 -84l-145 -684h-250l-17 111q-152 -141 -383 -142q-143 0 -226 72t-83 199zM371 293q0 -49 31.5 -77 t91.5 -28q104 0 179 59.5t93 145.5l25 117l-203 -39q-123 -23 -170 -64.5t-47 -113.5zM446 1212l50 226q106 68 196 67q63 0 135 -39t115 -39q68 0 182 78l-49 -225q-106 -68 -188 -68q-63 0 -135 39t-115 39q-76 0 -191 -78z" />
<glyph unicode="&#xe4;" horiz-adv-x="1187" d="M45 240q0 164 114.5 261t383.5 138l284 45l4 18q8 35 9 62q0 59 -39 92t-109 33q-147 0 -194 -131h-328q154 338 565 338q195 0 308.5 -90.5t113.5 -237.5q0 -45 -8 -84l-145 -684h-250l-17 111q-152 -141 -383 -142q-143 0 -226 72t-83 199zM371 293q0 -49 31.5 -77 t91.5 -28q104 0 179 59.5t93 145.5l25 117l-203 -39q-123 -23 -170 -64.5t-47 -113.5zM371 1212l57 263h303l-57 -263h-303zM842 1212l57 263h303l-57 -263h-303z" />
<glyph unicode="&#xe5;" horiz-adv-x="1187" d="M45 240q0 164 114.5 261t383.5 138l284 45l4 18q8 35 9 62q0 59 -39 92t-109 33q-147 0 -194 -131h-328q154 338 565 338q195 0 308.5 -90.5t113.5 -237.5q0 -45 -8 -84l-145 -684h-250l-17 111q-152 -141 -383 -142q-143 0 -226 72t-83 199zM371 293q0 -49 31.5 -77 t91.5 -28q104 0 179 59.5t93 145.5l25 117l-203 -39q-123 -23 -170 -64.5t-47 -113.5zM528 1405q0 117 86 199t228 82q123 0 191.5 -63.5t68.5 -160.5q0 -117 -87 -198.5t-229 -81.5q-125 0 -191.5 62.5t-66.5 160.5zM729 1413q0 -84 74 -84q39 0 67.5 33t28.5 92 q0 84 -74 84q-41 0 -68.5 -35t-27.5 -90z" />
<glyph unicode="&#xe6;" horiz-adv-x="1931" d="M45 238q0 164 115.5 262t384.5 139l284 45l9 39q4 29 4 41q0 59 -39 92t-109 33q-147 0 -194 -131h-328q154 338 565 338q211 0 328 -107q156 106 365 107q221 0 349 -114t128 -335q0 -84 -23 -192h-776q-2 -14 -2 -41q0 -109 56.5 -165t154.5 -56q141 0 199 116h325 q-76 -164 -204 -252t-351 -88q-152 0 -268.5 61.5t-175.5 172.5q-98 -123 -204 -178.5t-245 -55.5q-168 0 -258 71t-90 198zM373 293q0 -49 31.5 -77t91.5 -28q104 0 179 59.5t93 145.5l25 117l-203 -39q-123 -23 -170 -64.5t-47 -113.5zM1147 641h448q6 37 7 70 q0 184 -193 184q-182 0 -262 -254z" />
<glyph unicode="&#xe7;" horiz-adv-x="1208" d="M84 389q0 92 18.5 183.5t64.5 187.5t116.5 168.5t185.5 120t258 47.5q215 0 351 -99.5t141 -259.5h-336q-4 63 -53.5 102.5t-112.5 39.5q-86 0 -149.5 -51.5t-94.5 -130.5t-44 -148.5t-13 -128.5q0 -111 49 -172.5t123 -61.5q70 0 120 40t95 128h336q-158 -365 -525 -383 l-10 -53q66 -18 101.5 -65.5t35.5 -110.5q0 -121 -88 -195.5t-229 -74.5q-135 0 -216 62.5t-81 166.5v18h205q0 -84 98 -84t98 80q0 82 -151 82l57 183q-174 29 -262 134t-88 275z" />
<glyph unicode="&#xe8;" horiz-adv-x="1232" d="M90 430q0 68 13.5 144.5t56.5 173t110.5 171t187.5 126t273 51.5q221 0 349 -114t128 -335q0 -84 -22 -192h-776q-2 -14 -2 -41q0 -109 56 -165t154 -56q139 0 199 116h326q-76 -164 -204 -252t-351 -88q-221 0 -359.5 126t-138.5 335zM449 641h448q6 37 6 70 q0 184 -186 184q-188 0 -268 -254zM461 1475h336l145 -281h-237z" />
<glyph unicode="&#xe9;" horiz-adv-x="1232" d="M90 430q0 68 13.5 144.5t56.5 173t110.5 171t187.5 126t273 51.5q221 0 349 -114t128 -335q0 -84 -22 -192h-776q-2 -14 -2 -41q0 -109 56 -165t154 -56q139 0 199 116h326q-76 -164 -204 -252t-351 -88q-221 0 -359.5 126t-138.5 335zM449 641h448q6 37 6 70 q0 184 -186 184q-188 0 -268 -254zM639 1194l268 281h357l-367 -281h-258z" />
<glyph unicode="&#xea;" horiz-adv-x="1232" d="M90 430q0 68 13.5 144.5t56.5 173t110.5 171t187.5 126t273 51.5q221 0 349 -114t128 -335q0 -84 -22 -192h-776q-2 -14 -2 -41q0 -109 56 -165t154 -56q139 0 199 116h326q-76 -164 -204 -252t-351 -88q-221 0 -359.5 126t-138.5 335zM362 1225l338 280h287l215 -280 h-317l-68 121l-119 -121h-336zM449 641h448q6 37 6 70q0 184 -186 184q-188 0 -268 -254z" />
<glyph unicode="&#xeb;" horiz-adv-x="1232" d="M90 430q0 68 13.5 144.5t56.5 173t110.5 171t187.5 126t273 51.5q221 0 349 -114t128 -335q0 -84 -22 -192h-776q-2 -14 -2 -41q0 -109 56 -165t154 -56q139 0 199 116h326q-76 -164 -204 -252t-351 -88q-221 0 -359.5 126t-138.5 335zM391 1212l58 263h303l-58 -263 h-303zM449 641h448q6 37 6 70q0 184 -186 184q-188 0 -268 -254zM862 1212l58 263h303l-58 -263h-303z" />
<glyph unicode="&#xec;" horiz-adv-x="585" d="M51 0l225 1065h320l-225 -1065h-320zM195 1475h335l146 -281h-238z" />
<glyph unicode="&#xed;" horiz-adv-x="585" d="M51 0l225 1065h320l-225 -1065h-320zM244 1194l268 281h356l-366 -281h-258z" />
<glyph unicode="&#xee;" horiz-adv-x="585" d="M49 1225l338 280h287l215 -280h-318l-67 121l-119 -121h-336zM51 0l225 1065h320l-225 -1065h-320z" />
<glyph unicode="&#xef;" horiz-adv-x="585" d="M51 0l225 1065h320l-225 -1065h-320zM80 1212l57 263h303l-57 -263h-303zM551 1212l57 263h303l-57 -263h-303z" />
<glyph unicode="&#xf0;" horiz-adv-x="1208" d="M80 406q0 152 53 279.5t178 215.5t303 88q82 0 164 -33.5t113 -85.5v21q0 141 -80 237l-39 -32h-293l183 151q-104 53 -256 84l45 211q225 -31 405 -135l82 68h293l-221 -183q205 -201 204 -489q0 -96 -17 -197.5t-64.5 -218.5t-120 -207t-194.5 -150.5t-275 -60.5 q-190 0 -326.5 111t-136.5 326zM406 406q0 -96 45 -150.5t129 -54.5q90 0 154.5 67.5t88 145.5t23.5 147q0 88 -48 142.5t-128 54.5q-74 0 -128.5 -34t-82 -90t-40.5 -112.5t-13 -115.5z" />
<glyph unicode="&#xf1;" horiz-adv-x="1230" d="M31 0l225 1065h264l6 -117q158 147 348 148q154 0 240 -82t86 -228q0 -57 -12 -118l-141 -668h-320l141 664q8 33 9 67q0 70 -39 104.5t-105 34.5q-88 0 -156.5 -60t-91.5 -169l-135 -641h-319zM494 1212l49 226q106 68 196 67q63 0 135 -39t115 -39q68 0 182 78 l-49 -225q-106 -68 -188 -68q-63 0 -135 39t-115 39q-75 0 -190 -78z" />
<glyph unicode="&#xf2;" horiz-adv-x="1269" d="M88 424q0 86 14.5 168t57.5 177t111.5 165t188.5 116t275 46q231 0 368.5 -120t137.5 -331q0 -82 -14.5 -163t-58.5 -177t-112.5 -167.5t-188 -120t-275.5 -48.5q-233 0 -368.5 120t-135.5 335zM416 418q0 -115 55 -174.5t145 -59.5q76 0 134.5 39t89 93.5t49 125 t24 121.5t5.5 96q0 113 -54.5 167.5t-146.5 54.5q-78 0 -137.5 -39t-89 -92.5t-48 -124t-22.5 -117.5t-4 -90zM473 1475h336l145 -281h-237z" />
<glyph unicode="&#xf3;" horiz-adv-x="1269" d="M88 424q0 86 14.5 168t57.5 177t111.5 165t188.5 116t275 46q231 0 368.5 -120t137.5 -331q0 -82 -14.5 -163t-58.5 -177t-112.5 -167.5t-188 -120t-275.5 -48.5q-233 0 -368.5 120t-135.5 335zM416 418q0 -115 55 -174.5t145 -59.5q76 0 134.5 39t89 93.5t49 125 t24 121.5t5.5 96q0 113 -54.5 167.5t-146.5 54.5q-78 0 -137.5 -39t-89 -92.5t-48 -124t-22.5 -117.5t-4 -90zM590 1194l268 281h356l-366 -281h-258z" />
<glyph unicode="&#xf4;" horiz-adv-x="1269" d="M88 424q0 86 14.5 168t57.5 177t111.5 165t188.5 116t275 46q231 0 368.5 -120t137.5 -331q0 -82 -14.5 -163t-58.5 -177t-112.5 -167.5t-188 -120t-275.5 -48.5q-233 0 -368.5 120t-135.5 335zM350 1225l338 280h287l215 -280h-318l-67 121l-119 -121h-336zM416 418 q0 -115 55 -174.5t145 -59.5q76 0 134.5 39t89 93.5t49 125t24 121.5t5.5 96q0 113 -54.5 167.5t-146.5 54.5q-78 0 -137.5 -39t-89 -92.5t-48 -124t-22.5 -117.5t-4 -90z" />
<glyph unicode="&#xf5;" horiz-adv-x="1269" d="M88 424q0 86 14.5 168t57.5 177t111.5 165t188.5 116t275 46q231 0 368.5 -120t137.5 -331q0 -82 -14.5 -163t-58.5 -177t-112.5 -167.5t-188 -120t-275.5 -48.5q-233 0 -368.5 120t-135.5 335zM416 418q0 -115 55 -174.5t145 -59.5q76 0 134.5 39t89 93.5t49 125 t24 121.5t5.5 96q0 113 -54.5 167.5t-146.5 54.5q-78 0 -137.5 -39t-89 -92.5t-48 -124t-22.5 -117.5t-4 -90zM461 1212l49 226q106 68 197 67q63 0 134.5 -39t114.5 -39q68 0 183 78l-49 -225q-106 -68 -189 -68q-63 0 -135 39t-115 39q-75 0 -190 -78z" />
<glyph unicode="&#xf6;" horiz-adv-x="1269" d="M88 424q0 86 14.5 168t57.5 177t111.5 165t188.5 116t275 46q231 0 368.5 -120t137.5 -331q0 -82 -14.5 -163t-58.5 -177t-112.5 -167.5t-188 -120t-275.5 -48.5q-233 0 -368.5 120t-135.5 335zM381 1212l57 263h303l-57 -263h-303zM416 418q0 -115 55 -174.5t145 -59.5 q76 0 134.5 39t89 93.5t49 125t24 121.5t5.5 96q0 113 -54.5 167.5t-146.5 54.5q-78 0 -137.5 -39t-89 -92.5t-48 -124t-22.5 -117.5t-4 -90zM852 1212l57 263h303l-57 -263h-303z" />
<glyph unicode="&#xf7;" d="M195 535l53 251h901l-53 -251h-901zM397 127l62 291h323l-61 -291h-324zM561 903l62 291h323l-61 -291h-324z" />
<glyph unicode="&#xf8;" horiz-adv-x="1269" d="M23 -225l206 307q-141 123 -141 342q0 86 14.5 168t57.5 177t111.5 165t188.5 116t275 46q96 0 183 -23l145 217h244l-209 -311q143 -119 143 -334q0 -82 -14.5 -163t-58.5 -177t-112.5 -167.5t-188 -120t-275.5 -48.5q-94 0 -178 23v-2l-144 -215h-247zM416 418 q0 -66 18 -113l371 559q-43 16 -88 17q-78 0 -137.5 -39t-89 -92.5t-48 -124t-22.5 -117.5t-4 -90zM532 199q35 -14 84 -15q76 0 134.5 39t89 93.5t49 125t24 121.5t5.5 96q0 51 -15 99z" />
<glyph unicode="&#xf9;" horiz-adv-x="1220" d="M90 279q0 61 14 124l142 662h319l-145 -688q-6 -29 -6 -49q0 -63 40 -98t107 -35q84 0 148.5 61t87.5 170l135 639h319l-225 -1065h-264l-8 113q-147 -143 -342 -144q-154 0 -238 82.5t-84 227.5zM434 1475h336l145 -281h-237z" />
<glyph unicode="&#xfa;" horiz-adv-x="1220" d="M90 279q0 61 14 124l142 662h319l-145 -688q-6 -29 -6 -49q0 -63 40 -98t107 -35q84 0 148.5 61t87.5 170l135 639h319l-225 -1065h-264l-8 113q-147 -143 -342 -144q-154 0 -238 82.5t-84 227.5zM627 1194l268 281h356l-366 -281h-258z" />
<glyph unicode="&#xfb;" horiz-adv-x="1220" d="M90 279q0 61 14 124l142 662h319l-145 -688q-6 -29 -6 -49q0 -63 40 -98t107 -35q84 0 148.5 61t87.5 170l135 639h319l-225 -1065h-264l-8 113q-147 -143 -342 -144q-154 0 -238 82.5t-84 227.5zM360 1225l338 280h287l215 -280h-317l-68 121l-119 -121h-336z" />
<glyph unicode="&#xfc;" horiz-adv-x="1220" d="M90 279q0 61 14 124l142 662h319l-145 -688q-6 -29 -6 -49q0 -63 40 -98t107 -35q84 0 148.5 61t87.5 170l135 639h319l-225 -1065h-264l-8 113q-147 -143 -342 -144q-154 0 -238 82.5t-84 227.5zM393 1212l58 263h303l-58 -263h-303zM864 1212l58 263h303l-58 -263h-303 z" />
<glyph unicode="&#xfd;" horiz-adv-x="1169" d="M43 -369l49 224q80 -27 135 -27q106 0 174 172h-90l-157 1065h329l60 -832l430 832h330l-623 -1108q-117 -209 -210 -282.5t-239 -73.5q-96 -1 -188 30zM592 1194l268 281h357l-367 -281h-258z" />
<glyph unicode="&#xfe;" horiz-adv-x="1302" d="M-49 -369l393 1844h320l-111 -517q158 137 330 138q180 0 289.5 -117t109.5 -311q0 -84 -17.5 -173t-62.5 -185.5t-110.5 -170t-173 -122t-240.5 -48.5q-90 0 -174 38t-131 97l-103 -473h-319zM440 420q0 -104 55.5 -160.5t153.5 -56.5q88 0 151.5 48t94.5 123t44 140.5 t13 120.5q0 113 -53 170t-145 57q-86 0 -152.5 -50t-98.5 -126t-47.5 -143.5t-15.5 -122.5z" />
<glyph unicode="&#xff;" horiz-adv-x="1169" d="M43 -369l49 224q80 -27 135 -27q106 0 174 172h-90l-157 1065h329l60 -832l430 832h330l-623 -1108q-117 -209 -210 -282.5t-239 -73.5q-96 -1 -188 30zM373 1212l57 263h303l-57 -263h-303zM844 1212l57 263h303l-57 -263h-303z" />
<glyph unicode="&#x152;" horiz-adv-x="1931" d="M127 547q0 129 26.5 256t92 256t163 226t251 158.5t341.5 61.5q125 0 228 -30h862l-55 -252h-611l-75 -361h551l-52 -237h-551l-79 -377h610l-51 -248h-875q-96 -31 -207 -31q-252 0 -410.5 144.5t-158.5 433.5zM475 555q0 -174 80 -258t201 -84q63 0 114 16l217 1018 q-57 16 -108 17q-135 0 -238.5 -73t-158 -187.5t-81 -228.5t-26.5 -220z" />
<glyph unicode="&#x153;" horiz-adv-x="2039" d="M88 424q0 80 14.5 161t57.5 176t110.5 166.5t188.5 120t276 48.5q242 0 385 -158q178 158 418 158q221 0 349 -114t128 -335q0 -84 -22 -192h-776q-2 -14 -3 -41q0 -109 56.5 -165t154.5 -56q139 0 199 116h326q-76 -164 -204 -252t-351 -88q-229 0 -373 154 q-170 -154 -430 -154q-233 0 -368.5 120t-135.5 335zM416 418q0 -117 51 -175.5t141 -58.5q117 0 184.5 73t108.5 261q16 86 17 141q0 113 -52.5 167.5t-142.5 54.5q-78 0 -136.5 -34t-90 -82t-51 -115.5t-24.5 -121t-5 -110.5zM1255 641h449q6 37 6 70q0 184 -192 184 q-183 0 -263 -254z" />
<glyph unicode="&#x178;" horiz-adv-x="1368" d="M231 1475h355l194 -601l477 601h342l-710 -887l-125 -588h-324l125 588zM561 1602l57 262h304l-58 -262h-303zM1032 1602l58 262h303l-58 -262h-303z" />
<glyph unicode="&#x2c6;" horiz-adv-x="962" d="M238 1225l337 280h287l215 -280h-317l-68 121l-119 -121h-335z" />
<glyph unicode="&#x2dc;" horiz-adv-x="737" d="M236 1212l49 226q106 68 196 67q63 0 135 -39t115 -39q68 0 182 78l-49 -225q-106 -68 -188 -68q-63 0 -135 39t-115 39q-75 0 -190 -78z" />
<glyph unicode="&#x2013;" horiz-adv-x="819" d="M31 535l53 251h819l-53 -251h-819z" />
<glyph unicode="&#x2014;" d="M31 535l53 251h1229l-53 -251h-1229z" />
<glyph unicode="&#x2018;" horiz-adv-x="552" d="M158 778l63 301q18 90 59.5 160t88.5 111t111.5 68.5t115.5 38.5t115 18l-35 -160q-180 -39 -215 -215h129l-70 -322h-362z" />
<glyph unicode="&#x2019;" horiz-adv-x="552" d="M156 778l34 160q176 37 216 215h-130l70 322h363l-64 -301q-25 -113 -78 -192t-127.5 -119t-139 -58.5t-144.5 -26.5z" />
<glyph unicode="&#x201a;" horiz-adv-x="552" d="M-86 -375l31 160q178 37 217 215h-129l67 322h363l-64 -302q-25 -113 -78 -191.5t-126.5 -118.5t-138 -58.5t-142.5 -26.5z" />
<glyph unicode="&#x201c;" horiz-adv-x="1038" d="M193 778l63 301q18 90 59 160t88.5 111t112 68.5t115.5 38.5t114 18l-34 -160q-180 -39 -215 -215h129l-70 -322h-362zM643 778l64 301q25 113 78 192t126.5 119t139 58t145.5 27l-35 -160q-180 -39 -215 -215h129l-69 -322h-363z" />
<glyph unicode="&#x201d;" horiz-adv-x="1038" d="M156 778l34 160q176 37 216 215h-130l70 322h363l-64 -301q-25 -113 -78 -192t-127.5 -119t-139 -58.5t-144.5 -26.5zM606 778l35 160q176 37 215 215h-129l70 322h362l-63 -301q-25 -113 -78 -192t-127 -119t-139.5 -58.5t-145.5 -26.5z" />
<glyph unicode="&#x201e;" horiz-adv-x="1003" d="M-86 -375l31 160q178 37 217 215h-129l67 322h363l-64 -302q-25 -113 -78 -191.5t-126.5 -118.5t-138 -58.5t-142.5 -26.5zM362 -375l33 160q178 37 217 215h-129l68 322h362l-63 -302q-18 -90 -59 -159.5t-88.5 -110.5t-111 -68.5t-115 -39t-114.5 -17.5z" />
<glyph unicode="&#x2022;" horiz-adv-x="686" d="M109 422l98 461h481l-98 -461h-481z" />
<glyph unicode="&#x2026;" horiz-adv-x="1775" d="M-49 0l67 322h363l-68 -322h-362zM543 0l67 322h363l-68 -322h-362zM1135 0l67 322h363l-68 -322h-362z" />
<glyph unicode="&#x2039;" horiz-adv-x="688" d="M145 645l355 420h239l-280 -426l73 -455h-225z" />
<glyph unicode="&#x203a;" horiz-adv-x="688" d="M70 184l266 455l-100 426h225l188 -420l-340 -461h-239z" />
<glyph unicode="&#x20ac;" d="M27 475l79 193h62q6 51 18 114h-94l80 193h72q82 215 243.5 352t415.5 137q205 0 334 -104.5t129 -265.5v-21h-311q0 70 -48.5 111t-123.5 41q-184 0 -295 -250h401l-80 -193h-385q-6 -31 -20 -114h356l-80 -193h-291q2 -264 211 -264q152 0 213 143h312 q-63 -176 -207 -280.5t-350 -104.5q-78 0 -157 25.5t-157 80t-131 159t-61 241.5h-135z" />
<glyph unicode="&#x2122;" horiz-adv-x="1720" d="M201 1278v197h1013l154 -512l133 512h348v-811h-231v491l-152 -491h-202l-154 491v-491h-227v614h-197v-614h-240v614h-245z" />
<glyph unicode="&#xe000;" horiz-adv-x="1065" d="M0 1065h1065v-1065h-1065v1065z" />
<glyph unicode="&#xfb01;" horiz-adv-x="1282" d="M111 0l178 844h-162l47 221h162l16 78q41 195 150.5 278.5t308.5 83.5q229 0 360 -45l-47 -225q-115 37 -250 37q-106 0 -148 -31t-56 -106l-15 -70h658l-226 -1065h-319l178 844h-338l-178 -844h-319z" />
<glyph unicode="&#xfb02;" horiz-adv-x="1304" d="M111 0l182 862h-162l47 221h162l14 60q47 193 152.5 277.5t290.5 84.5q164 0 309 -32l317 20l-315 -1493h-320l265 1247q-98 25 -187 25q-96 0 -140 -34t-56 -103l-11 -52h203l-47 -221h-203l-182 -862h-319z" />
<glyph unicode="&#xfb03;" horiz-adv-x="1941" d="M111 0l178 844h-162l47 221h162l16 78q39 182 136.5 262t277.5 80q250 0 416 -74q131 94 329 94q186 0 320 -37l-47 -225q-111 29 -240 29q-111 0 -156 -33t-59 -104l-14 -70h657l-225 -1065h-320l179 844h-338l-178 -844h-320l178 844h-340l-178 -844h-319zM655 1065 h340l13 57q14 66 28 101q-106 29 -209 28q-82 0 -112.5 -24.5t-44.5 -91.5z" />
<glyph unicode="&#xfb04;" horiz-adv-x="1964" d="M111 0l178 844h-162l47 221h162l16 78q39 188 142.5 265t277.5 77q229 0 391 -68q106 88 326 88q152 0 278 -24l316 12l-316 -1493h-319l266 1255q-92 16 -196 17q-158 0 -185 -123l-18 -84h223l-47 -221h-223l-178 -844h-320l178 844h-340l-178 -844h-319zM655 1065h340 l17 78q6 29 22 82q-119 27 -198 26q-84 0 -118 -25.5t-48 -90.5z" />
</font>
</defs>
</svg>
